<?xml version="1.0" encoding="utf-8"?>
<!-- Generator: Adobe Illustrator 13.0.2, SVG Export Plug-In . SVG Version: 6.00 Build 14948)  -->
<!DOCTYPE svg PUBLIC "-//W3C//DTD SVG 1.1//EN" "http://www.w3.org/Graphics/SVG/1.1/DTD/svg11.dtd">
<svg version="1.1" xmlns="http://www.w3.org/2000/svg" xmlns:xlink="http://www.w3.org/1999/xlink" x="0px" y="0px"
	 width="94.625px" height="20px" viewBox="0 0 94.625 20" enable-background="new 0 0 94.625 20" xml:space="preserve">
<g id="Layer_1">
	<g>
		<path fill="#B7B7B7" d="M10.176,0.582c2.657,0,4.92,0.927,6.786,2.782c0.893,0.894,1.571,1.915,2.035,3.062
			c0.463,1.148,0.695,2.366,0.695,3.656c0,1.301-0.229,2.519-0.687,3.656c-0.458,1.136-1.134,2.14-2.027,3.01
			c-0.928,0.917-1.979,1.618-3.155,2.104c-1.177,0.486-2.393,0.729-3.647,0.729c-1.256,0-2.457-0.24-3.605-0.721
			c-1.148-0.481-2.177-1.177-3.087-2.086c-0.911-0.911-1.603-1.938-2.079-3.08c-0.475-1.142-0.712-2.347-0.712-3.614
			c0-1.255,0.24-2.462,0.721-3.622c0.481-1.158,1.179-2.197,2.095-3.113C5.318,1.503,7.541,0.582,10.176,0.582z M10.209,2.295
			c-2.171,0-3.998,0.758-5.479,2.273C3.983,5.326,3.41,6.177,3.008,7.121c-0.401,0.945-0.602,1.932-0.602,2.96
			c0,1.019,0.201,1.999,0.602,2.943c0.402,0.945,0.976,1.787,1.723,2.527c0.746,0.741,1.589,1.307,2.527,1.697
			s1.922,0.585,2.952,0.585c1.018,0,2.004-0.197,2.96-0.594c0.956-0.396,1.817-0.966,2.587-1.713
			c1.481-1.448,2.222-3.263,2.222-5.446c0-1.052-0.193-2.046-0.577-2.985c-0.385-0.939-0.944-1.775-1.679-2.511
			C14.196,3.059,12.358,2.295,10.209,2.295z M10.09,8.504L8.819,9.166c-0.136-0.282-0.303-0.48-0.5-0.593
			c-0.198-0.113-0.382-0.17-0.552-0.17c-0.848,0-1.271,0.56-1.271,1.679c0,0.509,0.106,0.916,0.321,1.222
			c0.215,0.305,0.532,0.458,0.95,0.458c0.554,0,0.944-0.271,1.17-0.814l1.171,0.593c-0.249,0.464-0.593,0.829-1.035,1.095
			c-0.441,0.265-0.927,0.398-1.458,0.398c-0.849,0-1.534-0.261-2.053-0.781c-0.521-0.52-0.781-1.244-0.781-2.171
			c0-0.904,0.263-1.623,0.789-2.154C6.096,7.396,6.76,7.13,7.563,7.13C8.739,7.13,9.582,7.588,10.09,8.504z M15.57,8.504
			l-1.254,0.661c-0.136-0.282-0.303-0.48-0.501-0.593c-0.198-0.113-0.388-0.17-0.568-0.17c-0.848,0-1.272,0.56-1.272,1.679
			c0,0.509,0.107,0.916,0.322,1.222c0.214,0.305,0.531,0.458,0.95,0.458c0.554,0,0.944-0.271,1.171-0.814l1.188,0.593
			c-0.261,0.464-0.611,0.829-1.052,1.095c-0.441,0.265-0.922,0.398-1.442,0.398c-0.86,0-1.547-0.261-2.061-0.781
			c-0.515-0.52-0.772-1.244-0.772-2.171c0-0.904,0.262-1.623,0.789-2.154c0.525-0.531,1.19-0.797,1.993-0.797
			C14.235,7.13,15.073,7.588,15.57,8.504z"/>
	</g>
	<g>
		<path fill="#B7B7B7" d="M34.935,0.554c2.669,0,4.92,0.916,6.752,2.749c1.843,1.843,2.765,4.094,2.765,6.752
			c0,2.669-0.904,4.892-2.714,6.667c-1.923,1.89-4.19,2.833-6.803,2.833c-2.567,0-4.795-0.933-6.684-2.799
			c-1.867-1.866-2.8-4.1-2.8-6.701s0.933-4.852,2.8-6.752C30.083,1.47,32.311,0.554,34.935,0.554z M34.969,2.267
			c-2.161,0-3.986,0.759-5.479,2.274c-1.549,1.583-2.324,3.421-2.324,5.514c0,2.104,0.769,3.924,2.307,5.462
			c1.538,1.539,3.37,2.307,5.497,2.307c2.114,0,3.958-0.774,5.53-2.324c1.493-1.436,2.239-3.251,2.239-5.445
			c0-2.16-0.758-3.998-2.273-5.514C38.95,3.026,37.118,2.267,34.969,2.267z M37.514,7.696v3.885h-1.086v4.614h-2.952v-4.614h-1.085
			V7.696c0-0.17,0.06-0.313,0.178-0.432c0.118-0.119,0.263-0.179,0.433-0.179h3.902c0.159,0,0.299,0.06,0.424,0.179
			C37.452,7.383,37.514,7.526,37.514,7.696z M33.629,5.254c0-0.894,0.441-1.34,1.323-1.34c0.882,0,1.323,0.447,1.323,1.34
			c0,0.881-0.441,1.323-1.323,1.323C34.07,6.577,33.629,6.135,33.629,5.254z"/>
	</g>
	<g>
		<path fill="#B7B7B7" d="M59.694,0.498c2.669,0,4.92,0.915,6.752,2.748c1.843,1.832,2.766,4.083,2.766,6.752
			s-0.905,4.892-2.714,6.667c-1.923,1.89-4.19,2.833-6.803,2.833c-2.578,0-4.806-0.939-6.684-2.816
			c-1.866-1.866-2.799-4.094-2.799-6.684c0-2.602,0.933-4.852,2.799-6.752C54.843,1.413,57.07,0.498,59.694,0.498z M52.349,7.437
			c-0.283,0.78-0.424,1.634-0.424,2.562c0,2.103,0.769,3.924,2.308,5.462c1.549,1.527,3.381,2.291,5.496,2.291
			c2.138,0,3.981-0.775,5.531-2.325c0.553-0.531,0.989-1.085,1.306-1.663l-3.58-1.595c-0.124,0.6-0.427,1.089-0.907,1.468
			c-0.48,0.379-1.049,0.596-1.705,0.653v1.458H59.27V14.29c-1.052-0.011-2.013-0.391-2.884-1.137l1.307-1.323
			c0.621,0.576,1.328,0.865,2.121,0.865c0.328,0,0.608-0.074,0.839-0.221S61,12.084,61,11.745c0-0.238-0.084-0.429-0.255-0.577
			l-0.916-0.39l-1.12-0.509l-1.51-0.662L52.349,7.437z M59.728,2.193c-2.16,0-3.986,0.764-5.479,2.291
			c-0.373,0.373-0.724,0.797-1.051,1.273l3.63,1.628c0.158-0.498,0.458-0.896,0.899-1.196c0.44-0.299,0.956-0.467,1.543-0.501V4.23
			h1.103v1.458c0.871,0.046,1.663,0.34,2.375,0.882l-1.239,1.273c-0.531-0.374-1.074-0.56-1.628-0.56
			c-0.294,0-0.557,0.056-0.789,0.168c-0.232,0.114-0.348,0.306-0.348,0.578c0,0.079,0.028,0.158,0.085,0.237l1.203,0.543
			l0.832,0.374l1.526,0.678l4.869,2.172c0.158-0.668,0.237-1.347,0.237-2.036c0-2.183-0.758-4.021-2.273-5.514
			C63.72,2.958,61.889,2.193,59.728,2.193z"/>
	</g>
	<g>
		<path fill="#B7B7B7" d="M84.454,0.526c2.658,0,4.908,0.922,6.752,2.765c1.843,1.833,2.765,4.078,2.765,6.735
			c0,2.657-0.904,4.885-2.715,6.684c-1.911,1.877-4.179,2.816-6.802,2.816c-2.567,0-4.795-0.933-6.684-2.799
			c-1.867-1.866-2.799-4.099-2.799-6.701c0-2.59,0.933-4.835,2.799-6.735C79.612,1.448,81.841,0.526,84.454,0.526z M84.487,2.239
			c-2.161,0-3.986,0.764-5.479,2.291c-1.55,1.572-2.324,3.404-2.324,5.497c0,2.114,0.769,3.936,2.307,5.462
			c1.539,1.539,3.37,2.308,5.496,2.308c2.115,0,3.959-0.774,5.531-2.325c1.493-1.447,2.239-3.262,2.239-5.445
			c0-2.172-0.758-4.003-2.274-5.497C88.48,3.003,86.648,2.239,84.487,2.239z M80.246,8.686c0.182-1.165,0.651-2.067,1.409-2.706
			c0.758-0.64,1.679-0.959,2.765-0.959c1.492,0,2.68,0.482,3.562,1.443c0.881,0.961,1.323,2.194,1.323,3.698
			c0,1.459-0.458,2.672-1.374,3.64c-0.916,0.966-2.104,1.45-3.563,1.45c-1.074,0-2.001-0.322-2.781-0.967
			c-0.781-0.645-1.25-1.561-1.408-2.749h2.392c0.056,1.154,0.752,1.731,2.086,1.731c0.667,0,1.204-0.288,1.611-0.865
			c0.408-0.577,0.611-1.345,0.611-2.307c0-1.006-0.187-1.773-0.56-2.299s-0.911-0.789-1.612-0.789c-1.267,0-1.979,0.56-2.137,1.68
			h0.695l-1.883,1.883L79.5,8.686H80.246z"/>
	</g>
</g>
</svg>
