<?xml version="1.0" encoding="utf-8" standalone="no"?>
<!DOCTYPE svg PUBLIC "-//W3C//DTD SVG 1.1//EN"
  "http://www.w3.org/Graphics/SVG/1.1/DTD/svg11.dtd">
<!-- Created with matplotlib (http://matplotlib.org/) -->
<svg height="432pt" version="1.1" viewBox="0 0 648 432" width="648pt" xmlns="http://www.w3.org/2000/svg" xmlns:xlink="http://www.w3.org/1999/xlink">
 <defs>
  <style type="text/css">
*{stroke-linecap:butt;stroke-linejoin:round;}
  </style>
 </defs>
 <g id="figure_1">
  <g id="patch_1">
   <path d="
M0 432
L648 432
L648 0
L0 0
L0 432" style="fill:none;"/>
  </g>
  <g id="axes_1">
   <g id="patch_2">
    <path d="
M81 378
L583.2 378
L583.2 43.2
L81 43.2
L81 378" style="fill:none;"/>
   </g>
   <g id="line2d_1">
    <path clip-path="url(#p6858f96ca6)" d="
M102.454 101.79
L103.484 101.79
L103.656 97.605
L103.827 97.605
L103.999 101.79
L104.171 97.605
L105.115 97.605
L105.286 93.42
L105.629 93.42
L105.801 97.605
L105.973 97.605
L106.144 101.79
L106.488 101.79
L106.659 105.975
L106.831 105.975
L107.002 110.16
L109.148 110.16
L109.32 114.345
L109.577 114.345
L109.834 122.715
L112.495 122.715
L112.666 126.9
L114.898 126.9
L115.069 122.715
L116.099 122.715
L116.271 126.9
L116.442 126.9
L116.614 131.085
L117.215 131.085
L117.472 139.455
L117.987 139.455
L118.159 135.27
L120.39 135.27
L120.562 131.085
L120.733 131.085
L120.905 126.9
L121.076 131.085
L121.506 131.085
L121.677 135.27
L123.651 135.27
L124.166 114.345
L124.852 114.345
L125.11 105.975
L128.8 105.975
L128.972 101.79
L129.658 101.79
L129.83 105.975
L130.001 101.79
L131.203 101.79
L131.374 105.975
L131.632 105.975
L131.975 118.53
L132.233 118.53
L132.404 114.345
L132.576 118.53
L134.979 118.53
L135.236 105.975
L135.408 110.16
L142.445 110.16
L142.616 114.345
L143.303 114.345
L143.475 118.53
L144.762 118.53
L144.934 114.345
L146.736 114.345
L146.907 110.16
L147.251 110.16
L147.422 105.975
L147.594 105.975
L147.765 110.16
L148.195 110.16
L148.366 105.975
L148.538 114.345
L148.709 110.16
L149.053 110.16
L149.224 114.345
L149.396 114.345
L149.482 110.16
L149.653 114.345
L149.739 114.345
L149.911 110.16
L150.426 110.16
L150.597 114.345
L151.198 114.345
L151.37 118.53
L151.885 118.53
L152.142 110.16
L152.314 110.16
L152.485 118.53
L152.743 110.16
L155.403 110.16
L155.575 105.975
L159.007 105.975
L159.179 101.79
L159.351 101.79
L159.522 97.605
L160.123 97.605
L160.381 89.235
L162.097 89.235
L162.269 93.42
L162.354 93.42
L162.526 89.235
L163.813 89.235
L163.985 85.05
L164.414 85.05
L164.586 80.865
L168.447 80.865
L168.619 85.05
L170.335 85.05
L170.507 89.235
L172.567 89.235
L172.738 85.05
L174.111 85.05
L174.283 80.865
L174.54 80.865
L174.884 68.31
L175.313 68.31
L175.484 64.125
L178.145 64.125
L178.316 59.94
L180.118 59.94
L180.29 64.125
L180.462 64.125
L180.633 68.31
L185.353 68.31
L185.525 64.125
L186.211 64.125
L186.383 59.94
L187.499 59.94
L187.67 64.125
L188.7 64.125
L188.872 68.31
L190.502 68.31
L190.674 64.125
L191.103 64.125
L191.36 72.495
L191.532 72.495
L191.704 76.68
L191.79 76.68
L192.047 68.31
L192.133 68.31
L192.304 72.495
L192.39 72.495
L192.562 68.31
L193.334 68.31
L193.506 64.125
L194.107 64.125
L194.278 59.94
L195.222 59.94
L195.48 51.57
L202.431 51.57
L202.602 55.755
L203.032 55.755
L203.203 59.94
L203.975 59.94
L204.147 64.125
L204.834 64.125
L205.005 68.31
L205.177 64.125
L211.356 64.125
L211.527 59.94
L213.244 59.94
L213.415 55.755
L215.475 55.755
L215.647 59.94
L219.251 59.94
L219.508 68.31
L219.852 68.31
L220.023 72.495
L221.74 72.495
L221.911 76.68
L223.027 76.68
L223.198 72.495
L223.37 72.495
L223.542 68.31
L225.344 68.31
L225.516 72.495
L225.859 72.495
L226.03 76.68
L226.374 76.68
L226.545 80.865
L226.803 80.865
L226.974 85.05
L227.575 85.05
L227.747 89.235
L229.206 89.235
L229.377 93.42
L229.721 93.42
L229.892 97.605
L230.407 97.605
L230.579 93.42
L230.836 93.42
L231.008 97.605
L231.609 97.605
L231.78 93.42
L234.097 93.42
L234.526 76.68
L235.041 76.68
L235.213 72.495
L235.642 72.495
L235.728 76.68
L235.814 72.495
L235.985 76.68
L236.157 72.495
L236.243 72.495
L236.5 80.865
L236.672 80.865
L237.015 93.42
L237.873 93.42
L238.045 97.605
L238.817 97.605
L238.989 101.79
L239.075 101.79
L239.418 114.345
L242.421 114.345
L242.679 122.715
L242.765 122.715
L242.936 126.9
L243.794 126.9
L243.966 131.085
L244.052 131.085
L244.224 135.27
L244.738 135.27
L244.91 139.455
L245.339 139.455
L245.511 135.27
L245.94 135.27
L246.112 131.085
L246.283 131.085
L246.455 135.27
L246.884 135.27
L247.056 131.085
L247.742 131.085
L247.914 126.9
L248 126.9
L248.171 131.085
L248.257 131.085
L248.514 139.455
L250.488 139.455
L250.66 143.64
L251.175 143.64
L251.346 147.825
L255.637 147.825
L255.809 152.01
L256.924 152.01
L257.096 156.195
L257.439 156.195
L257.611 160.38
L258.383 160.38
L258.555 156.195
L258.984 156.195
L259.156 160.38
L262.159 160.38
L262.417 152.01
L262.76 152.01
L262.932 147.825
L264.648 147.825
L264.82 143.64
L264.905 143.64
L265.077 147.825
L265.42 147.825
L265.592 152.01
L265.849 152.01
L266.021 156.195
L267.308 156.195
L267.48 160.38
L268.767 160.38
L268.939 156.195
L269.282 156.195
L269.454 152.01
L269.711 152.01
L269.883 147.825
L270.484 147.825
L270.655 143.64
L272.114 143.64
L272.286 139.455
L272.457 143.64
L272.629 143.64
L272.801 139.455
L273.745 139.455
L273.916 135.27
L275.203 135.27
L275.375 139.455
L277.263 139.455
L277.521 147.825
L278.293 147.825
L278.55 156.195
L278.636 152.01
L278.722 156.195
L278.894 152.01
L279.065 156.195
L279.151 156.195
L279.408 147.825
L279.58 147.825
L279.923 135.27
L280.782 135.27
L280.953 131.085
L281.726 131.085
L281.897 126.9
L281.983 126.9
L282.326 114.345
L285.33 114.345
L285.587 105.975
L285.673 105.975
L285.845 101.79
L286.617 101.79
L286.703 105.975
L286.875 101.79
L286.96 105.975
L287.132 101.79
L287.218 101.79
L287.389 105.975
L287.647 105.975
L287.819 101.79
L289.192 101.79
L289.363 97.605
L290.908 97.605
L291.08 93.42
L291.165 93.42
L291.337 89.235
L291.938 89.235
L292.109 93.42
L293.397 93.42
L293.568 89.235
L294.083 89.235
L294.255 85.05
L294.426 89.235
L298.546 89.235
L298.717 85.05
L299.49 85.05
L299.661 89.235
L299.833 89.235
L300.005 85.05
L300.348 85.05
L300.519 80.865
L301.892 80.865
L302.064 76.68
L303.609 76.68
L303.78 80.865
L304.124 80.865
L304.295 85.05
L304.724 85.05
L304.896 89.235
L305.154 89.235
L305.325 93.42
L305.668 93.42
L305.84 97.605
L306.012 97.605
L306.269 105.975
L307.814 105.975
L307.985 101.79
L308.329 101.79
L308.5 97.605
L308.672 101.79
L308.758 101.79
L308.929 97.605
L309.015 97.605
L309.187 101.79
L309.959 101.79
L310.131 105.975
L310.217 105.975
L310.388 101.79
L311.161 101.79
L311.332 97.605
L315.194 97.605
L315.366 93.42
L315.709 93.42
L315.881 97.605
L316.739 97.605
L316.996 105.975
L317.94 105.975
L318.112 114.345
L318.198 110.16
L318.455 118.53
L320.171 118.53
L320.429 110.16
L320.858 110.16
L321.03 114.345
L321.201 114.345
L321.459 105.975
L321.545 105.975
L321.716 110.16
L322.66 110.16
L322.832 114.345
L326.608 114.345
L326.779 118.53
L329.354 118.53
L329.525 122.715
L329.697 118.53
L329.783 118.53
L329.955 114.345
L330.126 114.345
L330.298 110.16
L331.242 110.16
L331.585 122.715
L332.186 122.715
L332.357 126.9
L334.16 126.9
L334.331 122.715
L334.846 122.715
L335.018 118.53
L336.391 118.53
L336.562 122.715
L337.163 122.715
L337.249 118.53
L337.421 122.715
L338.622 122.715
L338.794 126.9
L341.197 126.9
L341.368 131.085
L342.398 131.085
L342.57 126.9
L344.372 126.9
L344.543 131.085
L346.517 131.085
L346.689 126.9
L347.032 126.9
L347.204 122.715
L347.633 122.715
L347.719 118.53
L347.89 122.715
L347.976 122.715
L348.062 126.9
L348.234 122.715
L348.577 122.715
L348.748 118.53
L348.92 122.715
L349.178 114.345
L350.122 114.345
L350.293 118.53
L350.894 118.53
L351.066 122.715
L351.409 122.715
L351.58 118.53
L351.752 122.715
L351.924 122.715
L352.095 118.53
L352.267 118.53
L352.439 122.715
L352.868 122.715
L353.039 118.53
L353.468 118.53
L353.64 122.715
L353.726 122.715
L353.897 126.9
L354.327 126.9
L354.498 131.085
L355.356 131.085
L355.528 135.27
L356.386 135.27
L356.558 139.455
L357.33 139.455
L357.502 143.64
L358.617 143.64
L358.789 139.455
L359.647 139.455
L359.905 131.085
L360.849 131.085
L361.278 114.345
L363.766 114.345
L363.938 110.16
L364.453 110.16
L364.625 105.975
L365.569 105.975
L365.74 101.79
L365.998 101.79
L366.169 105.975
L369.344 105.975
L369.688 118.53
L369.774 118.53
L370.288 139.455
L372.262 139.455
L372.434 135.27
L372.949 135.27
L373.12 139.455
L373.55 139.455
L373.721 143.64
L374.15 143.64
L374.494 131.085
L375.094 131.085
L375.266 126.9
L376.811 126.9
L376.982 131.085
L377.325 131.085
L377.497 135.27
L377.583 135.27
L377.755 139.455
L379.299 139.455
L379.471 135.27
L380.844 135.27
L381.016 139.455
L381.53 139.455
L381.702 135.27
L382.217 135.27
L382.389 139.455
L382.474 139.455
L382.732 147.825
L384.105 147.825
L384.277 143.64
L385.049 143.64
L385.221 147.825
L385.392 147.825
L385.564 152.01
L385.736 152.01
L385.993 160.38
L387.28 160.38
L387.452 156.195
L387.709 156.195
L387.881 160.38
L389.511 160.38
L389.941 177.12
L390.284 177.12
L390.455 181.305
L390.627 181.305
L390.799 177.12
L390.885 177.12
L391.056 172.935
L391.142 172.935
L391.485 185.49
L391.743 185.49
L392 193.86
L392.172 193.86
L392.515 206.415
L392.687 206.415
L393.03 218.97
L393.202 214.785
L393.545 227.34
L393.716 227.34
L393.974 235.71
L394.231 235.71
L394.489 248.265
L394.66 244.08
L394.746 244.08
L395.09 256.635
L395.175 256.635
L395.261 252.45
L395.604 265.005
L395.776 265.005
L396.119 277.56
L396.291 277.56
L396.548 285.93
L396.634 285.93
L396.806 281.745
L397.149 294.3
L397.235 294.3
L397.407 290.115
L397.664 290.115
L397.836 294.3
L398.007 294.3
L398.179 298.485
L398.265 298.485
L398.436 294.3
L399.123 294.3
L399.295 298.485
L399.466 294.3
L399.552 294.3
L399.724 298.485
L399.895 298.485
L400.239 311.04
L400.41 306.855
L400.582 306.855
L400.753 311.04
L401.869 311.04
L402.041 315.225
L408.649 315.225
L408.82 319.41
L408.906 319.41
L409.078 315.225
L409.335 315.225
L409.507 319.41
L409.678 319.41
L410.622 361.26
L412.253 361.26
L413.111 323.595
L413.798 323.595
L413.969 327.78
L414.313 327.78
L414.484 331.965
L415.857 331.965
L416.029 327.78
L416.2 331.965
L416.458 331.965
L416.63 327.78
L417.402 327.78
L417.574 331.965
L419.118 331.965
L419.29 336.15
L419.719 336.15
L419.805 331.965
L419.976 336.15
L420.234 336.15
L420.406 331.965
L420.491 331.965
L420.663 327.78
L421.178 327.78
L421.349 331.965
L421.435 331.965
L421.607 336.15
L422.551 336.15
L422.723 340.335
L423.066 340.335
L423.152 336.15
L423.409 344.52
L423.752 344.52
L423.838 340.335
L424.01 344.52
L425.125 344.52
L425.297 340.335
L425.383 340.335
L425.64 331.965
L426.069 331.965
L426.241 336.15
L427.013 336.15
L427.185 340.335
L427.7 340.335
L427.872 344.52
L427.957 344.52
L428.129 340.335
L428.301 340.335
L428.472 336.15
L428.644 336.15
L428.901 327.78
L430.103 327.78
L430.274 331.965
L430.618 331.965
L430.789 327.78
L432.42 327.78
L432.849 311.04
L433.192 311.04
L433.364 306.855
L433.793 306.855
L433.965 311.04
L434.05 311.04
L434.394 298.485
L434.565 298.485
L434.823 290.115
L435.08 290.115
L435.423 277.56
L435.595 277.56
L435.938 265.005
L436.11 265.005
L436.453 252.45
L436.625 252.45
L436.968 239.895
L437.14 239.895
L437.483 227.34
L437.655 227.34
L437.998 214.785
L438.17 214.785
L438.513 202.23
L438.684 202.23
L439.028 189.675
L439.199 189.675
L439.543 177.12
L439.714 177.12
L440.058 164.565
L440.572 164.565
L440.744 160.38
L440.916 160.38
L441.087 156.195
L442.031 156.195
L442.203 152.01
L442.46 152.01
L442.632 147.825
L442.804 147.825
L443.147 135.27
L443.49 135.27
L443.662 131.085
L444.091 131.085
L444.263 135.27
L444.606 135.27
L444.777 139.455
L444.949 135.27
L445.121 139.455
L445.55 139.455
L445.721 143.64
L445.807 143.64
L445.979 147.825
L448.811 147.825
L448.983 152.01
L449.326 152.01
L449.583 160.38
L450.87 160.38
L451.128 168.75
L451.557 168.75
L451.729 164.565
L451.9 168.75
L452.244 168.75
L452.415 164.565
L452.501 164.565
L452.587 168.75
L453.531 126.9
L456.62 126.9
L456.706 131.085
L456.878 126.9
L457.049 131.085
L457.135 131.085
L457.221 135.27
L457.393 131.085
L457.564 135.27
L457.65 135.27
L457.822 139.455
L457.907 139.455
L458.079 143.64
L458.251 143.64
L458.422 147.825
L458.937 147.825
L459.109 143.64
L459.967 143.64
L460.139 147.825
L460.31 147.825
L460.482 143.64
L462.799 143.64
L462.971 147.825
L463.657 147.825
L464 160.38
L464.086 160.38
L464.258 156.195
L464.344 156.195
L464.43 152.01
L464.601 156.195
L465.459 156.195
L465.631 152.01
L466.06 152.01
L466.317 143.64
L466.747 143.64
L466.918 139.455
L467.519 139.455
L467.691 143.64
L468.978 143.64
L469.149 139.455
L469.922 139.455
L470.093 135.27
L470.608 135.27
L470.78 131.085
L472.925 131.085
L473.097 135.27
L474.298 135.27
L474.47 139.455
L474.642 139.455
L474.899 147.825
L476.186 147.825
L476.358 152.01
L476.701 152.01
L476.873 147.825
L477.56 147.825
L477.731 143.64
L483.567 143.64
L483.738 147.825
L484.768 147.825
L485.111 160.38
L486.141 160.38
L486.313 164.565
L486.999 164.565
L487.171 160.38
L487.343 164.565
L487.514 164.565
L487.686 160.38
L488.458 160.38
L488.63 156.195
L488.716 156.195
L488.887 152.01
L489.059 152.01
L489.231 156.195
L491.719 156.195
L491.891 152.01
L492.063 156.195
L492.234 156.195
L492.492 147.825
L493.178 147.825
L493.35 152.01
L493.436 152.01
L493.693 160.38
L493.779 160.38
L493.951 156.195
L494.036 156.195
L494.208 152.01
L494.38 152.01
L494.465 156.195
L494.723 147.825
L495.066 160.38
L495.409 160.38
L495.495 156.195
L495.667 160.38
L496.611 160.38
L496.782 164.565
L496.868 164.565
L497.04 168.75
L497.984 168.75
L498.156 172.935
L499.185 172.935
L499.357 177.12
L499.529 177.12
L499.7 172.935
L499.786 172.935
L499.958 168.75
L500.044 168.75
L500.215 164.565
L500.301 164.565
L500.473 160.38
L500.558 160.38
L500.73 156.195
L500.816 156.195
L500.987 152.01
L501.159 152.01
L501.331 147.825
L502.875 147.825
L503.047 143.64
L504.935 143.64
L505.107 139.455
L505.622 139.455
L505.879 131.085
L506.566 131.085
L506.909 118.53
L507.338 118.53
L507.51 114.345
L508.282 114.345
L508.454 118.53
L509.655 118.53
L509.827 122.715
L510.427 122.715
L510.599 118.53
L513.088 118.53
L513.259 122.715
L513.86 122.715
L514.032 126.9
L514.547 126.9
L514.89 139.455
L514.976 139.455
L515.233 147.825
L515.319 147.825
L515.491 152.01
L515.834 152.01
L516.091 143.64
L516.177 143.64
L516.349 147.825
L517.207 147.825
L517.379 143.64
L517.55 143.64
L517.808 135.27
L519.095 135.27
L519.266 131.085
L522.013 131.085
L522.184 135.27
L522.785 135.27
L522.957 139.455
L526.475 139.455
L526.647 135.27
L527.677 135.27
L528.02 122.715
L529.05 122.715
L529.221 118.53
L529.908 118.53
L530.079 126.9
L530.251 122.715
L530.766 122.715
L530.938 118.53
L531.71 118.53
L531.882 122.715
L531.967 122.715
L532.139 118.53
L534.799 118.53
L534.971 114.345
L536.001 114.345
L536.087 118.53
L536.258 114.345
L536.344 114.345
L536.601 105.975
L536.773 105.975
L536.945 101.79
L537.116 105.975
L537.288 105.975
L537.374 101.79
L537.545 105.975
L537.631 105.975
L537.975 93.42
L538.404 93.42
L538.575 89.235
L539.519 89.235
L539.605 85.05
L539.777 89.235
L539.863 85.05
L540.034 89.235
L540.12 89.235
L540.292 93.42
L540.892 93.42
L541.064 89.235
L541.579 89.235
L541.75 93.42
L542.094 93.42
L542.265 89.235
L542.609 89.235
L542.78 93.42
L551.19 93.42
L551.362 89.235
L552.563 89.235
L552.735 85.05
L553.336 85.05
L553.507 89.235
L555.996 89.235
L556.168 85.05
L556.768 85.05
L556.94 80.865
L557.455 80.865
L557.627 76.68
L557.712 76.68
L557.884 72.495
L557.97 72.495
L558.141 68.31
L558.227 68.31
L558.399 64.125
L559.085 64.125
L559.257 59.94
L560.973 59.94
L561.231 68.31
L561.832 68.31
L561.832 68.31" style="fill:none;stroke:#0000ff;stroke-linecap:square;"/>
   </g>
   <g id="patch_3">
    <path d="
M81 43.2
L583.2 43.2" style="fill:none;stroke:#000000;stroke-linecap:square;stroke-linejoin:miter;"/>
   </g>
   <g id="patch_4">
    <path d="
M583.2 378
L583.2 43.2" style="fill:none;stroke:#000000;stroke-linecap:square;stroke-linejoin:miter;"/>
   </g>
   <g id="patch_5">
    <path d="
M81 378
L583.2 378" style="fill:none;stroke:#000000;stroke-linecap:square;stroke-linejoin:miter;"/>
   </g>
   <g id="patch_6">
    <path d="
M81 378
L81 43.2" style="fill:none;stroke:#000000;stroke-linecap:square;stroke-linejoin:miter;"/>
   </g>
   <g id="matplotlib.axis_1">
    <g id="xtick_1">
     <g id="line2d_2">
      <path clip-path="url(#p6858f96ca6)" d="
M81 378
L81 43.2" style="fill:none;stroke:#000000;stroke-dasharray:1.000000,3.000000;stroke-dashoffset:0.0;stroke-width:0.5;"/>
     </g>
     <g id="line2d_3">
      <defs>
       <path d="
M0 0
L0 -4" id="m93b0483c22" style="stroke:#000000;stroke-width:0.5;"/>
      </defs>
      <g>
       <use style="stroke:#000000;stroke-width:0.5;" x="81.0" xlink:href="#m93b0483c22" y="378.0"/>
      </g>
     </g>
     <g id="line2d_4">
      <defs>
       <path d="
M0 0
L0 4" id="m741efc42ff" style="stroke:#000000;stroke-width:0.5;"/>
      </defs>
      <g>
       <use style="stroke:#000000;stroke-width:0.5;" x="81.0" xlink:href="#m741efc42ff" y="43.2"/>
      </g>
     </g>
     <g id="text_1">
      <!-- Bereshit -->
      <defs>
       <path d="
M9.42188 54.6875
L18.4062 54.6875
L18.4062 0
L9.42188 0
z

M9.42188 75.9844
L18.4062 75.9844
L18.4062 64.5938
L9.42188 64.5938
z
" id="BitstreamVeraSans-Roman-69"/>
       <path d="
M54.8906 33.0156
L54.8906 0
L45.9062 0
L45.9062 32.7188
Q45.9062 40.4844 42.875 44.3281
Q39.8438 48.1875 33.7969 48.1875
Q26.5156 48.1875 22.3125 43.5469
Q18.1094 38.9219 18.1094 30.9062
L18.1094 0
L9.07812 0
L9.07812 75.9844
L18.1094 75.9844
L18.1094 46.1875
Q21.3438 51.125 25.7031 53.5625
Q30.0781 56 35.7969 56
Q45.2188 56 50.0469 50.1719
Q54.8906 44.3438 54.8906 33.0156" id="BitstreamVeraSans-Roman-68"/>
       <path d="
M56.2031 29.5938
L56.2031 25.2031
L14.8906 25.2031
Q15.4844 15.9219 20.4844 11.0625
Q25.4844 6.20312 34.4219 6.20312
Q39.5938 6.20312 44.4531 7.46875
Q49.3125 8.73438 54.1094 11.2812
L54.1094 2.78125
Q49.2656 0.734375 44.1875 -0.34375
Q39.1094 -1.42188 33.8906 -1.42188
Q20.7969 -1.42188 13.1562 6.1875
Q5.51562 13.8125 5.51562 26.8125
Q5.51562 40.2344 12.7656 48.1094
Q20.0156 56 32.3281 56
Q43.3594 56 49.7812 48.8906
Q56.2031 41.7969 56.2031 29.5938
M47.2188 32.2344
Q47.125 39.5938 43.0938 43.9844
Q39.0625 48.3906 32.4219 48.3906
Q24.9062 48.3906 20.3906 44.1406
Q15.875 39.8906 15.1875 32.1719
z
" id="BitstreamVeraSans-Roman-65"/>
       <path d="
M18.3125 70.2188
L18.3125 54.6875
L36.8125 54.6875
L36.8125 47.7031
L18.3125 47.7031
L18.3125 18.0156
Q18.3125 11.3281 20.1406 9.42188
Q21.9688 7.51562 27.5938 7.51562
L36.8125 7.51562
L36.8125 0
L27.5938 0
Q17.1875 0 13.2344 3.875
Q9.28125 7.76562 9.28125 18.0156
L9.28125 47.7031
L2.6875 47.7031
L2.6875 54.6875
L9.28125 54.6875
L9.28125 70.2188
z
" id="BitstreamVeraSans-Roman-74"/>
       <path d="
M41.1094 46.2969
Q39.5938 47.1719 37.8125 47.5781
Q36.0312 48 33.8906 48
Q26.2656 48 22.1875 43.0469
Q18.1094 38.0938 18.1094 28.8125
L18.1094 0
L9.07812 0
L9.07812 54.6875
L18.1094 54.6875
L18.1094 46.1875
Q20.9531 51.1719 25.4844 53.5781
Q30.0312 56 36.5312 56
Q37.4531 56 38.5781 55.875
Q39.7031 55.7656 41.0625 55.5156
z
" id="BitstreamVeraSans-Roman-72"/>
       <path d="
M44.2812 53.0781
L44.2812 44.5781
Q40.4844 46.5312 36.375 47.5
Q32.2812 48.4844 27.875 48.4844
Q21.1875 48.4844 17.8438 46.4375
Q14.5 44.3906 14.5 40.2812
Q14.5 37.1562 16.8906 35.375
Q19.2812 33.5938 26.5156 31.9844
L29.5938 31.2969
Q39.1562 29.25 43.1875 25.5156
Q47.2188 21.7812 47.2188 15.0938
Q47.2188 7.46875 41.1875 3.01562
Q35.1562 -1.42188 24.6094 -1.42188
Q20.2188 -1.42188 15.4531 -0.5625
Q10.6875 0.296875 5.42188 2
L5.42188 11.2812
Q10.4062 8.6875 15.2344 7.39062
Q20.0625 6.10938 24.8125 6.10938
Q31.1562 6.10938 34.5625 8.28125
Q37.9844 10.4531 37.9844 14.4062
Q37.9844 18.0625 35.5156 20.0156
Q33.0625 21.9688 24.7031 23.7812
L21.5781 24.5156
Q13.2344 26.2656 9.51562 29.9062
Q5.8125 33.5469 5.8125 39.8906
Q5.8125 47.6094 11.2812 51.7969
Q16.75 56 26.8125 56
Q31.7812 56 36.1719 55.2656
Q40.5781 54.5469 44.2812 53.0781" id="BitstreamVeraSans-Roman-73"/>
       <path d="
M19.6719 34.8125
L19.6719 8.10938
L35.5 8.10938
Q43.4531 8.10938 47.2812 11.4062
Q51.125 14.7031 51.125 21.4844
Q51.125 28.3281 47.2812 31.5625
Q43.4531 34.8125 35.5 34.8125
z

M19.6719 64.7969
L19.6719 42.8281
L34.2812 42.8281
Q41.5 42.8281 45.0312 45.5312
Q48.5781 48.25 48.5781 53.8125
Q48.5781 59.3281 45.0312 62.0625
Q41.5 64.7969 34.2812 64.7969
z

M9.8125 72.9062
L35.0156 72.9062
Q46.2969 72.9062 52.3906 68.2188
Q58.5 63.5312 58.5 54.8906
Q58.5 48.1875 55.375 44.2344
Q52.25 40.2812 46.1875 39.3125
Q53.4688 37.75 57.5 32.7812
Q61.5312 27.8281 61.5312 20.4062
Q61.5312 10.6406 54.8906 5.3125
Q48.25 0 35.9844 0
L9.8125 0
z
" id="BitstreamVeraSans-Roman-42"/>
      </defs>
      <g transform="translate(56.953125 391.118125)scale(0.12 -0.12)">
       <use xlink:href="#BitstreamVeraSans-Roman-42"/>
       <use x="68.603515625" xlink:href="#BitstreamVeraSans-Roman-65"/>
       <use x="130.126953125" xlink:href="#BitstreamVeraSans-Roman-72"/>
       <use x="168.990234375" xlink:href="#BitstreamVeraSans-Roman-65"/>
       <use x="230.513671875" xlink:href="#BitstreamVeraSans-Roman-73"/>
       <use x="282.61328125" xlink:href="#BitstreamVeraSans-Roman-68"/>
       <use x="345.9921875" xlink:href="#BitstreamVeraSans-Roman-69"/>
       <use x="373.775390625" xlink:href="#BitstreamVeraSans-Roman-74"/>
      </g>
     </g>
    </g>
    <g id="xtick_2">
     <g id="line2d_5">
      <path clip-path="url(#p6858f96ca6)" d="
M212.557 378
L212.557 43.2" style="fill:none;stroke:#000000;stroke-dasharray:1.000000,3.000000;stroke-dashoffset:0.0;stroke-width:0.5;"/>
     </g>
     <g id="line2d_6">
      <g>
       <use style="stroke:#000000;stroke-width:0.5;" x="212.557177033" xlink:href="#m93b0483c22" y="378.0"/>
      </g>
     </g>
     <g id="line2d_7">
      <g>
       <use style="stroke:#000000;stroke-width:0.5;" x="212.557177033" xlink:href="#m741efc42ff" y="43.2"/>
      </g>
     </g>
     <g id="text_2">
      <!-- Shmot -->
      <defs>
       <path d="
M52 44.1875
Q55.375 50.25 60.0625 53.125
Q64.75 56 71.0938 56
Q79.6406 56 84.2812 50.0156
Q88.9219 44.0469 88.9219 33.0156
L88.9219 0
L79.8906 0
L79.8906 32.7188
Q79.8906 40.5781 77.0938 44.375
Q74.3125 48.1875 68.6094 48.1875
Q61.625 48.1875 57.5625 43.5469
Q53.5156 38.9219 53.5156 30.9062
L53.5156 0
L44.4844 0
L44.4844 32.7188
Q44.4844 40.625 41.7031 44.4062
Q38.9219 48.1875 33.1094 48.1875
Q26.2188 48.1875 22.1562 43.5312
Q18.1094 38.875 18.1094 30.9062
L18.1094 0
L9.07812 0
L9.07812 54.6875
L18.1094 54.6875
L18.1094 46.1875
Q21.1875 51.2188 25.4844 53.6094
Q29.7812 56 35.6875 56
Q41.6562 56 45.8281 52.9688
Q50 49.9531 52 44.1875" id="BitstreamVeraSans-Roman-6d"/>
       <path d="
M53.5156 70.5156
L53.5156 60.8906
Q47.9062 63.5781 42.9219 64.8906
Q37.9375 66.2188 33.2969 66.2188
Q25.25 66.2188 20.875 63.0938
Q16.5 59.9688 16.5 54.2031
Q16.5 49.3594 19.4062 46.8906
Q22.3125 44.4375 30.4219 42.9219
L36.375 41.7031
Q47.4062 39.5938 52.6562 34.2969
Q57.9062 29 57.9062 20.125
Q57.9062 9.51562 50.7969 4.04688
Q43.7031 -1.42188 29.9844 -1.42188
Q24.8125 -1.42188 18.9688 -0.25
Q13.1406 0.921875 6.89062 3.21875
L6.89062 13.375
Q12.8906 10.0156 18.6562 8.29688
Q24.4219 6.59375 29.9844 6.59375
Q38.4219 6.59375 43.0156 9.90625
Q47.6094 13.2344 47.6094 19.3906
Q47.6094 24.75 44.3125 27.7812
Q41.0156 30.8125 33.5 32.3281
L27.4844 33.5
Q16.4531 35.6875 11.5156 40.375
Q6.59375 45.0625 6.59375 53.4219
Q6.59375 63.0938 13.4062 68.6562
Q20.2188 74.2188 32.1719 74.2188
Q37.3125 74.2188 42.625 73.2812
Q47.9531 72.3594 53.5156 70.5156" id="BitstreamVeraSans-Roman-53"/>
       <path d="
M30.6094 48.3906
Q23.3906 48.3906 19.1875 42.75
Q14.9844 37.1094 14.9844 27.2969
Q14.9844 17.4844 19.1562 11.8438
Q23.3438 6.20312 30.6094 6.20312
Q37.7969 6.20312 41.9844 11.8594
Q46.1875 17.5312 46.1875 27.2969
Q46.1875 37.0156 41.9844 42.7031
Q37.7969 48.3906 30.6094 48.3906
M30.6094 56
Q42.3281 56 49.0156 48.375
Q55.7188 40.7656 55.7188 27.2969
Q55.7188 13.875 49.0156 6.21875
Q42.3281 -1.42188 30.6094 -1.42188
Q18.8438 -1.42188 12.1719 6.21875
Q5.51562 13.875 5.51562 27.2969
Q5.51562 40.7656 12.1719 48.375
Q18.8438 56 30.6094 56" id="BitstreamVeraSans-Roman-6f"/>
      </defs>
      <g transform="translate(193.616864533 391.118125)scale(0.12 -0.12)">
       <use xlink:href="#BitstreamVeraSans-Roman-53"/>
       <use x="63.4765625" xlink:href="#BitstreamVeraSans-Roman-68"/>
       <use x="126.85546875" xlink:href="#BitstreamVeraSans-Roman-6d"/>
       <use x="224.267578125" xlink:href="#BitstreamVeraSans-Roman-6f"/>
       <use x="285.44921875" xlink:href="#BitstreamVeraSans-Roman-74"/>
      </g>
     </g>
    </g>
    <g id="xtick_3">
     <g id="line2d_8">
      <path clip-path="url(#p6858f96ca6)" d="
M316.653 378
L316.653 43.2" style="fill:none;stroke:#000000;stroke-dasharray:1.000000,3.000000;stroke-dashoffset:0.0;stroke-width:0.5;"/>
     </g>
     <g id="line2d_9">
      <g>
       <use style="stroke:#000000;stroke-width:0.5;" x="316.652973342" xlink:href="#m93b0483c22" y="378.0"/>
      </g>
     </g>
     <g id="line2d_10">
      <g>
       <use style="stroke:#000000;stroke-width:0.5;" x="316.652973342" xlink:href="#m741efc42ff" y="43.2"/>
      </g>
     </g>
     <g id="text_3">
      <!-- Vayikra -->
      <defs>
       <path d="
M9.07812 75.9844
L18.1094 75.9844
L18.1094 31.1094
L44.9219 54.6875
L56.3906 54.6875
L27.3906 29.1094
L57.625 0
L45.9062 0
L18.1094 26.7031
L18.1094 0
L9.07812 0
z
" id="BitstreamVeraSans-Roman-6b"/>
       <path d="
M34.2812 27.4844
Q23.3906 27.4844 19.1875 25
Q14.9844 22.5156 14.9844 16.5
Q14.9844 11.7188 18.1406 8.90625
Q21.2969 6.10938 26.7031 6.10938
Q34.1875 6.10938 38.7031 11.4062
Q43.2188 16.7031 43.2188 25.4844
L43.2188 27.4844
z

M52.2031 31.2031
L52.2031 0
L43.2188 0
L43.2188 8.29688
Q40.1406 3.32812 35.5469 0.953125
Q30.9531 -1.42188 24.3125 -1.42188
Q15.9219 -1.42188 10.9531 3.29688
Q6 8.01562 6 15.9219
Q6 25.1406 12.1719 29.8281
Q18.3594 34.5156 30.6094 34.5156
L43.2188 34.5156
L43.2188 35.4062
Q43.2188 41.6094 39.1406 45
Q35.0625 48.3906 27.6875 48.3906
Q23 48.3906 18.5469 47.2656
Q14.1094 46.1406 10.0156 43.8906
L10.0156 52.2031
Q14.9375 54.1094 19.5781 55.0469
Q24.2188 56 28.6094 56
Q40.4844 56 46.3438 49.8438
Q52.2031 43.7031 52.2031 31.2031" id="BitstreamVeraSans-Roman-61"/>
       <path d="
M28.6094 0
L0.78125 72.9062
L11.0781 72.9062
L34.1875 11.5312
L57.3281 72.9062
L67.5781 72.9062
L39.7969 0
z
" id="BitstreamVeraSans-Roman-56"/>
       <path d="
M32.1719 -5.07812
Q28.375 -14.8438 24.75 -17.8125
Q21.1406 -20.7969 15.0938 -20.7969
L7.90625 -20.7969
L7.90625 -13.2812
L13.1875 -13.2812
Q16.8906 -13.2812 18.9375 -11.5156
Q21 -9.76562 23.4844 -3.21875
L25.0938 0.875
L2.98438 54.6875
L12.5 54.6875
L29.5938 11.9219
L46.6875 54.6875
L56.2031 54.6875
z
" id="BitstreamVeraSans-Roman-79"/>
      </defs>
      <g transform="translate(295.092348342 391.118125)scale(0.12 -0.12)">
       <use xlink:href="#BitstreamVeraSans-Roman-56"/>
       <use x="60.658203125" xlink:href="#BitstreamVeraSans-Roman-61"/>
       <use x="121.9375" xlink:href="#BitstreamVeraSans-Roman-79"/>
       <use x="181.1171875" xlink:href="#BitstreamVeraSans-Roman-69"/>
       <use x="208.900390625" xlink:href="#BitstreamVeraSans-Roman-6b"/>
       <use x="266.810546875" xlink:href="#BitstreamVeraSans-Roman-72"/>
       <use x="307.923828125" xlink:href="#BitstreamVeraSans-Roman-61"/>
      </g>
     </g>
    </g>
    <g id="xtick_4">
     <g id="line2d_11">
      <path clip-path="url(#p6858f96ca6)" d="
M390.37 378
L390.37 43.2" style="fill:none;stroke:#000000;stroke-dasharray:1.000000,3.000000;stroke-dashoffset:0.0;stroke-width:0.5;"/>
     </g>
     <g id="line2d_12">
      <g>
       <use style="stroke:#000000;stroke-width:0.5;" x="390.369617225" xlink:href="#m93b0483c22" y="378.0"/>
      </g>
     </g>
     <g id="line2d_13">
      <g>
       <use style="stroke:#000000;stroke-width:0.5;" x="390.369617225" xlink:href="#m741efc42ff" y="43.2"/>
      </g>
     </g>
     <g id="text_4">
      <!-- Bamidbar -->
      <defs>
       <path d="
M45.4062 46.3906
L45.4062 75.9844
L54.3906 75.9844
L54.3906 0
L45.4062 0
L45.4062 8.20312
Q42.5781 3.32812 38.25 0.953125
Q33.9375 -1.42188 27.875 -1.42188
Q17.9688 -1.42188 11.7344 6.48438
Q5.51562 14.4062 5.51562 27.2969
Q5.51562 40.1875 11.7344 48.0938
Q17.9688 56 27.875 56
Q33.9375 56 38.25 53.625
Q42.5781 51.2656 45.4062 46.3906
M14.7969 27.2969
Q14.7969 17.3906 18.875 11.75
Q22.9531 6.10938 30.0781 6.10938
Q37.2031 6.10938 41.2969 11.75
Q45.4062 17.3906 45.4062 27.2969
Q45.4062 37.2031 41.2969 42.8438
Q37.2031 48.4844 30.0781 48.4844
Q22.9531 48.4844 18.875 42.8438
Q14.7969 37.2031 14.7969 27.2969" id="BitstreamVeraSans-Roman-64"/>
       <path d="
M48.6875 27.2969
Q48.6875 37.2031 44.6094 42.8438
Q40.5312 48.4844 33.4062 48.4844
Q26.2656 48.4844 22.1875 42.8438
Q18.1094 37.2031 18.1094 27.2969
Q18.1094 17.3906 22.1875 11.75
Q26.2656 6.10938 33.4062 6.10938
Q40.5312 6.10938 44.6094 11.75
Q48.6875 17.3906 48.6875 27.2969
M18.1094 46.3906
Q20.9531 51.2656 25.2656 53.625
Q29.5938 56 35.5938 56
Q45.5625 56 51.7812 48.0938
Q58.0156 40.1875 58.0156 27.2969
Q58.0156 14.4062 51.7812 6.48438
Q45.5625 -1.42188 35.5938 -1.42188
Q29.5938 -1.42188 25.2656 0.953125
Q20.9531 3.32812 18.1094 8.20312
L18.1094 0
L9.07812 0
L9.07812 75.9844
L18.1094 75.9844
z
" id="BitstreamVeraSans-Roman-62"/>
      </defs>
      <g transform="translate(361.892117225 391.118125)scale(0.12 -0.12)">
       <use xlink:href="#BitstreamVeraSans-Roman-42"/>
       <use x="68.603515625" xlink:href="#BitstreamVeraSans-Roman-61"/>
       <use x="129.8828125" xlink:href="#BitstreamVeraSans-Roman-6d"/>
       <use x="227.294921875" xlink:href="#BitstreamVeraSans-Roman-69"/>
       <use x="255.078125" xlink:href="#BitstreamVeraSans-Roman-64"/>
       <use x="318.5546875" xlink:href="#BitstreamVeraSans-Roman-62"/>
       <use x="382.03125" xlink:href="#BitstreamVeraSans-Roman-61"/>
       <use x="443.310546875" xlink:href="#BitstreamVeraSans-Roman-72"/>
      </g>
     </g>
    </g>
    <g id="xtick_5">
     <g id="line2d_14">
      <path clip-path="url(#p6858f96ca6)" d="
M500.987 378
L500.987 43.2" style="fill:none;stroke:#000000;stroke-dasharray:1.000000,3.000000;stroke-dashoffset:0.0;stroke-width:0.5;"/>
     </g>
     <g id="line2d_15">
      <g>
       <use style="stroke:#000000;stroke-width:0.5;" x="500.987491456" xlink:href="#m93b0483c22" y="378.0"/>
      </g>
     </g>
     <g id="line2d_16">
      <g>
       <use style="stroke:#000000;stroke-width:0.5;" x="500.987491456" xlink:href="#m741efc42ff" y="43.2"/>
      </g>
     </g>
     <g id="text_5">
      <!-- D'varim -->
      <defs>
       <path d="
M2.98438 54.6875
L12.5 54.6875
L29.5938 8.79688
L46.6875 54.6875
L56.2031 54.6875
L35.6875 0
L23.4844 0
z
" id="BitstreamVeraSans-Roman-76"/>
       <path d="
M19.6719 64.7969
L19.6719 8.10938
L31.5938 8.10938
Q46.6875 8.10938 53.6875 14.9375
Q60.6875 21.7812 60.6875 36.5312
Q60.6875 51.1719 53.6875 57.9844
Q46.6875 64.7969 31.5938 64.7969
z

M9.8125 72.9062
L30.0781 72.9062
Q51.2656 72.9062 61.1719 64.0938
Q71.0938 55.2812 71.0938 36.5312
Q71.0938 17.6719 61.125 8.82812
Q51.1719 0 30.0781 0
L9.8125 0
z
" id="BitstreamVeraSans-Roman-44"/>
       <path d="
M17.9219 72.9062
L17.9219 45.7969
L9.625 45.7969
L9.625 72.9062
z
" id="BitstreamVeraSans-Roman-27"/>
      </defs>
      <g transform="translate(478.610303956 391.118125)scale(0.12 -0.12)">
       <use xlink:href="#BitstreamVeraSans-Roman-44"/>
       <use x="77.001953125" xlink:href="#BitstreamVeraSans-Roman-27"/>
       <use x="104.4921875" xlink:href="#BitstreamVeraSans-Roman-76"/>
       <use x="163.671875" xlink:href="#BitstreamVeraSans-Roman-61"/>
       <use x="224.951171875" xlink:href="#BitstreamVeraSans-Roman-72"/>
       <use x="266.064453125" xlink:href="#BitstreamVeraSans-Roman-69"/>
       <use x="293.84765625" xlink:href="#BitstreamVeraSans-Roman-6d"/>
      </g>
     </g>
    </g>
   </g>
   <g id="matplotlib.axis_2">
    <g id="ytick_1">
     <g id="line2d_17">
      <path clip-path="url(#p6858f96ca6)" d="
M81 378
L583.2 378" style="fill:none;stroke:#000000;stroke-dasharray:1.000000,3.000000;stroke-dashoffset:0.0;stroke-width:0.5;"/>
     </g>
     <g id="line2d_18">
      <defs>
       <path d="
M0 0
L4 0" id="m728421d6d4" style="stroke:#000000;stroke-width:0.5;"/>
      </defs>
      <g>
       <use style="stroke:#000000;stroke-width:0.5;" x="81.0" xlink:href="#m728421d6d4" y="378.0"/>
      </g>
     </g>
     <g id="line2d_19">
      <defs>
       <path d="
M0 0
L-4 0" id="mcb0005524f" style="stroke:#000000;stroke-width:0.5;"/>
      </defs>
      <g>
       <use style="stroke:#000000;stroke-width:0.5;" x="583.2" xlink:href="#mcb0005524f" y="378.0"/>
      </g>
     </g>
     <g id="text_6">
      <!-- 0.82 -->
      <defs>
       <path d="
M19.1875 8.29688
L53.6094 8.29688
L53.6094 0
L7.32812 0
L7.32812 8.29688
Q12.9375 14.1094 22.625 23.8906
Q32.3281 33.6875 34.8125 36.5312
Q39.5469 41.8438 41.4219 45.5312
Q43.3125 49.2188 43.3125 52.7812
Q43.3125 58.5938 39.2344 62.25
Q35.1562 65.9219 28.6094 65.9219
Q23.9688 65.9219 18.8125 64.3125
Q13.6719 62.7031 7.8125 59.4219
L7.8125 69.3906
Q13.7656 71.7812 18.9375 73
Q24.125 74.2188 28.4219 74.2188
Q39.75 74.2188 46.4844 68.5469
Q53.2188 62.8906 53.2188 53.4219
Q53.2188 48.9219 51.5312 44.8906
Q49.8594 40.875 45.4062 35.4062
Q44.1875 33.9844 37.6406 27.2188
Q31.1094 20.4531 19.1875 8.29688" id="BitstreamVeraSans-Roman-32"/>
       <path d="
M31.7812 66.4062
Q24.1719 66.4062 20.3281 58.9062
Q16.5 51.4219 16.5 36.375
Q16.5 21.3906 20.3281 13.8906
Q24.1719 6.39062 31.7812 6.39062
Q39.4531 6.39062 43.2812 13.8906
Q47.125 21.3906 47.125 36.375
Q47.125 51.4219 43.2812 58.9062
Q39.4531 66.4062 31.7812 66.4062
M31.7812 74.2188
Q44.0469 74.2188 50.5156 64.5156
Q56.9844 54.8281 56.9844 36.375
Q56.9844 17.9688 50.5156 8.26562
Q44.0469 -1.42188 31.7812 -1.42188
Q19.5312 -1.42188 13.0625 8.26562
Q6.59375 17.9688 6.59375 36.375
Q6.59375 54.8281 13.0625 64.5156
Q19.5312 74.2188 31.7812 74.2188" id="BitstreamVeraSans-Roman-30"/>
       <path d="
M10.6875 12.4062
L21 12.4062
L21 0
L10.6875 0
z
" id="BitstreamVeraSans-Roman-2e"/>
       <path d="
M31.7812 34.625
Q24.75 34.625 20.7188 30.8594
Q16.7031 27.0938 16.7031 20.5156
Q16.7031 13.9219 20.7188 10.1562
Q24.75 6.39062 31.7812 6.39062
Q38.8125 6.39062 42.8594 10.1719
Q46.9219 13.9688 46.9219 20.5156
Q46.9219 27.0938 42.8906 30.8594
Q38.875 34.625 31.7812 34.625
M21.9219 38.8125
Q15.5781 40.375 12.0312 44.7188
Q8.5 49.0781 8.5 55.3281
Q8.5 64.0625 14.7188 69.1406
Q20.9531 74.2188 31.7812 74.2188
Q42.6719 74.2188 48.875 69.1406
Q55.0781 64.0625 55.0781 55.3281
Q55.0781 49.0781 51.5312 44.7188
Q48 40.375 41.7031 38.8125
Q48.8281 37.1562 52.7969 32.3125
Q56.7812 27.4844 56.7812 20.5156
Q56.7812 9.90625 50.3125 4.23438
Q43.8438 -1.42188 31.7812 -1.42188
Q19.7344 -1.42188 13.25 4.23438
Q6.78125 9.90625 6.78125 20.5156
Q6.78125 27.4844 10.7812 32.3125
Q14.7969 37.1562 21.9219 38.8125
M18.3125 54.3906
Q18.3125 48.7344 21.8438 45.5625
Q25.3906 42.3906 31.7812 42.3906
Q38.1406 42.3906 41.7188 45.5625
Q45.3125 48.7344 45.3125 54.3906
Q45.3125 60.0625 41.7188 63.2344
Q38.1406 66.4062 31.7812 66.4062
Q25.3906 66.4062 21.8438 63.2344
Q18.3125 60.0625 18.3125 54.3906" id="BitstreamVeraSans-Roman-38"/>
      </defs>
      <g transform="translate(56.3953125 380.759375)scale(0.1 -0.1)">
       <use xlink:href="#BitstreamVeraSans-Roman-30"/>
       <use x="63.623046875" xlink:href="#BitstreamVeraSans-Roman-2e"/>
       <use x="95.41015625" xlink:href="#BitstreamVeraSans-Roman-38"/>
       <use x="159.033203125" xlink:href="#BitstreamVeraSans-Roman-32"/>
      </g>
     </g>
    </g>
    <g id="ytick_2">
     <g id="line2d_20">
      <path clip-path="url(#p6858f96ca6)" d="
M81 336.15
L583.2 336.15" style="fill:none;stroke:#000000;stroke-dasharray:1.000000,3.000000;stroke-dashoffset:0.0;stroke-width:0.5;"/>
     </g>
     <g id="line2d_21">
      <g>
       <use style="stroke:#000000;stroke-width:0.5;" x="81.0" xlink:href="#m728421d6d4" y="336.15"/>
      </g>
     </g>
     <g id="line2d_22">
      <g>
       <use style="stroke:#000000;stroke-width:0.5;" x="583.2" xlink:href="#mcb0005524f" y="336.15"/>
      </g>
     </g>
     <g id="text_7">
      <!-- 0.84 -->
      <defs>
       <path d="
M37.7969 64.3125
L12.8906 25.3906
L37.7969 25.3906
z

M35.2031 72.9062
L47.6094 72.9062
L47.6094 25.3906
L58.0156 25.3906
L58.0156 17.1875
L47.6094 17.1875
L47.6094 0
L37.7969 0
L37.7969 17.1875
L4.89062 17.1875
L4.89062 26.7031
z
" id="BitstreamVeraSans-Roman-34"/>
      </defs>
      <g transform="translate(55.9546875 338.909375)scale(0.1 -0.1)">
       <use xlink:href="#BitstreamVeraSans-Roman-30"/>
       <use x="63.623046875" xlink:href="#BitstreamVeraSans-Roman-2e"/>
       <use x="95.41015625" xlink:href="#BitstreamVeraSans-Roman-38"/>
       <use x="159.033203125" xlink:href="#BitstreamVeraSans-Roman-34"/>
      </g>
     </g>
    </g>
    <g id="ytick_3">
     <g id="line2d_23">
      <path clip-path="url(#p6858f96ca6)" d="
M81 294.3
L583.2 294.3" style="fill:none;stroke:#000000;stroke-dasharray:1.000000,3.000000;stroke-dashoffset:0.0;stroke-width:0.5;"/>
     </g>
     <g id="line2d_24">
      <g>
       <use style="stroke:#000000;stroke-width:0.5;" x="81.0" xlink:href="#m728421d6d4" y="294.3"/>
      </g>
     </g>
     <g id="line2d_25">
      <g>
       <use style="stroke:#000000;stroke-width:0.5;" x="583.2" xlink:href="#mcb0005524f" y="294.3"/>
      </g>
     </g>
     <g id="text_8">
      <!-- 0.86 -->
      <defs>
       <path d="
M33.0156 40.375
Q26.375 40.375 22.4844 35.8281
Q18.6094 31.2969 18.6094 23.3906
Q18.6094 15.5312 22.4844 10.9531
Q26.375 6.39062 33.0156 6.39062
Q39.6562 6.39062 43.5312 10.9531
Q47.4062 15.5312 47.4062 23.3906
Q47.4062 31.2969 43.5312 35.8281
Q39.6562 40.375 33.0156 40.375
M52.5938 71.2969
L52.5938 62.3125
Q48.875 64.0625 45.0938 64.9844
Q41.3125 65.9219 37.5938 65.9219
Q27.8281 65.9219 22.6719 59.3281
Q17.5312 52.7344 16.7969 39.4062
Q19.6719 43.6562 24.0156 45.9219
Q28.375 48.1875 33.5938 48.1875
Q44.5781 48.1875 50.9531 41.5156
Q57.3281 34.8594 57.3281 23.3906
Q57.3281 12.1562 50.6875 5.35938
Q44.0469 -1.42188 33.0156 -1.42188
Q20.3594 -1.42188 13.6719 8.26562
Q6.98438 17.9688 6.98438 36.375
Q6.98438 53.6562 15.1875 63.9375
Q23.3906 74.2188 37.2031 74.2188
Q40.9219 74.2188 44.7031 73.4844
Q48.4844 72.75 52.5938 71.2969" id="BitstreamVeraSans-Roman-36"/>
      </defs>
      <g transform="translate(56.0234375 297.059375)scale(0.1 -0.1)">
       <use xlink:href="#BitstreamVeraSans-Roman-30"/>
       <use x="63.623046875" xlink:href="#BitstreamVeraSans-Roman-2e"/>
       <use x="95.41015625" xlink:href="#BitstreamVeraSans-Roman-38"/>
       <use x="159.033203125" xlink:href="#BitstreamVeraSans-Roman-36"/>
      </g>
     </g>
    </g>
    <g id="ytick_4">
     <g id="line2d_26">
      <path clip-path="url(#p6858f96ca6)" d="
M81 252.45
L583.2 252.45" style="fill:none;stroke:#000000;stroke-dasharray:1.000000,3.000000;stroke-dashoffset:0.0;stroke-width:0.5;"/>
     </g>
     <g id="line2d_27">
      <g>
       <use style="stroke:#000000;stroke-width:0.5;" x="81.0" xlink:href="#m728421d6d4" y="252.45"/>
      </g>
     </g>
     <g id="line2d_28">
      <g>
       <use style="stroke:#000000;stroke-width:0.5;" x="583.2" xlink:href="#mcb0005524f" y="252.45"/>
      </g>
     </g>
     <g id="text_9">
      <!-- 0.88 -->
      <g transform="translate(56.078125 255.209375)scale(0.1 -0.1)">
       <use xlink:href="#BitstreamVeraSans-Roman-30"/>
       <use x="63.623046875" xlink:href="#BitstreamVeraSans-Roman-2e"/>
       <use x="95.41015625" xlink:href="#BitstreamVeraSans-Roman-38"/>
       <use x="159.033203125" xlink:href="#BitstreamVeraSans-Roman-38"/>
      </g>
     </g>
    </g>
    <g id="ytick_5">
     <g id="line2d_29">
      <path clip-path="url(#p6858f96ca6)" d="
M81 210.6
L583.2 210.6" style="fill:none;stroke:#000000;stroke-dasharray:1.000000,3.000000;stroke-dashoffset:0.0;stroke-width:0.5;"/>
     </g>
     <g id="line2d_30">
      <g>
       <use style="stroke:#000000;stroke-width:0.5;" x="81.0" xlink:href="#m728421d6d4" y="210.6"/>
      </g>
     </g>
     <g id="line2d_31">
      <g>
       <use style="stroke:#000000;stroke-width:0.5;" x="583.2" xlink:href="#mcb0005524f" y="210.6"/>
      </g>
     </g>
     <g id="text_10">
      <!-- 0.90 -->
      <defs>
       <path d="
M10.9844 1.51562
L10.9844 10.5
Q14.7031 8.73438 18.5 7.8125
Q22.3125 6.89062 25.9844 6.89062
Q35.75 6.89062 40.8906 13.4531
Q46.0469 20.0156 46.7812 33.4062
Q43.9531 29.2031 39.5938 26.9531
Q35.25 24.7031 29.9844 24.7031
Q19.0469 24.7031 12.6719 31.3125
Q6.29688 37.9375 6.29688 49.4219
Q6.29688 60.6406 12.9375 67.4219
Q19.5781 74.2188 30.6094 74.2188
Q43.2656 74.2188 49.9219 64.5156
Q56.5938 54.8281 56.5938 36.375
Q56.5938 19.1406 48.4062 8.85938
Q40.2344 -1.42188 26.4219 -1.42188
Q22.7031 -1.42188 18.8906 -0.6875
Q15.0938 0.046875 10.9844 1.51562
M30.6094 32.4219
Q37.25 32.4219 41.125 36.9531
Q45.0156 41.5 45.0156 49.4219
Q45.0156 57.2812 41.125 61.8438
Q37.25 66.4062 30.6094 66.4062
Q23.9688 66.4062 20.0938 61.8438
Q16.2188 57.2812 16.2188 49.4219
Q16.2188 41.5 20.0938 36.9531
Q23.9688 32.4219 30.6094 32.4219" id="BitstreamVeraSans-Roman-39"/>
      </defs>
      <g transform="translate(56.0578125 213.359375)scale(0.1 -0.1)">
       <use xlink:href="#BitstreamVeraSans-Roman-30"/>
       <use x="63.623046875" xlink:href="#BitstreamVeraSans-Roman-2e"/>
       <use x="95.41015625" xlink:href="#BitstreamVeraSans-Roman-39"/>
       <use x="159.033203125" xlink:href="#BitstreamVeraSans-Roman-30"/>
      </g>
     </g>
    </g>
    <g id="ytick_6">
     <g id="line2d_32">
      <path clip-path="url(#p6858f96ca6)" d="
M81 168.75
L583.2 168.75" style="fill:none;stroke:#000000;stroke-dasharray:1.000000,3.000000;stroke-dashoffset:0.0;stroke-width:0.5;"/>
     </g>
     <g id="line2d_33">
      <g>
       <use style="stroke:#000000;stroke-width:0.5;" x="81.0" xlink:href="#m728421d6d4" y="168.75"/>
      </g>
     </g>
     <g id="line2d_34">
      <g>
       <use style="stroke:#000000;stroke-width:0.5;" x="583.2" xlink:href="#mcb0005524f" y="168.75"/>
      </g>
     </g>
     <g id="text_11">
      <!-- 0.92 -->
      <g transform="translate(56.3953125 171.509375)scale(0.1 -0.1)">
       <use xlink:href="#BitstreamVeraSans-Roman-30"/>
       <use x="63.623046875" xlink:href="#BitstreamVeraSans-Roman-2e"/>
       <use x="95.41015625" xlink:href="#BitstreamVeraSans-Roman-39"/>
       <use x="159.033203125" xlink:href="#BitstreamVeraSans-Roman-32"/>
      </g>
     </g>
    </g>
    <g id="ytick_7">
     <g id="line2d_35">
      <path clip-path="url(#p6858f96ca6)" d="
M81 126.9
L583.2 126.9" style="fill:none;stroke:#000000;stroke-dasharray:1.000000,3.000000;stroke-dashoffset:0.0;stroke-width:0.5;"/>
     </g>
     <g id="line2d_36">
      <g>
       <use style="stroke:#000000;stroke-width:0.5;" x="81.0" xlink:href="#m728421d6d4" y="126.9"/>
      </g>
     </g>
     <g id="line2d_37">
      <g>
       <use style="stroke:#000000;stroke-width:0.5;" x="583.2" xlink:href="#mcb0005524f" y="126.9"/>
      </g>
     </g>
     <g id="text_12">
      <!-- 0.94 -->
      <g transform="translate(55.9546875 129.659375)scale(0.1 -0.1)">
       <use xlink:href="#BitstreamVeraSans-Roman-30"/>
       <use x="63.623046875" xlink:href="#BitstreamVeraSans-Roman-2e"/>
       <use x="95.41015625" xlink:href="#BitstreamVeraSans-Roman-39"/>
       <use x="159.033203125" xlink:href="#BitstreamVeraSans-Roman-34"/>
      </g>
     </g>
    </g>
    <g id="ytick_8">
     <g id="line2d_38">
      <path clip-path="url(#p6858f96ca6)" d="
M81 85.05
L583.2 85.05" style="fill:none;stroke:#000000;stroke-dasharray:1.000000,3.000000;stroke-dashoffset:0.0;stroke-width:0.5;"/>
     </g>
     <g id="line2d_39">
      <g>
       <use style="stroke:#000000;stroke-width:0.5;" x="81.0" xlink:href="#m728421d6d4" y="85.05"/>
      </g>
     </g>
     <g id="line2d_40">
      <g>
       <use style="stroke:#000000;stroke-width:0.5;" x="583.2" xlink:href="#mcb0005524f" y="85.05"/>
      </g>
     </g>
     <g id="text_13">
      <!-- 0.96 -->
      <g transform="translate(56.0234375 87.809375)scale(0.1 -0.1)">
       <use xlink:href="#BitstreamVeraSans-Roman-30"/>
       <use x="63.623046875" xlink:href="#BitstreamVeraSans-Roman-2e"/>
       <use x="95.41015625" xlink:href="#BitstreamVeraSans-Roman-39"/>
       <use x="159.033203125" xlink:href="#BitstreamVeraSans-Roman-36"/>
      </g>
     </g>
    </g>
    <g id="ytick_9">
     <g id="line2d_41">
      <path clip-path="url(#p6858f96ca6)" d="
M81 43.2
L583.2 43.2" style="fill:none;stroke:#000000;stroke-dasharray:1.000000,3.000000;stroke-dashoffset:0.0;stroke-width:0.5;"/>
     </g>
     <g id="line2d_42">
      <g>
       <use style="stroke:#000000;stroke-width:0.5;" x="81.0" xlink:href="#m728421d6d4" y="43.2"/>
      </g>
     </g>
     <g id="line2d_43">
      <g>
       <use style="stroke:#000000;stroke-width:0.5;" x="583.2" xlink:href="#mcb0005524f" y="43.2"/>
      </g>
     </g>
     <g id="text_14">
      <!-- 0.98 -->
      <g transform="translate(56.078125 45.959375)scale(0.1 -0.1)">
       <use xlink:href="#BitstreamVeraSans-Roman-30"/>
       <use x="63.623046875" xlink:href="#BitstreamVeraSans-Roman-2e"/>
       <use x="95.41015625" xlink:href="#BitstreamVeraSans-Roman-39"/>
       <use x="159.033203125" xlink:href="#BitstreamVeraSans-Roman-38"/>
      </g>
     </g>
    </g>
    <g id="text_15">
     <!-- Average count per pasuk -->
     <defs>
      <path id="BitstreamVeraSans-Roman-20"/>
      <path d="
M54.8906 33.0156
L54.8906 0
L45.9062 0
L45.9062 32.7188
Q45.9062 40.4844 42.875 44.3281
Q39.8438 48.1875 33.7969 48.1875
Q26.5156 48.1875 22.3125 43.5469
Q18.1094 38.9219 18.1094 30.9062
L18.1094 0
L9.07812 0
L9.07812 54.6875
L18.1094 54.6875
L18.1094 46.1875
Q21.3438 51.125 25.7031 53.5625
Q30.0781 56 35.7969 56
Q45.2188 56 50.0469 50.1719
Q54.8906 44.3438 54.8906 33.0156" id="BitstreamVeraSans-Roman-6e"/>
      <path d="
M18.1094 8.20312
L18.1094 -20.7969
L9.07812 -20.7969
L9.07812 54.6875
L18.1094 54.6875
L18.1094 46.3906
Q20.9531 51.2656 25.2656 53.625
Q29.5938 56 35.5938 56
Q45.5625 56 51.7812 48.0938
Q58.0156 40.1875 58.0156 27.2969
Q58.0156 14.4062 51.7812 6.48438
Q45.5625 -1.42188 35.5938 -1.42188
Q29.5938 -1.42188 25.2656 0.953125
Q20.9531 3.32812 18.1094 8.20312
M48.6875 27.2969
Q48.6875 37.2031 44.6094 42.8438
Q40.5312 48.4844 33.4062 48.4844
Q26.2656 48.4844 22.1875 42.8438
Q18.1094 37.2031 18.1094 27.2969
Q18.1094 17.3906 22.1875 11.75
Q26.2656 6.10938 33.4062 6.10938
Q40.5312 6.10938 44.6094 11.75
Q48.6875 17.3906 48.6875 27.2969" id="BitstreamVeraSans-Roman-70"/>
      <path d="
M34.1875 63.1875
L20.7969 26.9062
L47.6094 26.9062
z

M28.6094 72.9062
L39.7969 72.9062
L67.5781 0
L57.3281 0
L50.6875 18.7031
L17.8281 18.7031
L11.1875 0
L0.78125 0
z
" id="BitstreamVeraSans-Roman-41"/>
      <path d="
M45.4062 27.9844
Q45.4062 37.75 41.375 43.1094
Q37.3594 48.4844 30.0781 48.4844
Q22.8594 48.4844 18.8281 43.1094
Q14.7969 37.75 14.7969 27.9844
Q14.7969 18.2656 18.8281 12.8906
Q22.8594 7.51562 30.0781 7.51562
Q37.3594 7.51562 41.375 12.8906
Q45.4062 18.2656 45.4062 27.9844
M54.3906 6.78125
Q54.3906 -7.17188 48.1875 -13.9844
Q42 -20.7969 29.2031 -20.7969
Q24.4688 -20.7969 20.2656 -20.0938
Q16.0625 -19.3906 12.1094 -17.9219
L12.1094 -9.1875
Q16.0625 -11.3281 19.9219 -12.3438
Q23.7812 -13.375 27.7812 -13.375
Q36.625 -13.375 41.0156 -8.76562
Q45.4062 -4.15625 45.4062 5.17188
L45.4062 9.625
Q42.625 4.78125 38.2812 2.39062
Q33.9375 0 27.875 0
Q17.8281 0 11.6719 7.65625
Q5.51562 15.3281 5.51562 27.9844
Q5.51562 40.6719 11.6719 48.3281
Q17.8281 56 27.875 56
Q33.9375 56 38.2812 53.6094
Q42.625 51.2188 45.4062 46.3906
L45.4062 54.6875
L54.3906 54.6875
z
" id="BitstreamVeraSans-Roman-67"/>
      <path d="
M8.5 21.5781
L8.5 54.6875
L17.4844 54.6875
L17.4844 21.9219
Q17.4844 14.1562 20.5 10.2656
Q23.5312 6.39062 29.5938 6.39062
Q36.8594 6.39062 41.0781 11.0312
Q45.3125 15.6719 45.3125 23.6875
L45.3125 54.6875
L54.2969 54.6875
L54.2969 0
L45.3125 0
L45.3125 8.40625
Q42.0469 3.42188 37.7188 1
Q33.4062 -1.42188 27.6875 -1.42188
Q18.2656 -1.42188 13.375 4.4375
Q8.5 10.2969 8.5 21.5781" id="BitstreamVeraSans-Roman-75"/>
      <path d="
M48.7812 52.5938
L48.7812 44.1875
Q44.9688 46.2969 41.1406 47.3438
Q37.3125 48.3906 33.4062 48.3906
Q24.6562 48.3906 19.8125 42.8438
Q14.9844 37.3125 14.9844 27.2969
Q14.9844 17.2812 19.8125 11.7344
Q24.6562 6.20312 33.4062 6.20312
Q37.3125 6.20312 41.1406 7.25
Q44.9688 8.29688 48.7812 10.4062
L48.7812 2.09375
Q45.0156 0.34375 40.9844 -0.53125
Q36.9688 -1.42188 32.4219 -1.42188
Q20.0625 -1.42188 12.7812 6.34375
Q5.51562 14.1094 5.51562 27.2969
Q5.51562 40.6719 12.8594 48.3281
Q20.2188 56 33.0156 56
Q37.1562 56 41.1094 55.1406
Q45.0625 54.2969 48.7812 52.5938" id="BitstreamVeraSans-Roman-63"/>
     </defs>
     <g transform="translate(48.4590625 285.7265625)rotate(-90.0)scale(0.12 -0.12)">
      <use xlink:href="#BitstreamVeraSans-Roman-41"/>
      <use x="62.533203125" xlink:href="#BitstreamVeraSans-Roman-76"/>
      <use x="121.712890625" xlink:href="#BitstreamVeraSans-Roman-65"/>
      <use x="183.236328125" xlink:href="#BitstreamVeraSans-Roman-72"/>
      <use x="224.349609375" xlink:href="#BitstreamVeraSans-Roman-61"/>
      <use x="285.62890625" xlink:href="#BitstreamVeraSans-Roman-67"/>
      <use x="349.10546875" xlink:href="#BitstreamVeraSans-Roman-65"/>
      <use x="410.62890625" xlink:href="#BitstreamVeraSans-Roman-20"/>
      <use x="442.416015625" xlink:href="#BitstreamVeraSans-Roman-63"/>
      <use x="497.396484375" xlink:href="#BitstreamVeraSans-Roman-6f"/>
      <use x="558.578125" xlink:href="#BitstreamVeraSans-Roman-75"/>
      <use x="621.95703125" xlink:href="#BitstreamVeraSans-Roman-6e"/>
      <use x="685.3359375" xlink:href="#BitstreamVeraSans-Roman-74"/>
      <use x="724.544921875" xlink:href="#BitstreamVeraSans-Roman-20"/>
      <use x="756.33203125" xlink:href="#BitstreamVeraSans-Roman-70"/>
      <use x="819.80859375" xlink:href="#BitstreamVeraSans-Roman-65"/>
      <use x="881.33203125" xlink:href="#BitstreamVeraSans-Roman-72"/>
      <use x="922.4453125" xlink:href="#BitstreamVeraSans-Roman-20"/>
      <use x="954.232421875" xlink:href="#BitstreamVeraSans-Roman-70"/>
      <use x="1017.70898438" xlink:href="#BitstreamVeraSans-Roman-61"/>
      <use x="1078.98828125" xlink:href="#BitstreamVeraSans-Roman-73"/>
      <use x="1131.08789062" xlink:href="#BitstreamVeraSans-Roman-75"/>
      <use x="1194.46679688" xlink:href="#BitstreamVeraSans-Roman-6b"/>
     </g>
    </g>
   </g>
   <g id="text_16">
    <!-- Etnakhta occurence across the Torah -->
    <defs>
     <path d="
M9.8125 72.9062
L55.9062 72.9062
L55.9062 64.5938
L19.6719 64.5938
L19.6719 43.0156
L54.3906 43.0156
L54.3906 34.7188
L19.6719 34.7188
L19.6719 8.29688
L56.7812 8.29688
L56.7812 0
L9.8125 0
z
" id="BitstreamVeraSans-Roman-45"/>
     <path d="
M-0.296875 72.9062
L61.375 72.9062
L61.375 64.5938
L35.5 64.5938
L35.5 0
L25.5938 0
L25.5938 64.5938
L-0.296875 64.5938
z
" id="BitstreamVeraSans-Roman-54"/>
    </defs>
    <g transform="translate(199.77075 38.2)scale(0.144 -0.144)">
     <use xlink:href="#BitstreamVeraSans-Roman-45"/>
     <use x="63.18359375" xlink:href="#BitstreamVeraSans-Roman-74"/>
     <use x="102.392578125" xlink:href="#BitstreamVeraSans-Roman-6e"/>
     <use x="165.771484375" xlink:href="#BitstreamVeraSans-Roman-61"/>
     <use x="227.05078125" xlink:href="#BitstreamVeraSans-Roman-6b"/>
     <use x="284.9609375" xlink:href="#BitstreamVeraSans-Roman-68"/>
     <use x="348.33984375" xlink:href="#BitstreamVeraSans-Roman-74"/>
     <use x="387.548828125" xlink:href="#BitstreamVeraSans-Roman-61"/>
     <use x="448.828125" xlink:href="#BitstreamVeraSans-Roman-20"/>
     <use x="480.615234375" xlink:href="#BitstreamVeraSans-Roman-6f"/>
     <use x="541.796875" xlink:href="#BitstreamVeraSans-Roman-63"/>
     <use x="596.77734375" xlink:href="#BitstreamVeraSans-Roman-63"/>
     <use x="651.7578125" xlink:href="#BitstreamVeraSans-Roman-75"/>
     <use x="715.13671875" xlink:href="#BitstreamVeraSans-Roman-72"/>
     <use x="754.0" xlink:href="#BitstreamVeraSans-Roman-65"/>
     <use x="815.5234375" xlink:href="#BitstreamVeraSans-Roman-6e"/>
     <use x="878.90234375" xlink:href="#BitstreamVeraSans-Roman-63"/>
     <use x="933.8828125" xlink:href="#BitstreamVeraSans-Roman-65"/>
     <use x="995.40625" xlink:href="#BitstreamVeraSans-Roman-20"/>
     <use x="1027.19335938" xlink:href="#BitstreamVeraSans-Roman-61"/>
     <use x="1088.47265625" xlink:href="#BitstreamVeraSans-Roman-63"/>
     <use x="1143.453125" xlink:href="#BitstreamVeraSans-Roman-72"/>
     <use x="1182.31640625" xlink:href="#BitstreamVeraSans-Roman-6f"/>
     <use x="1243.49804688" xlink:href="#BitstreamVeraSans-Roman-73"/>
     <use x="1295.59765625" xlink:href="#BitstreamVeraSans-Roman-73"/>
     <use x="1347.69726562" xlink:href="#BitstreamVeraSans-Roman-20"/>
     <use x="1379.484375" xlink:href="#BitstreamVeraSans-Roman-74"/>
     <use x="1418.69335938" xlink:href="#BitstreamVeraSans-Roman-68"/>
     <use x="1482.07226562" xlink:href="#BitstreamVeraSans-Roman-65"/>
     <use x="1543.59570312" xlink:href="#BitstreamVeraSans-Roman-20"/>
     <use x="1575.3828125" xlink:href="#BitstreamVeraSans-Roman-54"/>
     <use x="1619.46679688" xlink:href="#BitstreamVeraSans-Roman-6f"/>
     <use x="1680.6484375" xlink:href="#BitstreamVeraSans-Roman-72"/>
     <use x="1721.76171875" xlink:href="#BitstreamVeraSans-Roman-61"/>
     <use x="1783.04101562" xlink:href="#BitstreamVeraSans-Roman-68"/>
    </g>
   </g>
  </g>
 </g>
 <defs>
  <clipPath id="p6858f96ca6">
   <rect height="334.8" width="502.2" x="81.0" y="43.2"/>
  </clipPath>
 </defs>
</svg>
