<?xml version="1.0" encoding="utf-8" standalone="no"?>
<!DOCTYPE svg PUBLIC "-//W3C//DTD SVG 1.1//EN"
  "http://www.w3.org/Graphics/SVG/1.1/DTD/svg11.dtd">
<!-- Created with matplotlib (http://matplotlib.org/) -->
<svg height="432pt" version="1.1" viewBox="0 0 648 432" width="648pt" xmlns="http://www.w3.org/2000/svg" xmlns:xlink="http://www.w3.org/1999/xlink">
 <defs>
  <style type="text/css">
*{stroke-linecap:butt;stroke-linejoin:round;}
  </style>
 </defs>
 <g id="figure_1">
  <g id="patch_1">
   <path d="
M0 432
L648 432
L648 0
L0 0
L0 432" style="fill:none;"/>
  </g>
  <g id="axes_1">
   <g id="patch_2">
    <path d="
M81 378
L583.2 378
L583.2 43.2
L81 43.2
L81 378" style="fill:none;"/>
   </g>
   <g id="line2d_1">
    <path clip-path="url(#p6858f96ca6)" d="
M102.454 244.08
L102.54 244.08
L102.712 239.895
L103.741 239.895
L103.913 235.71
L104.171 235.71
L104.342 239.895
L104.514 239.895
L104.685 244.08
L104.771 244.08
L104.857 239.895
L104.943 244.08
L105.2 235.71
L105.458 235.71
L105.715 244.08
L106.659 244.08
L106.831 252.45
L107.088 260.82
L107.689 260.82
L107.861 265.005
L108.376 265.005
L108.547 269.19
L108.976 269.19
L109.148 273.375
L109.234 273.375
L109.405 277.56
L109.577 273.375
L109.834 273.375
L110.006 269.19
L110.178 269.19
L110.349 265.005
L110.435 265.005
L110.607 269.19
L113.353 269.19
L113.525 265.005
L114.125 265.005
L114.297 260.82
L115.67 260.82
L115.842 265.005
L116.442 265.005
L116.614 269.19
L117.987 269.19
L118.159 273.375
L118.931 273.375
L119.103 277.56
L120.218 277.56
L120.39 281.745
L122.02 281.745
L122.192 285.93
L124.767 285.93
L124.938 281.745
L125.024 281.745
L125.196 277.56
L128.457 277.56
L128.628 281.745
L128.8 277.56
L128.886 277.56
L129.057 273.375
L129.83 273.375
L130.001 277.56
L131.718 277.56
L131.889 281.745
L132.404 281.745
L132.576 285.93
L132.662 285.93
L132.833 290.115
L133.348 290.115
L133.52 285.93
L133.606 285.93
L133.863 277.56
L134.035 277.56
L134.206 273.375
L135.837 273.375
L136.009 269.19
L137.725 269.19
L137.897 265.005
L138.068 265.005
L138.24 260.82
L138.326 260.82
L138.497 265.005
L139.956 265.005
L140.128 269.19
L140.471 269.19
L140.643 273.375
L142.96 273.375
L143.217 281.745
L143.303 281.745
L143.56 273.375
L144.247 273.375
L144.419 277.56
L145.448 277.56
L145.62 281.745
L145.792 281.745
L145.963 277.56
L146.65 277.56
L146.821 281.745
L147.165 281.745
L147.422 273.375
L147.508 273.375
L147.594 277.56
L147.68 273.375
L148.023 285.93
L152.314 285.93
L152.485 290.115
L152.743 290.115
L152.914 294.3
L153.086 294.3
L153.258 298.485
L154.888 298.485
L155.06 294.3
L155.489 294.3
L155.661 290.115
L156.261 290.115
L156.433 294.3
L156.519 294.3
L156.69 290.115
L156.776 290.115
L156.948 285.93
L157.034 285.93
L157.205 290.115
L158.235 290.115
L158.407 285.93
L158.578 285.93
L158.75 281.745
L159.78 281.745
L160.037 273.375
L160.552 273.375
L160.724 269.19
L167.675 269.19
L167.847 273.375
L167.932 273.375
L168.104 277.56
L168.276 273.375
L168.876 273.375
L169.048 265.005
L170.507 265.005
L170.679 260.82
L171.537 260.82
L171.708 265.005
L171.794 265.005
L171.966 269.19
L172.223 269.19
L172.395 265.005
L172.996 265.005
L173.167 260.82
L174.626 260.82
L174.798 256.635
L175.398 256.635
L175.57 252.45
L176.257 252.45
L176.428 256.635
L176.514 256.635
L176.772 265.005
L176.943 265.005
L177.115 269.19
L177.716 269.19
L177.887 265.005
L178.745 265.005
L178.917 269.19
L180.633 269.19
L180.805 273.375
L180.977 273.375
L181.148 277.56
L182.693 277.56
L182.95 269.19
L183.294 269.19
L183.723 252.45
L184.495 252.45
L184.753 244.08
L185.267 244.08
L185.611 231.525
L186.211 231.525
L186.469 239.895
L188.528 239.895
L188.7 235.71
L188.872 239.895
L189.73 239.895
L189.987 231.525
L190.073 231.525
L190.331 239.895
L190.502 239.895
L190.674 244.08
L194.879 244.08
L195.051 239.895
L195.394 239.895
L195.565 235.71
L196.338 235.71
L196.509 231.525
L196.595 231.525
L196.767 227.34
L197.453 227.34
L197.625 223.155
L197.711 223.155
L197.883 218.97
L198.397 218.97
L198.569 223.155
L199.427 223.155
L199.599 227.34
L199.685 227.34
L199.856 231.525
L200.028 227.34
L200.285 227.34
L200.457 223.155
L200.8 223.155
L200.972 218.97
L201.144 218.97
L201.315 223.155
L201.487 223.155
L201.658 227.34
L202.688 227.34
L202.946 235.71
L203.461 235.71
L203.632 239.895
L204.919 239.895
L205.091 235.71
L205.778 235.71
L206.035 227.34
L207.751 227.34
L207.923 223.155
L208.095 223.155
L208.352 214.785
L211.012 214.785
L211.184 218.97
L211.785 218.97
L211.956 227.34
L212.214 227.34
L212.386 223.155
L212.643 223.155
L212.815 218.97
L213.415 218.97
L213.587 223.155
L215.132 223.155
L215.217 227.34
L215.389 223.155
L215.904 223.155
L216.076 227.34
L216.505 227.34
L216.762 218.97
L216.934 218.97
L217.105 214.785
L217.535 214.785
L217.706 218.97
L218.049 218.97
L218.221 214.785
L218.307 214.785
L218.479 218.97
L220.538 218.97
L220.624 214.785
L220.796 218.97
L221.053 218.97
L221.225 214.785
L221.396 214.785
L221.654 206.415
L222.512 206.415
L222.769 198.045
L223.971 198.045
L224.142 193.86
L224.4 193.86
L224.572 189.675
L225.601 189.675
L225.859 198.045
L225.945 198.045
L226.202 189.675
L226.545 202.23
L227.318 202.23
L227.403 198.045
L227.661 206.415
L228.176 206.415
L228.519 218.97
L230.235 218.97
L230.407 214.785
L231.179 214.785
L231.351 210.6
L231.437 210.6
L231.609 214.785
L231.78 214.785
L231.952 210.6
L232.638 210.6
L232.896 218.97
L234.784 218.97
L234.955 210.6
L235.814 210.6
L236.071 202.23
L236.243 202.23
L236.414 198.045
L236.5 198.045
L236.672 193.86
L237.101 193.86
L237.272 189.675
L237.787 189.675
L237.959 193.86
L238.302 193.86
L238.474 198.045
L239.246 198.045
L239.418 202.23
L240.276 202.23
L240.362 198.045
L240.533 202.23
L240.619 202.23
L240.877 210.6
L241.22 210.6
L241.392 206.415
L241.477 206.415
L241.649 202.23
L241.735 202.23
L241.907 198.045
L242.765 198.045
L242.936 202.23
L243.194 202.23
L243.365 206.415
L243.709 206.415
L243.88 210.6
L244.824 210.6
L244.996 206.415
L247.828 206.415
L248 210.6
L248.686 210.6
L248.944 218.97
L249.63 218.97
L249.802 214.785
L250.66 214.785
L250.831 218.97
L250.917 218.97
L251.003 214.785
L251.261 223.155
L254.607 223.155
L254.779 218.97
L255.122 218.97
L255.294 223.155
L255.551 223.155
L255.723 227.34
L256.066 227.34
L256.238 223.155
L256.324 223.155
L256.495 210.6
L257.354 210.6
L257.525 206.415
L258.126 206.415
L258.298 210.6
L258.641 210.6
L258.812 206.415
L259.07 206.415
L259.242 202.23
L259.413 202.23
L259.671 210.6
L259.842 210.6
L260.014 214.785
L260.186 210.6
L260.786 210.6
L260.958 206.415
L261.129 210.6
L261.73 210.6
L261.902 206.415
L262.417 206.415
L262.588 202.23
L263.447 202.23
L263.618 206.415
L263.961 206.415
L264.133 210.6
L264.476 210.6
L264.648 214.785
L265.335 214.785
L265.42 210.6
L265.678 218.97
L267.308 218.97
L267.48 223.155
L268.338 223.155
L268.51 218.97
L268.853 218.97
L269.11 227.34
L269.454 227.34
L269.625 231.525
L269.797 231.525
L270.054 223.155
L270.226 223.155
L270.398 227.34
L272.028 227.34
L272.2 223.155
L272.371 223.155
L272.543 218.97
L272.886 218.97
L273.058 214.785
L273.144 214.785
L273.315 218.97
L274.088 218.97
L274.259 223.155
L274.517 223.155
L274.689 218.97
L274.86 223.155
L276.491 223.155
L276.662 218.97
L277.692 218.97
L277.864 227.34
L278.55 227.34
L278.722 223.155
L278.894 227.34
L279.151 227.34
L279.323 231.525
L279.408 231.525
L279.58 235.71
L279.838 235.71
L280.009 227.34
L280.181 231.525
L282.412 231.525
L282.584 235.71
L283.184 235.71
L283.356 239.895
L283.785 239.895
L283.957 235.71
L284.128 235.71
L284.3 239.895
L284.386 239.895
L284.557 244.08
L284.643 244.08
L284.815 248.265
L284.987 244.08
L285.158 244.08
L285.416 235.71
L285.587 235.71
L285.759 231.525
L287.647 231.525
L287.733 227.34
L287.904 231.525
L289.878 231.525
L290.136 223.155
L291.594 223.155
L291.766 218.97
L292.538 218.97
L292.71 223.155
L293.826 223.155
L293.997 227.34
L295.113 227.34
L295.285 223.155
L296.057 223.155
L296.229 218.97
L297.516 218.97
L297.687 223.155
L298.117 223.155
L298.288 218.97
L298.975 218.97
L299.146 223.155
L299.232 223.155
L299.404 235.71
L299.661 235.71
L299.833 231.525
L300.005 231.525
L300.176 227.34
L300.262 227.34
L300.434 231.525
L301.292 231.525
L301.463 227.34
L301.549 227.34
L301.721 231.525
L301.978 231.525
L302.15 235.71
L302.579 235.71
L302.836 227.34
L303.351 227.34
L303.609 218.97
L303.78 218.97
L304.038 210.6
L304.639 210.6
L304.81 214.785
L304.982 210.6
L305.325 210.6
L305.497 214.785
L305.754 214.785
L305.926 210.6
L306.183 210.6
L306.355 206.415
L306.612 206.415
L306.784 202.23
L307.213 202.23
L307.385 206.415
L308.243 206.415
L308.415 210.6
L309.53 210.6
L309.788 202.23
L309.959 206.415
L311.247 206.415
L311.418 210.6
L311.676 210.6
L311.847 206.415
L312.791 206.415
L312.877 210.6
L313.049 206.415
L314.937 206.415
L315.108 210.6
L315.537 210.6
L315.795 202.23
L315.966 206.415
L316.224 206.415
L316.396 202.23
L317.425 202.23
L317.511 206.415
L317.769 198.045
L318.97 198.045
L319.142 193.86
L319.399 193.86
L319.485 198.045
L319.657 193.86
L320.343 193.86
L320.515 189.675
L321.459 189.675
L321.63 193.86
L321.716 193.86
L321.802 198.045
L322.059 189.675
L322.746 189.675
L322.918 198.045
L323.604 198.045
L323.776 193.86
L323.862 193.86
L324.033 189.675
L324.376 189.675
L324.548 185.49
L324.634 185.49
L324.806 181.305
L325.664 181.305
L325.835 177.12
L326.694 177.12
L326.865 181.305
L327.208 181.305
L327.466 172.935
L327.723 172.935
L327.895 177.12
L328.067 177.12
L328.324 185.49
L328.496 185.49
L328.667 189.675
L330.555 189.675
L330.727 193.86
L332.787 193.86
L333.044 202.23
L333.13 202.23
L333.301 198.045
L333.473 198.045
L333.731 189.675
L334.503 189.675
L334.675 193.86
L335.104 193.86
L335.275 189.675
L336.562 189.675
L336.734 185.49
L337.592 185.49
L337.764 181.305
L338.021 181.305
L338.193 185.49
L338.794 185.49
L338.965 181.305
L339.137 185.49
L341.025 185.49
L341.197 189.675
L342.57 189.675
L342.741 193.86
L342.913 193.86
L342.999 198.045
L343.17 193.86
L344.029 193.86
L344.2 189.675
L344.372 193.86
L344.458 193.86
L344.715 185.49
L345.487 185.49
L345.745 193.86
L345.831 193.86
L346.002 198.045
L346.26 198.045
L346.517 206.415
L346.603 206.415
L346.946 218.97
L347.118 218.97
L347.29 214.785
L347.461 214.785
L347.633 210.6
L347.719 210.6
L347.89 214.785
L348.663 214.785
L348.834 218.97
L349.092 218.97
L349.263 223.155
L349.521 223.155
L349.692 227.34
L349.778 227.34
L349.95 223.155
L350.207 223.155
L350.379 218.97
L350.551 218.97
L350.722 214.785
L352.439 214.785
L352.61 218.97
L352.696 218.97
L352.868 214.785
L353.211 214.785
L353.383 210.6
L353.812 210.6
L353.983 206.415
L354.841 206.415
L355.013 202.23
L355.528 202.23
L355.614 193.86
L355.871 202.23
L356.043 202.23
L356.215 198.045
L358.188 198.045
L358.36 202.23
L358.446 202.23
L358.703 210.6
L359.132 210.6
L359.304 214.785
L360.42 214.785
L360.677 223.155
L361.878 223.155
L362.05 227.34
L362.393 227.34
L362.565 231.525
L363.252 231.525
L363.423 235.71
L364.71 235.71
L364.882 239.895
L365.569 239.895
L365.912 227.34
L366.513 227.34
L366.684 231.525
L366.77 227.34
L366.942 231.525
L367.285 231.525
L367.457 235.71
L367.542 235.71
L367.714 239.895
L368.315 239.895
L368.486 235.71
L368.572 235.71
L368.744 239.895
L368.915 239.895
L369.087 235.71
L370.117 235.71
L370.374 244.08
L372.606 244.08
L372.777 239.895
L373.12 239.895
L373.292 235.71
L376.038 235.71
L376.21 239.895
L376.381 239.895
L376.639 248.265
L376.725 248.265
L376.896 244.08
L377.497 244.08
L377.669 239.895
L378.012 239.895
L378.184 244.08
L379.471 244.08
L379.643 248.265
L379.9 239.895
L380.072 239.895
L380.243 235.71
L380.501 235.71
L380.672 239.895
L381.702 239.895
L381.788 244.08
L381.96 239.895
L382.732 239.895
L382.904 235.71
L382.989 235.71
L383.247 227.34
L383.333 227.34
L383.59 218.97
L384.706 218.97
L384.877 214.785
L385.907 214.785
L386.079 218.97
L386.937 218.97
L387.109 223.155
L387.366 223.155
L387.623 231.525
L387.967 231.525
L388.138 227.34
L388.825 227.34
L388.997 223.155
L389.34 223.155
L389.511 218.97
L390.37 218.97
L390.541 223.155
L392.687 223.155
L392.858 227.34
L393.116 227.34
L393.287 231.525
L393.459 231.525
L393.631 235.71
L395.519 235.71
L395.776 244.08
L396.119 244.08
L396.291 248.265
L396.72 248.265
L396.892 252.45
L397.492 252.45
L397.664 256.635
L397.75 256.635
L397.921 260.82
L398.436 260.82
L398.522 269.19
L398.694 265.005
L398.951 265.005
L399.123 260.82
L399.466 260.82
L399.724 252.45
L400.239 252.45
L400.41 248.265
L400.668 248.265
L400.839 244.08
L400.925 244.08
L401.097 239.895
L405.559 239.895
L405.731 235.71
L406.417 235.71
L406.589 231.525
L407.104 231.525
L407.276 227.34
L407.619 227.34
L407.79 223.155
L407.962 227.34
L408.477 227.34
L408.82 239.895
L409.421 239.895
L409.593 235.71
L409.764 239.895
L411.223 239.895
L411.395 244.08
L411.481 244.08
L411.652 239.895
L411.824 239.895
L411.995 244.08
L412.167 239.895
L415.514 239.895
L415.686 244.08
L415.771 244.08
L415.943 239.895
L416.029 239.895
L416.2 244.08
L417.144 244.08
L417.316 239.895
L417.917 239.895
L418.26 227.34
L419.633 227.34
L419.805 231.525
L420.062 231.525
L420.32 223.155
L420.406 223.155
L420.577 227.34
L420.663 227.34
L420.835 223.155
L421.693 223.155
L421.864 218.97
L422.551 218.97
L422.723 227.34
L422.894 223.155
L422.98 223.155
L423.152 227.34
L423.924 227.34
L424.096 223.155
L424.267 223.155
L424.439 218.97
L424.696 218.97
L424.868 223.155
L425.04 223.155
L425.297 214.785
L425.64 214.785
L425.812 218.97
L425.898 218.97
L426.155 227.34
L426.241 227.34
L426.498 235.71
L426.67 231.525
L427.614 231.525
L427.786 235.71
L427.957 231.525
L428.73 231.525
L428.901 223.155
L429.33 223.155
L429.502 218.97
L430.017 218.97
L430.189 214.785
L430.875 214.785
L431.047 218.97
L431.733 218.97
L431.905 223.155
L432.077 218.97
L432.248 218.97
L432.42 223.155
L432.591 223.155
L432.763 218.97
L432.935 218.97
L433.106 223.155
L434.823 223.155
L434.994 218.97
L435.509 218.97
L435.681 214.785
L436.968 214.785
L437.14 210.6
L437.569 210.6
L437.74 206.415
L437.998 206.415
L438.255 198.045
L439.543 198.045
L439.714 193.86
L441.431 193.86
L441.602 198.045
L441.86 198.045
L442.031 206.415
L442.375 206.415
L442.632 214.785
L443.147 214.785
L443.319 218.97
L443.576 218.97
L443.748 223.155
L443.833 218.97
L444.005 223.155
L444.434 223.155
L444.606 218.97
L445.207 218.97
L445.378 214.785
L448.468 214.785
L448.639 218.97
L449.326 218.97
L449.497 223.155
L450.012 223.155
L450.184 227.34
L450.527 227.34
L450.699 231.525
L451.643 231.525
L451.814 227.34
L452.329 227.34
L452.501 231.525
L453.617 231.525
L453.788 227.34
L454.389 227.34
L454.561 231.525
L454.904 231.525
L455.075 235.71
L455.59 235.71
L455.848 227.34
L456.105 227.34
L456.277 223.155
L459.538 223.155
L459.795 214.785
L460.053 214.785
L460.225 218.97
L460.825 218.97
L461.083 227.34
L461.512 227.34
L461.683 223.155
L462.971 223.155
L463.228 231.525
L463.571 231.525
L463.743 235.71
L464.172 235.71
L464.344 231.525
L464.601 231.525
L464.773 235.71
L465.631 235.71
L465.803 239.895
L466.832 239.895
L467.004 244.08
L467.347 244.08
L467.519 239.895
L467.948 239.895
L468.205 248.265
L468.463 248.265
L468.635 244.08
L469.407 244.08
L469.579 248.265
L470.694 248.265
L470.866 252.45
L471.381 252.45
L471.552 248.265
L471.638 248.265
L471.81 256.635
L472.239 256.635
L472.41 260.82
L472.754 260.82
L472.925 252.45
L473.097 256.635
L473.269 256.635
L473.44 252.45
L473.955 252.45
L474.127 248.265
L474.813 248.265
L474.985 252.45
L475.5 252.45
L475.672 256.635
L475.843 256.635
L476.015 252.45
L476.873 252.45
L477.13 244.08
L477.731 244.08
L477.903 248.265
L478.418 248.265
L478.589 252.45
L479.533 252.45
L479.705 248.265
L479.877 248.265
L480.048 252.45
L480.477 252.45
L480.649 256.635
L480.906 256.635
L481.078 260.82
L481.25 260.82
L481.421 256.635
L481.85 256.635
L482.022 252.45
L482.451 252.45
L482.623 256.635
L482.794 256.635
L482.966 252.45
L483.996 252.45
L484.167 248.265
L485.97 248.265
L486.227 239.895
L486.484 239.895
L486.656 235.71
L486.828 235.71
L486.999 231.525
L487.343 231.525
L487.514 235.71
L487.772 235.71
L487.943 231.525
L488.115 231.525
L488.287 235.71
L488.372 235.71
L488.544 231.525
L489.831 231.525
L490.003 227.34
L491.29 227.34
L491.462 223.155
L491.805 223.155
L492.063 206.415
L493.865 206.415
L494.122 198.045
L494.294 198.045
L494.465 193.86
L495.152 193.86
L495.324 189.675
L495.495 189.675
L495.838 177.12
L496.353 177.12
L496.525 172.935
L496.697 177.12
L498.327 177.12
L498.499 172.935
L498.756 181.305
L498.928 181.305
L499.014 177.12
L499.185 181.305
L499.271 181.305
L499.443 177.12
L499.529 177.12
L499.7 172.935
L500.129 172.935
L500.301 168.75
L500.387 168.75
L500.558 164.565
L501.588 164.565
L501.76 168.75
L502.532 168.75
L502.618 164.565
L502.79 168.75
L503.047 168.75
L503.219 164.565
L503.734 164.565
L503.819 160.38
L503.991 164.565
L504.42 164.565
L504.592 168.75
L505.021 168.75
L505.193 164.565
L505.364 164.565
L505.536 160.38
L506.909 160.38
L507.08 156.195
L507.252 160.38
L507.338 160.38
L507.51 156.195
L508.454 156.195
L508.625 152.01
L509.398 152.01
L509.569 147.825
L510.084 147.825
L510.256 152.01
L510.599 152.01
L510.771 147.825
L510.856 147.825
L511.114 139.455
L511.371 139.455
L511.543 143.64
L511.715 143.64
L512.058 131.085
L512.487 131.085
L512.659 126.9
L513.088 126.9
L513.259 122.715
L513.517 122.715
L513.688 118.53
L514.289 118.53
L514.461 122.715
L515.662 122.715
L515.834 131.085
L516.005 126.9
L516.091 126.9
L516.177 122.715
L516.349 126.9
L516.692 126.9
L516.864 122.715
L517.722 122.715
L517.979 114.345
L518.752 114.345
L518.923 118.53
L519.781 118.53
L520.039 126.9
L520.21 122.715
L520.382 122.715
L520.554 118.53
L520.64 118.53
L520.811 114.345
L521.669 114.345
L521.841 110.16
L521.927 110.16
L522.098 105.975
L522.442 105.975
L522.613 110.16
L523.386 110.16
L523.643 101.79
L524.072 101.79
L524.158 97.605
L524.33 101.79
L524.501 97.605
L524.759 97.605
L524.845 101.79
L525.016 97.605
L525.703 97.605
L525.874 101.79
L526.561 101.79
L526.733 97.605
L526.904 97.605
L526.99 101.79
L527.247 93.42
L527.333 93.42
L527.591 85.05
L527.762 85.05
L527.934 80.865
L528.191 80.865
L528.363 76.68
L528.535 76.68
L528.706 72.495
L528.878 72.495
L529.135 80.865
L529.307 76.68
L529.564 76.68
L529.822 85.05
L530.508 85.05
L530.68 80.865
L530.852 85.05
L531.023 80.865
L531.967 80.865
L532.225 72.495
L532.74 72.495
L532.826 76.68
L532.997 72.495
L533.169 72.495
L533.34 68.31
L534.199 68.31
L534.37 72.495
L534.456 72.495
L534.628 68.31
L534.713 68.31
L534.885 80.865
L535.057 80.865
L535.228 76.68
L535.4 76.68
L535.572 72.495
L536.258 72.495
L536.43 68.31
L536.773 68.31
L537.031 76.68
L537.202 76.68
L537.374 80.865
L537.46 80.865
L537.631 85.05
L538.06 85.05
L538.232 89.235
L538.489 89.235
L538.575 93.42
L538.661 89.235
L538.747 93.42
L538.919 89.235
L539.176 89.235
L539.262 85.05
L539.433 89.235
L540.206 89.235
L540.377 85.05
L541.236 85.05
L541.407 89.235
L541.836 89.235
L542.008 93.42
L542.18 93.42
L542.351 97.605
L542.437 97.605
L542.609 101.79
L543.038 101.79
L543.209 105.975
L543.295 105.975
L543.467 110.16
L545.441 110.16
L545.612 114.345
L545.956 114.345
L546.127 118.53
L546.642 118.53
L546.728 122.715
L546.899 118.53
L547.071 118.53
L547.414 105.975
L547.929 105.975
L548.101 110.16
L548.273 105.975
L548.53 105.975
L548.787 97.605
L549.56 97.605
L549.731 93.42
L549.817 93.42
L549.989 97.605
L551.19 97.605
L551.362 93.42
L552.306 93.42
L552.478 97.605
L552.563 97.605
L552.735 93.42
L553.164 93.42
L553.336 97.605
L553.765 97.605
L554.022 105.975
L554.623 105.975
L554.966 118.53
L555.395 118.53
L555.567 122.715
L555.996 122.715
L556.168 126.9
L556.425 126.9
L556.597 131.085
L557.97 131.085
L558.227 122.715
L558.742 122.715
L558.914 126.9
L559 126.9
L559.171 131.085
L559.6 131.085
L559.858 139.455
L560.716 139.455
L560.888 143.64
L561.403 143.64
L561.574 139.455
L561.832 139.455
L561.832 139.455" style="fill:none;stroke:#0000ff;stroke-linecap:square;"/>
   </g>
   <g id="line2d_2">
    <path clip-path="url(#p6858f96ca6)" d="
M102.454 277.56
L103.398 277.56
L103.57 281.745
L104.771 281.745
L104.943 277.56
L105.115 281.745
L106.659 281.745
L106.831 277.56
L108.204 277.56
L108.376 273.375
L111.122 273.375
L111.293 269.19
L112.581 269.19
L112.752 265.005
L113.954 265.005
L114.125 269.19
L114.469 269.19
L114.64 265.005
L115.842 265.005
L116.013 269.19
L116.099 269.19
L116.357 277.56
L116.7 277.56
L116.871 281.745
L119.274 281.745
L119.446 285.93
L119.789 285.93
L119.961 281.745
L120.132 294.3
L122.964 294.3
L123.136 298.485
L123.222 298.485
L123.394 294.3
L125.882 294.3
L126.054 290.115
L129.83 290.115
L130.001 294.3
L131.889 294.3
L132.061 298.485
L132.233 298.485
L132.404 302.67
L134.206 302.67
L134.378 298.485
L138.926 298.485
L139.098 294.3
L141.243 294.3
L141.501 302.67
L141.587 302.67
L141.93 315.225
L142.359 315.225
L142.531 319.41
L143.303 319.41
L143.56 327.78
L145.534 327.78
L145.706 323.595
L145.792 323.595
L145.963 319.41
L147.68 319.41
L147.851 323.595
L149.31 323.595
L149.482 319.41
L149.568 319.41
L149.739 323.595
L151.112 323.595
L151.284 327.78
L152.228 327.78
L152.4 323.595
L153.086 323.595
L153.258 319.41
L154.03 319.41
L154.202 323.595
L155.489 323.595
L155.661 327.78
L157.377 327.78
L157.549 331.965
L160.466 331.965
L160.638 327.78
L162.698 327.78
L162.869 331.965
L164.414 331.965
L164.586 327.78
L164.671 327.78
L164.843 323.595
L166.13 323.595
L166.302 327.78
L168.791 327.78
L168.962 331.965
L169.563 331.965
L169.735 327.78
L169.906 327.78
L170.078 323.595
L170.85 323.595
L171.022 319.41
L173.511 319.41
L173.682 315.225
L177.115 315.225
L177.286 319.41
L178.059 319.41
L178.23 315.225
L180.118 315.225
L180.29 319.41
L180.719 319.41
L180.891 315.225
L181.835 315.225
L182.006 319.41
L188.357 319.41
L188.443 315.225
L188.614 319.41
L188.7 319.41
L188.872 323.595
L190.245 323.595
L190.416 319.41
L192.219 319.41
L192.39 323.595
L194.107 323.595
L194.278 319.41
L195.136 319.41
L195.222 323.595
L195.394 319.41
L195.995 319.41
L196.166 323.595
L196.681 323.595
L196.853 319.41
L203.375 319.41
L203.546 323.595
L207.322 323.595
L207.494 327.78
L207.58 327.78
L207.751 331.965
L211.098 331.965
L211.27 327.78
L212.471 327.78
L212.643 331.965
L212.815 331.965
L212.986 336.15
L213.244 336.15
L213.415 331.965
L213.759 331.965
L213.93 336.15
L216.419 336.15
L216.591 340.335
L216.934 340.335
L217.105 336.15
L217.706 336.15
L217.878 331.965
L220.195 331.965
L220.367 327.78
L220.967 327.78
L221.139 331.965
L222.083 331.965
L222.254 327.78
L223.456 327.78
L223.628 323.595
L223.799 327.78
L229.12 327.78
L229.291 323.595
L229.806 323.595
L229.978 319.41
L231.265 319.41
L231.437 323.595
L232.896 323.595
L233.067 319.41
L233.153 319.41
L233.325 323.595
L234.955 323.595
L235.127 319.41
L235.985 319.41
L236.157 315.225
L236.414 315.225
L236.586 311.04
L237.015 311.04
L237.187 315.225
L238.131 315.225
L238.302 319.41
L239.589 319.41
L239.761 323.595
L240.619 323.595
L240.791 319.41
L240.877 319.41
L241.048 315.225
L241.649 315.225
L241.821 311.04
L249.544 311.04
L249.716 306.855
L250.746 306.855
L250.917 302.67
L254.007 302.67
L254.178 306.855
L255.294 306.855
L255.466 302.67
L256.152 302.67
L256.324 306.855
L256.839 306.855
L257.01 302.67
L257.611 302.67
L257.783 298.485
L258.126 298.485
L258.298 294.3
L258.727 294.3
L259.07 281.745
L259.327 281.745
L259.499 277.56
L259.842 277.56
L260.014 281.745
L260.1 281.745
L260.271 277.56
L260.615 277.56
L260.786 281.745
L261.902 281.745
L262.073 277.56
L263.103 277.56
L263.275 281.745
L264.991 281.745
L265.163 285.93
L266.364 285.93
L266.536 290.115
L266.622 290.115
L266.793 285.93
L271.857 285.93
L272.028 281.745
L272.2 285.93
L272.715 285.93
L272.801 290.115
L272.972 285.93
L274.603 285.93
L274.774 281.745
L275.804 281.745
L275.976 285.93
L277.864 285.93
L278.035 290.115
L278.55 290.115
L278.808 281.745
L278.894 281.745
L279.065 285.93
L279.323 285.93
L279.494 290.115
L280.009 290.115
L280.181 285.93
L283.528 285.93
L283.699 290.115
L283.785 290.115
L283.957 294.3
L284.557 294.3
L284.643 298.485
L284.815 294.3
L289.363 294.3
L289.535 290.115
L290.908 290.115
L291.08 285.93
L292.453 285.93
L292.624 290.115
L293.139 290.115
L293.397 281.745
L293.654 281.745
L293.826 285.93
L295.542 285.93
L295.799 277.56
L298.202 277.56
L298.374 281.745
L298.631 281.745
L298.803 277.56
L299.061 277.56
L299.232 273.375
L299.747 273.375
L299.919 277.56
L300.005 277.56
L300.176 273.375
L300.434 273.375
L300.605 269.19
L300.691 269.19
L300.863 265.005
L301.034 265.005
L301.206 269.19
L301.635 269.19
L301.892 277.56
L302.236 277.56
L302.407 281.745
L302.751 281.745
L302.922 277.56
L303.008 277.56
L303.18 281.745
L303.437 281.745
L303.609 277.56
L303.952 277.56
L304.124 273.375
L304.467 273.375
L304.639 269.19
L304.81 269.19
L304.982 273.375
L308.157 273.375
L308.329 269.19
L311.161 269.19
L311.332 265.005
L312.105 265.005
L312.276 260.82
L313.134 260.82
L313.306 256.635
L313.735 256.635
L313.907 252.45
L313.993 252.45
L314.164 248.265
L314.508 248.265
L314.679 244.08
L314.765 244.08
L314.937 248.265
L315.108 248.265
L315.28 244.08
L315.366 244.08
L315.537 239.895
L315.709 239.895
L315.881 244.08
L316.052 244.08
L316.224 239.895
L316.396 239.895
L316.567 235.71
L316.653 235.71
L316.825 231.525
L317.082 231.525
L317.254 227.34
L317.34 227.34
L317.511 223.155
L317.683 227.34
L319.742 227.34
L319.914 223.155
L321.459 223.155
L321.716 231.525
L321.888 227.34
L322.918 227.34
L323.089 231.525
L324.376 231.525
L324.548 227.34
L325.835 227.34
L326.007 223.155
L326.179 223.155
L326.436 214.785
L326.522 214.785
L326.694 210.6
L327.552 210.6
L327.638 214.785
L327.809 206.415
L328.324 206.415
L328.496 202.23
L330.641 202.23
L330.813 198.045
L330.899 198.045
L331.07 193.86
L332.272 193.86
L332.443 198.045
L333.816 198.045
L333.988 202.23
L335.275 202.23
L335.447 198.045
L336.048 198.045
L336.305 206.415
L336.734 206.415
L336.906 202.23
L338.45 202.23
L338.708 210.6
L341.54 210.6
L341.711 214.785
L341.969 214.785
L342.141 218.97
L342.827 218.97
L342.913 214.785
L343.085 218.97
L343.342 218.97
L343.685 231.525
L344.629 231.525
L344.801 235.71
L345.659 235.71
L345.745 239.895
L346.002 231.525
L346.346 231.525
L346.517 235.71
L346.86 235.71
L347.032 239.895
L347.375 239.895
L347.547 244.08
L347.633 244.08
L347.804 239.895
L351.066 239.895
L351.237 244.08
L352.439 244.08
L352.61 248.265
L354.069 248.265
L354.241 252.45
L355.013 252.45
L355.185 256.635
L356.043 256.635
L356.215 260.82
L356.386 256.635
L356.644 256.635
L356.815 260.82
L356.901 260.82
L357.073 265.005
L357.416 265.005
L357.588 269.19
L357.759 269.19
L357.931 265.005
L358.017 265.005
L358.188 269.19
L358.274 269.19
L358.446 273.375
L358.961 273.375
L359.132 277.56
L359.304 277.56
L359.476 281.745
L359.561 281.745
L359.733 285.93
L359.819 285.93
L359.99 281.745
L360.162 285.93
L360.248 285.93
L360.42 290.115
L361.106 290.115
L361.278 285.93
L362.651 285.93
L362.822 290.115
L364.195 290.115
L364.367 285.93
L364.625 285.93
L364.796 290.115
L365.74 290.115
L365.998 281.745
L366.513 281.745
L366.684 277.56
L366.856 277.56
L367.027 273.375
L367.199 273.375
L367.285 269.19
L367.457 273.375
L367.542 273.375
L367.714 269.19
L368.744 269.19
L368.915 273.375
L369.087 273.375
L369.344 281.745
L369.43 281.745
L369.602 285.93
L370.546 285.93
L370.718 294.3
L371.232 294.3
L371.404 298.485
L373.464 298.485
L373.55 294.3
L373.721 298.485
L373.807 298.485
L373.979 302.67
L376.381 302.67
L376.553 298.485
L378.184 298.485
L378.355 302.67
L379.643 302.67
L379.814 306.855
L381.359 306.855
L381.53 302.67
L381.96 302.67
L382.217 294.3
L385.736 294.3
L385.907 298.485
L386.851 298.485
L387.109 290.115
L388.653 290.115
L388.911 298.485
L390.541 298.485
L390.713 302.67
L398.608 302.67
L398.78 298.485
L399.123 298.485
L399.295 302.67
L399.466 298.485
L399.895 298.485
L400.153 290.115
L400.239 290.115
L400.496 281.745
L400.668 281.745
L400.839 285.93
L402.727 285.93
L402.899 290.115
L404.014 290.115
L404.186 294.3
L404.272 294.3
L404.444 290.115
L407.104 290.115
L407.276 294.3
L408.649 294.3
L408.906 302.67
L409.421 302.67
L409.593 306.855
L409.764 306.855
L409.936 311.04
L410.107 311.04
L410.279 315.225
L410.451 315.225
L410.622 319.41
L410.966 319.41
L411.137 315.225
L411.566 315.225
L411.824 306.855
L412.339 306.855
L412.51 302.67
L414.57 302.67
L414.742 298.485
L414.913 298.485
L415.085 294.3
L416.372 294.3
L416.544 298.485
L419.29 298.485
L419.462 302.67
L419.891 302.67
L420.062 298.485
L420.749 298.485
L420.92 294.3
L422.894 294.3
L423.066 285.93
L423.409 285.93
L423.581 281.745
L424.267 281.745
L424.439 285.93
L424.868 285.93
L425.125 294.3
L425.469 294.3
L425.812 281.745
L426.155 281.745
L426.327 277.56
L427.099 277.56
L427.271 273.375
L428.386 273.375
L428.644 265.005
L429.588 265.005
L429.76 260.82
L430.017 269.19
L435.423 269.19
L435.595 260.82
L439.114 260.82
L439.285 256.635
L441.516 256.635
L441.688 260.82
L442.203 260.82
L442.375 265.005
L442.804 265.005
L443.061 273.375
L443.147 273.375
L443.404 281.745
L443.919 281.745
L444.091 277.56
L447.18 277.56
L447.352 281.745
L450.184 281.745
L450.356 277.56
L453.874 277.56
L454.046 281.745
L454.475 281.745
L454.732 290.115
L455.247 290.115
L455.419 294.3
L456.62 294.3
L456.792 290.115
L456.878 290.115
L457.049 285.93
L457.135 285.93
L457.307 281.745
L457.393 281.745
L457.478 277.56
L457.65 281.745
L457.822 277.56
L457.907 281.745
L458.079 277.56
L459.195 277.56
L459.366 273.375
L460.396 273.375
L460.568 269.19
L462.799 269.19
L462.971 273.375
L463.657 273.375
L463.829 277.56
L465.803 277.56
L465.974 285.93
L466.317 285.93
L466.403 290.115
L466.575 285.93
L467.004 285.93
L467.176 281.745
L468.377 281.745
L468.72 294.3
L468.892 294.3
L469.064 290.115
L469.235 294.3
L470.008 294.3
L470.179 298.485
L471.295 298.485
L471.552 306.855
L472.496 306.855
L472.668 311.04
L478.332 311.04
L478.503 319.41
L478.589 319.41
L478.761 315.225
L479.705 315.225
L479.877 311.04
L480.134 311.04
L480.306 306.855
L480.563 306.855
L480.735 302.67
L481.25 302.67
L481.421 298.485
L482.794 298.485
L482.966 294.3
L483.824 294.3
L483.996 290.115
L484.167 290.115
L484.339 285.93
L485.026 285.93
L485.197 281.745
L485.455 281.745
L485.626 277.56
L486.828 277.56
L486.999 281.745
L488.201 281.745
L488.458 273.375
L490.689 273.375
L490.861 269.19
L491.977 269.19
L492.148 260.82
L493.092 260.82
L493.264 265.005
L493.693 265.005
L493.865 260.82
L494.036 260.82
L494.208 256.635
L494.465 256.635
L494.637 252.45
L495.409 252.45
L495.581 248.265
L495.667 248.265
L495.838 244.08
L496.268 244.08
L496.439 239.895
L497.383 239.895
L497.555 235.71
L497.984 235.71
L498.156 231.525
L499.357 231.525
L499.529 227.34
L499.7 231.525
L499.786 231.525
L499.958 235.71
L500.044 235.71
L500.215 239.895
L500.301 239.895
L500.473 244.08
L500.558 244.08
L500.73 248.265
L500.816 244.08
L500.987 248.265
L502.103 248.265
L502.275 252.45
L502.704 252.45
L502.875 244.08
L503.305 244.08
L503.476 248.265
L505.707 248.265
L505.879 244.08
L509.312 244.08
L509.398 248.265
L509.655 239.895
L509.741 239.895
L509.912 235.71
L509.998 239.895
L510.17 235.71
L511.8 235.71
L511.972 239.895
L512.487 239.895
L512.744 231.525
L514.203 231.525
L514.461 223.155
L515.405 223.155
L515.576 218.97
L516.091 218.97
L516.263 214.785
L517.035 214.785
L517.207 210.6
L518.58 210.6
L518.752 206.415
L520.382 206.415
L520.554 202.23
L521.498 202.23
L521.584 206.415
L521.841 198.045
L522.613 198.045
L522.785 202.23
L523.042 202.23
L523.214 206.415
L523.471 206.415
L523.643 210.6
L524.072 210.6
L524.158 206.415
L524.33 210.6
L524.93 210.6
L525.102 214.785
L525.703 214.785
L525.874 218.97
L526.561 218.97
L526.733 214.785
L526.904 218.97
L527.076 218.97
L527.247 223.155
L527.934 223.155
L528.106 227.34
L528.363 227.34
L528.535 231.525
L528.878 231.525
L529.05 227.34
L531.109 227.34
L531.367 235.71
L531.538 235.71
L531.71 231.525
L533.598 231.525
L533.77 235.71
L534.113 235.71
L534.284 231.525
L534.885 231.525
L535.057 239.895
L536.601 239.895
L536.773 244.08
L536.945 244.08
L537.116 248.265
L537.288 248.265
L537.374 239.895
L537.545 244.08
L538.575 244.08
L538.747 248.265
L539.176 248.265
L539.348 252.45
L539.948 252.45
L540.12 248.265
L540.292 248.265
L540.463 252.45
L540.892 252.45
L541.064 256.635
L542.18 256.635
L542.265 252.45
L542.437 256.635
L542.866 256.635
L543.124 248.265
L543.638 248.265
L543.81 252.45
L545.526 252.45
L545.612 248.265
L545.784 256.635
L546.127 256.635
L546.299 252.45
L546.556 252.45
L546.728 248.265
L547.586 248.265
L547.758 244.08
L548.53 244.08
L548.616 239.895
L548.702 244.08
L548.959 235.71
L552.306 235.71
L552.563 244.08
L552.907 244.08
L552.992 248.265
L553.164 239.895
L555.395 239.895
L555.653 248.265
L557.112 248.265
L557.369 256.635
L557.798 256.635
L557.97 252.45
L558.313 252.45
L558.485 256.635
L559 256.635
L559.171 260.82
L559.944 260.82
L560.115 265.005
L561.059 265.005
L561.231 260.82
L561.488 260.82
L561.66 265.005
L561.832 265.005
L561.832 265.005" style="fill:none;stroke:#008000;stroke-linecap:square;"/>
   </g>
   <g id="patch_3">
    <path d="
M81 43.2
L583.2 43.2" style="fill:none;stroke:#000000;stroke-linecap:square;stroke-linejoin:miter;"/>
   </g>
   <g id="patch_4">
    <path d="
M583.2 378
L583.2 43.2" style="fill:none;stroke:#000000;stroke-linecap:square;stroke-linejoin:miter;"/>
   </g>
   <g id="patch_5">
    <path d="
M81 378
L583.2 378" style="fill:none;stroke:#000000;stroke-linecap:square;stroke-linejoin:miter;"/>
   </g>
   <g id="patch_6">
    <path d="
M81 378
L81 43.2" style="fill:none;stroke:#000000;stroke-linecap:square;stroke-linejoin:miter;"/>
   </g>
   <g id="matplotlib.axis_1">
    <g id="xtick_1">
     <g id="line2d_3">
      <path clip-path="url(#p6858f96ca6)" d="
M81 378
L81 43.2" style="fill:none;stroke:#000000;stroke-dasharray:1.000000,3.000000;stroke-dashoffset:0.0;stroke-width:0.5;"/>
     </g>
     <g id="line2d_4">
      <defs>
       <path d="
M0 0
L0 -4" id="m93b0483c22" style="stroke:#000000;stroke-width:0.5;"/>
      </defs>
      <g>
       <use style="stroke:#000000;stroke-width:0.5;" x="81.0" xlink:href="#m93b0483c22" y="378.0"/>
      </g>
     </g>
     <g id="line2d_5">
      <defs>
       <path d="
M0 0
L0 4" id="m741efc42ff" style="stroke:#000000;stroke-width:0.5;"/>
      </defs>
      <g>
       <use style="stroke:#000000;stroke-width:0.5;" x="81.0" xlink:href="#m741efc42ff" y="43.2"/>
      </g>
     </g>
     <g id="text_1">
      <!-- Bereshit -->
      <defs>
       <path d="
M9.42188 54.6875
L18.4062 54.6875
L18.4062 0
L9.42188 0
z

M9.42188 75.9844
L18.4062 75.9844
L18.4062 64.5938
L9.42188 64.5938
z
" id="BitstreamVeraSans-Roman-69"/>
       <path d="
M54.8906 33.0156
L54.8906 0
L45.9062 0
L45.9062 32.7188
Q45.9062 40.4844 42.875 44.3281
Q39.8438 48.1875 33.7969 48.1875
Q26.5156 48.1875 22.3125 43.5469
Q18.1094 38.9219 18.1094 30.9062
L18.1094 0
L9.07812 0
L9.07812 75.9844
L18.1094 75.9844
L18.1094 46.1875
Q21.3438 51.125 25.7031 53.5625
Q30.0781 56 35.7969 56
Q45.2188 56 50.0469 50.1719
Q54.8906 44.3438 54.8906 33.0156" id="BitstreamVeraSans-Roman-68"/>
       <path d="
M56.2031 29.5938
L56.2031 25.2031
L14.8906 25.2031
Q15.4844 15.9219 20.4844 11.0625
Q25.4844 6.20312 34.4219 6.20312
Q39.5938 6.20312 44.4531 7.46875
Q49.3125 8.73438 54.1094 11.2812
L54.1094 2.78125
Q49.2656 0.734375 44.1875 -0.34375
Q39.1094 -1.42188 33.8906 -1.42188
Q20.7969 -1.42188 13.1562 6.1875
Q5.51562 13.8125 5.51562 26.8125
Q5.51562 40.2344 12.7656 48.1094
Q20.0156 56 32.3281 56
Q43.3594 56 49.7812 48.8906
Q56.2031 41.7969 56.2031 29.5938
M47.2188 32.2344
Q47.125 39.5938 43.0938 43.9844
Q39.0625 48.3906 32.4219 48.3906
Q24.9062 48.3906 20.3906 44.1406
Q15.875 39.8906 15.1875 32.1719
z
" id="BitstreamVeraSans-Roman-65"/>
       <path d="
M18.3125 70.2188
L18.3125 54.6875
L36.8125 54.6875
L36.8125 47.7031
L18.3125 47.7031
L18.3125 18.0156
Q18.3125 11.3281 20.1406 9.42188
Q21.9688 7.51562 27.5938 7.51562
L36.8125 7.51562
L36.8125 0
L27.5938 0
Q17.1875 0 13.2344 3.875
Q9.28125 7.76562 9.28125 18.0156
L9.28125 47.7031
L2.6875 47.7031
L2.6875 54.6875
L9.28125 54.6875
L9.28125 70.2188
z
" id="BitstreamVeraSans-Roman-74"/>
       <path d="
M41.1094 46.2969
Q39.5938 47.1719 37.8125 47.5781
Q36.0312 48 33.8906 48
Q26.2656 48 22.1875 43.0469
Q18.1094 38.0938 18.1094 28.8125
L18.1094 0
L9.07812 0
L9.07812 54.6875
L18.1094 54.6875
L18.1094 46.1875
Q20.9531 51.1719 25.4844 53.5781
Q30.0312 56 36.5312 56
Q37.4531 56 38.5781 55.875
Q39.7031 55.7656 41.0625 55.5156
z
" id="BitstreamVeraSans-Roman-72"/>
       <path d="
M44.2812 53.0781
L44.2812 44.5781
Q40.4844 46.5312 36.375 47.5
Q32.2812 48.4844 27.875 48.4844
Q21.1875 48.4844 17.8438 46.4375
Q14.5 44.3906 14.5 40.2812
Q14.5 37.1562 16.8906 35.375
Q19.2812 33.5938 26.5156 31.9844
L29.5938 31.2969
Q39.1562 29.25 43.1875 25.5156
Q47.2188 21.7812 47.2188 15.0938
Q47.2188 7.46875 41.1875 3.01562
Q35.1562 -1.42188 24.6094 -1.42188
Q20.2188 -1.42188 15.4531 -0.5625
Q10.6875 0.296875 5.42188 2
L5.42188 11.2812
Q10.4062 8.6875 15.2344 7.39062
Q20.0625 6.10938 24.8125 6.10938
Q31.1562 6.10938 34.5625 8.28125
Q37.9844 10.4531 37.9844 14.4062
Q37.9844 18.0625 35.5156 20.0156
Q33.0625 21.9688 24.7031 23.7812
L21.5781 24.5156
Q13.2344 26.2656 9.51562 29.9062
Q5.8125 33.5469 5.8125 39.8906
Q5.8125 47.6094 11.2812 51.7969
Q16.75 56 26.8125 56
Q31.7812 56 36.1719 55.2656
Q40.5781 54.5469 44.2812 53.0781" id="BitstreamVeraSans-Roman-73"/>
       <path d="
M19.6719 34.8125
L19.6719 8.10938
L35.5 8.10938
Q43.4531 8.10938 47.2812 11.4062
Q51.125 14.7031 51.125 21.4844
Q51.125 28.3281 47.2812 31.5625
Q43.4531 34.8125 35.5 34.8125
z

M19.6719 64.7969
L19.6719 42.8281
L34.2812 42.8281
Q41.5 42.8281 45.0312 45.5312
Q48.5781 48.25 48.5781 53.8125
Q48.5781 59.3281 45.0312 62.0625
Q41.5 64.7969 34.2812 64.7969
z

M9.8125 72.9062
L35.0156 72.9062
Q46.2969 72.9062 52.3906 68.2188
Q58.5 63.5312 58.5 54.8906
Q58.5 48.1875 55.375 44.2344
Q52.25 40.2812 46.1875 39.3125
Q53.4688 37.75 57.5 32.7812
Q61.5312 27.8281 61.5312 20.4062
Q61.5312 10.6406 54.8906 5.3125
Q48.25 0 35.9844 0
L9.8125 0
z
" id="BitstreamVeraSans-Roman-42"/>
      </defs>
      <g transform="translate(56.953125 391.118125)scale(0.12 -0.12)">
       <use xlink:href="#BitstreamVeraSans-Roman-42"/>
       <use x="68.603515625" xlink:href="#BitstreamVeraSans-Roman-65"/>
       <use x="130.126953125" xlink:href="#BitstreamVeraSans-Roman-72"/>
       <use x="168.990234375" xlink:href="#BitstreamVeraSans-Roman-65"/>
       <use x="230.513671875" xlink:href="#BitstreamVeraSans-Roman-73"/>
       <use x="282.61328125" xlink:href="#BitstreamVeraSans-Roman-68"/>
       <use x="345.9921875" xlink:href="#BitstreamVeraSans-Roman-69"/>
       <use x="373.775390625" xlink:href="#BitstreamVeraSans-Roman-74"/>
      </g>
     </g>
    </g>
    <g id="xtick_2">
     <g id="line2d_6">
      <path clip-path="url(#p6858f96ca6)" d="
M212.557 378
L212.557 43.2" style="fill:none;stroke:#000000;stroke-dasharray:1.000000,3.000000;stroke-dashoffset:0.0;stroke-width:0.5;"/>
     </g>
     <g id="line2d_7">
      <g>
       <use style="stroke:#000000;stroke-width:0.5;" x="212.557177033" xlink:href="#m93b0483c22" y="378.0"/>
      </g>
     </g>
     <g id="line2d_8">
      <g>
       <use style="stroke:#000000;stroke-width:0.5;" x="212.557177033" xlink:href="#m741efc42ff" y="43.2"/>
      </g>
     </g>
     <g id="text_2">
      <!-- Shemot -->
      <defs>
       <path d="
M52 44.1875
Q55.375 50.25 60.0625 53.125
Q64.75 56 71.0938 56
Q79.6406 56 84.2812 50.0156
Q88.9219 44.0469 88.9219 33.0156
L88.9219 0
L79.8906 0
L79.8906 32.7188
Q79.8906 40.5781 77.0938 44.375
Q74.3125 48.1875 68.6094 48.1875
Q61.625 48.1875 57.5625 43.5469
Q53.5156 38.9219 53.5156 30.9062
L53.5156 0
L44.4844 0
L44.4844 32.7188
Q44.4844 40.625 41.7031 44.4062
Q38.9219 48.1875 33.1094 48.1875
Q26.2188 48.1875 22.1562 43.5312
Q18.1094 38.875 18.1094 30.9062
L18.1094 0
L9.07812 0
L9.07812 54.6875
L18.1094 54.6875
L18.1094 46.1875
Q21.1875 51.2188 25.4844 53.6094
Q29.7812 56 35.6875 56
Q41.6562 56 45.8281 52.9688
Q50 49.9531 52 44.1875" id="BitstreamVeraSans-Roman-6d"/>
       <path d="
M53.5156 70.5156
L53.5156 60.8906
Q47.9062 63.5781 42.9219 64.8906
Q37.9375 66.2188 33.2969 66.2188
Q25.25 66.2188 20.875 63.0938
Q16.5 59.9688 16.5 54.2031
Q16.5 49.3594 19.4062 46.8906
Q22.3125 44.4375 30.4219 42.9219
L36.375 41.7031
Q47.4062 39.5938 52.6562 34.2969
Q57.9062 29 57.9062 20.125
Q57.9062 9.51562 50.7969 4.04688
Q43.7031 -1.42188 29.9844 -1.42188
Q24.8125 -1.42188 18.9688 -0.25
Q13.1406 0.921875 6.89062 3.21875
L6.89062 13.375
Q12.8906 10.0156 18.6562 8.29688
Q24.4219 6.59375 29.9844 6.59375
Q38.4219 6.59375 43.0156 9.90625
Q47.6094 13.2344 47.6094 19.3906
Q47.6094 24.75 44.3125 27.7812
Q41.0156 30.8125 33.5 32.3281
L27.4844 33.5
Q16.4531 35.6875 11.5156 40.375
Q6.59375 45.0625 6.59375 53.4219
Q6.59375 63.0938 13.4062 68.6562
Q20.2188 74.2188 32.1719 74.2188
Q37.3125 74.2188 42.625 73.2812
Q47.9531 72.3594 53.5156 70.5156" id="BitstreamVeraSans-Roman-53"/>
       <path d="
M30.6094 48.3906
Q23.3906 48.3906 19.1875 42.75
Q14.9844 37.1094 14.9844 27.2969
Q14.9844 17.4844 19.1562 11.8438
Q23.3438 6.20312 30.6094 6.20312
Q37.7969 6.20312 41.9844 11.8594
Q46.1875 17.5312 46.1875 27.2969
Q46.1875 37.0156 41.9844 42.7031
Q37.7969 48.3906 30.6094 48.3906
M30.6094 56
Q42.3281 56 49.0156 48.375
Q55.7188 40.7656 55.7188 27.2969
Q55.7188 13.875 49.0156 6.21875
Q42.3281 -1.42188 30.6094 -1.42188
Q18.8438 -1.42188 12.1719 6.21875
Q5.51562 13.875 5.51562 27.2969
Q5.51562 40.7656 12.1719 48.375
Q18.8438 56 30.6094 56" id="BitstreamVeraSans-Roman-6f"/>
      </defs>
      <g transform="translate(189.924989533 391.118125)scale(0.12 -0.12)">
       <use xlink:href="#BitstreamVeraSans-Roman-53"/>
       <use x="63.4765625" xlink:href="#BitstreamVeraSans-Roman-68"/>
       <use x="126.85546875" xlink:href="#BitstreamVeraSans-Roman-65"/>
       <use x="188.37890625" xlink:href="#BitstreamVeraSans-Roman-6d"/>
       <use x="285.791015625" xlink:href="#BitstreamVeraSans-Roman-6f"/>
       <use x="346.97265625" xlink:href="#BitstreamVeraSans-Roman-74"/>
      </g>
     </g>
    </g>
    <g id="xtick_3">
     <g id="line2d_9">
      <path clip-path="url(#p6858f96ca6)" d="
M316.653 378
L316.653 43.2" style="fill:none;stroke:#000000;stroke-dasharray:1.000000,3.000000;stroke-dashoffset:0.0;stroke-width:0.5;"/>
     </g>
     <g id="line2d_10">
      <g>
       <use style="stroke:#000000;stroke-width:0.5;" x="316.652973342" xlink:href="#m93b0483c22" y="378.0"/>
      </g>
     </g>
     <g id="line2d_11">
      <g>
       <use style="stroke:#000000;stroke-width:0.5;" x="316.652973342" xlink:href="#m741efc42ff" y="43.2"/>
      </g>
     </g>
     <g id="text_3">
      <!-- Vayikra -->
      <defs>
       <path d="
M9.07812 75.9844
L18.1094 75.9844
L18.1094 31.1094
L44.9219 54.6875
L56.3906 54.6875
L27.3906 29.1094
L57.625 0
L45.9062 0
L18.1094 26.7031
L18.1094 0
L9.07812 0
z
" id="BitstreamVeraSans-Roman-6b"/>
       <path d="
M34.2812 27.4844
Q23.3906 27.4844 19.1875 25
Q14.9844 22.5156 14.9844 16.5
Q14.9844 11.7188 18.1406 8.90625
Q21.2969 6.10938 26.7031 6.10938
Q34.1875 6.10938 38.7031 11.4062
Q43.2188 16.7031 43.2188 25.4844
L43.2188 27.4844
z

M52.2031 31.2031
L52.2031 0
L43.2188 0
L43.2188 8.29688
Q40.1406 3.32812 35.5469 0.953125
Q30.9531 -1.42188 24.3125 -1.42188
Q15.9219 -1.42188 10.9531 3.29688
Q6 8.01562 6 15.9219
Q6 25.1406 12.1719 29.8281
Q18.3594 34.5156 30.6094 34.5156
L43.2188 34.5156
L43.2188 35.4062
Q43.2188 41.6094 39.1406 45
Q35.0625 48.3906 27.6875 48.3906
Q23 48.3906 18.5469 47.2656
Q14.1094 46.1406 10.0156 43.8906
L10.0156 52.2031
Q14.9375 54.1094 19.5781 55.0469
Q24.2188 56 28.6094 56
Q40.4844 56 46.3438 49.8438
Q52.2031 43.7031 52.2031 31.2031" id="BitstreamVeraSans-Roman-61"/>
       <path d="
M28.6094 0
L0.78125 72.9062
L11.0781 72.9062
L34.1875 11.5312
L57.3281 72.9062
L67.5781 72.9062
L39.7969 0
z
" id="BitstreamVeraSans-Roman-56"/>
       <path d="
M32.1719 -5.07812
Q28.375 -14.8438 24.75 -17.8125
Q21.1406 -20.7969 15.0938 -20.7969
L7.90625 -20.7969
L7.90625 -13.2812
L13.1875 -13.2812
Q16.8906 -13.2812 18.9375 -11.5156
Q21 -9.76562 23.4844 -3.21875
L25.0938 0.875
L2.98438 54.6875
L12.5 54.6875
L29.5938 11.9219
L46.6875 54.6875
L56.2031 54.6875
z
" id="BitstreamVeraSans-Roman-79"/>
      </defs>
      <g transform="translate(295.092348342 391.118125)scale(0.12 -0.12)">
       <use xlink:href="#BitstreamVeraSans-Roman-56"/>
       <use x="60.658203125" xlink:href="#BitstreamVeraSans-Roman-61"/>
       <use x="121.9375" xlink:href="#BitstreamVeraSans-Roman-79"/>
       <use x="181.1171875" xlink:href="#BitstreamVeraSans-Roman-69"/>
       <use x="208.900390625" xlink:href="#BitstreamVeraSans-Roman-6b"/>
       <use x="266.810546875" xlink:href="#BitstreamVeraSans-Roman-72"/>
       <use x="307.923828125" xlink:href="#BitstreamVeraSans-Roman-61"/>
      </g>
     </g>
    </g>
    <g id="xtick_4">
     <g id="line2d_12">
      <path clip-path="url(#p6858f96ca6)" d="
M390.37 378
L390.37 43.2" style="fill:none;stroke:#000000;stroke-dasharray:1.000000,3.000000;stroke-dashoffset:0.0;stroke-width:0.5;"/>
     </g>
     <g id="line2d_13">
      <g>
       <use style="stroke:#000000;stroke-width:0.5;" x="390.369617225" xlink:href="#m93b0483c22" y="378.0"/>
      </g>
     </g>
     <g id="line2d_14">
      <g>
       <use style="stroke:#000000;stroke-width:0.5;" x="390.369617225" xlink:href="#m741efc42ff" y="43.2"/>
      </g>
     </g>
     <g id="text_4">
      <!-- B'midbar -->
      <defs>
       <path d="
M45.4062 46.3906
L45.4062 75.9844
L54.3906 75.9844
L54.3906 0
L45.4062 0
L45.4062 8.20312
Q42.5781 3.32812 38.25 0.953125
Q33.9375 -1.42188 27.875 -1.42188
Q17.9688 -1.42188 11.7344 6.48438
Q5.51562 14.4062 5.51562 27.2969
Q5.51562 40.1875 11.7344 48.0938
Q17.9688 56 27.875 56
Q33.9375 56 38.25 53.625
Q42.5781 51.2656 45.4062 46.3906
M14.7969 27.2969
Q14.7969 17.3906 18.875 11.75
Q22.9531 6.10938 30.0781 6.10938
Q37.2031 6.10938 41.2969 11.75
Q45.4062 17.3906 45.4062 27.2969
Q45.4062 37.2031 41.2969 42.8438
Q37.2031 48.4844 30.0781 48.4844
Q22.9531 48.4844 18.875 42.8438
Q14.7969 37.2031 14.7969 27.2969" id="BitstreamVeraSans-Roman-64"/>
       <path d="
M17.9219 72.9062
L17.9219 45.7969
L9.625 45.7969
L9.625 72.9062
z
" id="BitstreamVeraSans-Roman-27"/>
       <path d="
M48.6875 27.2969
Q48.6875 37.2031 44.6094 42.8438
Q40.5312 48.4844 33.4062 48.4844
Q26.2656 48.4844 22.1875 42.8438
Q18.1094 37.2031 18.1094 27.2969
Q18.1094 17.3906 22.1875 11.75
Q26.2656 6.10938 33.4062 6.10938
Q40.5312 6.10938 44.6094 11.75
Q48.6875 17.3906 48.6875 27.2969
M18.1094 46.3906
Q20.9531 51.2656 25.2656 53.625
Q29.5938 56 35.5938 56
Q45.5625 56 51.7812 48.0938
Q58.0156 40.1875 58.0156 27.2969
Q58.0156 14.4062 51.7812 6.48438
Q45.5625 -1.42188 35.5938 -1.42188
Q29.5938 -1.42188 25.2656 0.953125
Q20.9531 3.32812 18.1094 8.20312
L18.1094 0
L9.07812 0
L9.07812 75.9844
L18.1094 75.9844
z
" id="BitstreamVeraSans-Roman-62"/>
      </defs>
      <g transform="translate(363.919929725 391.118125)scale(0.12 -0.12)">
       <use xlink:href="#BitstreamVeraSans-Roman-42"/>
       <use x="68.603515625" xlink:href="#BitstreamVeraSans-Roman-27"/>
       <use x="96.09375" xlink:href="#BitstreamVeraSans-Roman-6d"/>
       <use x="193.505859375" xlink:href="#BitstreamVeraSans-Roman-69"/>
       <use x="221.2890625" xlink:href="#BitstreamVeraSans-Roman-64"/>
       <use x="284.765625" xlink:href="#BitstreamVeraSans-Roman-62"/>
       <use x="348.2421875" xlink:href="#BitstreamVeraSans-Roman-61"/>
       <use x="409.521484375" xlink:href="#BitstreamVeraSans-Roman-72"/>
      </g>
     </g>
    </g>
    <g id="xtick_5">
     <g id="line2d_15">
      <path clip-path="url(#p6858f96ca6)" d="
M500.987 378
L500.987 43.2" style="fill:none;stroke:#000000;stroke-dasharray:1.000000,3.000000;stroke-dashoffset:0.0;stroke-width:0.5;"/>
     </g>
     <g id="line2d_16">
      <g>
       <use style="stroke:#000000;stroke-width:0.5;" x="500.987491456" xlink:href="#m93b0483c22" y="378.0"/>
      </g>
     </g>
     <g id="line2d_17">
      <g>
       <use style="stroke:#000000;stroke-width:0.5;" x="500.987491456" xlink:href="#m741efc42ff" y="43.2"/>
      </g>
     </g>
     <g id="text_5">
      <!-- D'varim -->
      <defs>
       <path d="
M2.98438 54.6875
L12.5 54.6875
L29.5938 8.79688
L46.6875 54.6875
L56.2031 54.6875
L35.6875 0
L23.4844 0
z
" id="BitstreamVeraSans-Roman-76"/>
       <path d="
M19.6719 64.7969
L19.6719 8.10938
L31.5938 8.10938
Q46.6875 8.10938 53.6875 14.9375
Q60.6875 21.7812 60.6875 36.5312
Q60.6875 51.1719 53.6875 57.9844
Q46.6875 64.7969 31.5938 64.7969
z

M9.8125 72.9062
L30.0781 72.9062
Q51.2656 72.9062 61.1719 64.0938
Q71.0938 55.2812 71.0938 36.5312
Q71.0938 17.6719 61.125 8.82812
Q51.1719 0 30.0781 0
L9.8125 0
z
" id="BitstreamVeraSans-Roman-44"/>
      </defs>
      <g transform="translate(478.610303956 391.118125)scale(0.12 -0.12)">
       <use xlink:href="#BitstreamVeraSans-Roman-44"/>
       <use x="77.001953125" xlink:href="#BitstreamVeraSans-Roman-27"/>
       <use x="104.4921875" xlink:href="#BitstreamVeraSans-Roman-76"/>
       <use x="163.671875" xlink:href="#BitstreamVeraSans-Roman-61"/>
       <use x="224.951171875" xlink:href="#BitstreamVeraSans-Roman-72"/>
       <use x="266.064453125" xlink:href="#BitstreamVeraSans-Roman-69"/>
       <use x="293.84765625" xlink:href="#BitstreamVeraSans-Roman-6d"/>
      </g>
     </g>
    </g>
   </g>
   <g id="matplotlib.axis_2">
    <g id="ytick_1">
     <g id="line2d_18">
      <path clip-path="url(#p6858f96ca6)" d="
M81 378
L583.2 378" style="fill:none;stroke:#000000;stroke-dasharray:1.000000,3.000000;stroke-dashoffset:0.0;stroke-width:0.5;"/>
     </g>
     <g id="line2d_19">
      <defs>
       <path d="
M0 0
L4 0" id="m728421d6d4" style="stroke:#000000;stroke-width:0.5;"/>
      </defs>
      <g>
       <use style="stroke:#000000;stroke-width:0.5;" x="81.0" xlink:href="#m728421d6d4" y="378.0"/>
      </g>
     </g>
     <g id="line2d_20">
      <defs>
       <path d="
M0 0
L-4 0" id="mcb0005524f" style="stroke:#000000;stroke-width:0.5;"/>
      </defs>
      <g>
       <use style="stroke:#000000;stroke-width:0.5;" x="583.2" xlink:href="#mcb0005524f" y="378.0"/>
      </g>
     </g>
     <g id="text_6">
      <!-- 0.00 -->
      <defs>
       <path d="
M31.7812 66.4062
Q24.1719 66.4062 20.3281 58.9062
Q16.5 51.4219 16.5 36.375
Q16.5 21.3906 20.3281 13.8906
Q24.1719 6.39062 31.7812 6.39062
Q39.4531 6.39062 43.2812 13.8906
Q47.125 21.3906 47.125 36.375
Q47.125 51.4219 43.2812 58.9062
Q39.4531 66.4062 31.7812 66.4062
M31.7812 74.2188
Q44.0469 74.2188 50.5156 64.5156
Q56.9844 54.8281 56.9844 36.375
Q56.9844 17.9688 50.5156 8.26562
Q44.0469 -1.42188 31.7812 -1.42188
Q19.5312 -1.42188 13.0625 8.26562
Q6.59375 17.9688 6.59375 36.375
Q6.59375 54.8281 13.0625 64.5156
Q19.5312 74.2188 31.7812 74.2188" id="BitstreamVeraSans-Roman-30"/>
       <path d="
M10.6875 12.4062
L21 12.4062
L21 0
L10.6875 0
z
" id="BitstreamVeraSans-Roman-2e"/>
      </defs>
      <g transform="translate(56.0578125 380.759375)scale(0.1 -0.1)">
       <use xlink:href="#BitstreamVeraSans-Roman-30"/>
       <use x="63.623046875" xlink:href="#BitstreamVeraSans-Roman-2e"/>
       <use x="95.41015625" xlink:href="#BitstreamVeraSans-Roman-30"/>
       <use x="159.033203125" xlink:href="#BitstreamVeraSans-Roman-30"/>
      </g>
     </g>
    </g>
    <g id="ytick_2">
     <g id="line2d_21">
      <path clip-path="url(#p6858f96ca6)" d="
M81 336.15
L583.2 336.15" style="fill:none;stroke:#000000;stroke-dasharray:1.000000,3.000000;stroke-dashoffset:0.0;stroke-width:0.5;"/>
     </g>
     <g id="line2d_22">
      <g>
       <use style="stroke:#000000;stroke-width:0.5;" x="81.0" xlink:href="#m728421d6d4" y="336.15"/>
      </g>
     </g>
     <g id="line2d_23">
      <g>
       <use style="stroke:#000000;stroke-width:0.5;" x="583.2" xlink:href="#mcb0005524f" y="336.15"/>
      </g>
     </g>
     <g id="text_7">
      <!-- 0.02 -->
      <defs>
       <path d="
M19.1875 8.29688
L53.6094 8.29688
L53.6094 0
L7.32812 0
L7.32812 8.29688
Q12.9375 14.1094 22.625 23.8906
Q32.3281 33.6875 34.8125 36.5312
Q39.5469 41.8438 41.4219 45.5312
Q43.3125 49.2188 43.3125 52.7812
Q43.3125 58.5938 39.2344 62.25
Q35.1562 65.9219 28.6094 65.9219
Q23.9688 65.9219 18.8125 64.3125
Q13.6719 62.7031 7.8125 59.4219
L7.8125 69.3906
Q13.7656 71.7812 18.9375 73
Q24.125 74.2188 28.4219 74.2188
Q39.75 74.2188 46.4844 68.5469
Q53.2188 62.8906 53.2188 53.4219
Q53.2188 48.9219 51.5312 44.8906
Q49.8594 40.875 45.4062 35.4062
Q44.1875 33.9844 37.6406 27.2188
Q31.1094 20.4531 19.1875 8.29688" id="BitstreamVeraSans-Roman-32"/>
      </defs>
      <g transform="translate(56.3953125 338.909375)scale(0.1 -0.1)">
       <use xlink:href="#BitstreamVeraSans-Roman-30"/>
       <use x="63.623046875" xlink:href="#BitstreamVeraSans-Roman-2e"/>
       <use x="95.41015625" xlink:href="#BitstreamVeraSans-Roman-30"/>
       <use x="159.033203125" xlink:href="#BitstreamVeraSans-Roman-32"/>
      </g>
     </g>
    </g>
    <g id="ytick_3">
     <g id="line2d_24">
      <path clip-path="url(#p6858f96ca6)" d="
M81 294.3
L583.2 294.3" style="fill:none;stroke:#000000;stroke-dasharray:1.000000,3.000000;stroke-dashoffset:0.0;stroke-width:0.5;"/>
     </g>
     <g id="line2d_25">
      <g>
       <use style="stroke:#000000;stroke-width:0.5;" x="81.0" xlink:href="#m728421d6d4" y="294.3"/>
      </g>
     </g>
     <g id="line2d_26">
      <g>
       <use style="stroke:#000000;stroke-width:0.5;" x="583.2" xlink:href="#mcb0005524f" y="294.3"/>
      </g>
     </g>
     <g id="text_8">
      <!-- 0.04 -->
      <defs>
       <path d="
M37.7969 64.3125
L12.8906 25.3906
L37.7969 25.3906
z

M35.2031 72.9062
L47.6094 72.9062
L47.6094 25.3906
L58.0156 25.3906
L58.0156 17.1875
L47.6094 17.1875
L47.6094 0
L37.7969 0
L37.7969 17.1875
L4.89062 17.1875
L4.89062 26.7031
z
" id="BitstreamVeraSans-Roman-34"/>
      </defs>
      <g transform="translate(55.9546875 297.059375)scale(0.1 -0.1)">
       <use xlink:href="#BitstreamVeraSans-Roman-30"/>
       <use x="63.623046875" xlink:href="#BitstreamVeraSans-Roman-2e"/>
       <use x="95.41015625" xlink:href="#BitstreamVeraSans-Roman-30"/>
       <use x="159.033203125" xlink:href="#BitstreamVeraSans-Roman-34"/>
      </g>
     </g>
    </g>
    <g id="ytick_4">
     <g id="line2d_27">
      <path clip-path="url(#p6858f96ca6)" d="
M81 252.45
L583.2 252.45" style="fill:none;stroke:#000000;stroke-dasharray:1.000000,3.000000;stroke-dashoffset:0.0;stroke-width:0.5;"/>
     </g>
     <g id="line2d_28">
      <g>
       <use style="stroke:#000000;stroke-width:0.5;" x="81.0" xlink:href="#m728421d6d4" y="252.45"/>
      </g>
     </g>
     <g id="line2d_29">
      <g>
       <use style="stroke:#000000;stroke-width:0.5;" x="583.2" xlink:href="#mcb0005524f" y="252.45"/>
      </g>
     </g>
     <g id="text_9">
      <!-- 0.06 -->
      <defs>
       <path d="
M33.0156 40.375
Q26.375 40.375 22.4844 35.8281
Q18.6094 31.2969 18.6094 23.3906
Q18.6094 15.5312 22.4844 10.9531
Q26.375 6.39062 33.0156 6.39062
Q39.6562 6.39062 43.5312 10.9531
Q47.4062 15.5312 47.4062 23.3906
Q47.4062 31.2969 43.5312 35.8281
Q39.6562 40.375 33.0156 40.375
M52.5938 71.2969
L52.5938 62.3125
Q48.875 64.0625 45.0938 64.9844
Q41.3125 65.9219 37.5938 65.9219
Q27.8281 65.9219 22.6719 59.3281
Q17.5312 52.7344 16.7969 39.4062
Q19.6719 43.6562 24.0156 45.9219
Q28.375 48.1875 33.5938 48.1875
Q44.5781 48.1875 50.9531 41.5156
Q57.3281 34.8594 57.3281 23.3906
Q57.3281 12.1562 50.6875 5.35938
Q44.0469 -1.42188 33.0156 -1.42188
Q20.3594 -1.42188 13.6719 8.26562
Q6.98438 17.9688 6.98438 36.375
Q6.98438 53.6562 15.1875 63.9375
Q23.3906 74.2188 37.2031 74.2188
Q40.9219 74.2188 44.7031 73.4844
Q48.4844 72.75 52.5938 71.2969" id="BitstreamVeraSans-Roman-36"/>
      </defs>
      <g transform="translate(56.0234375 255.209375)scale(0.1 -0.1)">
       <use xlink:href="#BitstreamVeraSans-Roman-30"/>
       <use x="63.623046875" xlink:href="#BitstreamVeraSans-Roman-2e"/>
       <use x="95.41015625" xlink:href="#BitstreamVeraSans-Roman-30"/>
       <use x="159.033203125" xlink:href="#BitstreamVeraSans-Roman-36"/>
      </g>
     </g>
    </g>
    <g id="ytick_5">
     <g id="line2d_30">
      <path clip-path="url(#p6858f96ca6)" d="
M81 210.6
L583.2 210.6" style="fill:none;stroke:#000000;stroke-dasharray:1.000000,3.000000;stroke-dashoffset:0.0;stroke-width:0.5;"/>
     </g>
     <g id="line2d_31">
      <g>
       <use style="stroke:#000000;stroke-width:0.5;" x="81.0" xlink:href="#m728421d6d4" y="210.6"/>
      </g>
     </g>
     <g id="line2d_32">
      <g>
       <use style="stroke:#000000;stroke-width:0.5;" x="583.2" xlink:href="#mcb0005524f" y="210.6"/>
      </g>
     </g>
     <g id="text_10">
      <!-- 0.08 -->
      <defs>
       <path d="
M31.7812 34.625
Q24.75 34.625 20.7188 30.8594
Q16.7031 27.0938 16.7031 20.5156
Q16.7031 13.9219 20.7188 10.1562
Q24.75 6.39062 31.7812 6.39062
Q38.8125 6.39062 42.8594 10.1719
Q46.9219 13.9688 46.9219 20.5156
Q46.9219 27.0938 42.8906 30.8594
Q38.875 34.625 31.7812 34.625
M21.9219 38.8125
Q15.5781 40.375 12.0312 44.7188
Q8.5 49.0781 8.5 55.3281
Q8.5 64.0625 14.7188 69.1406
Q20.9531 74.2188 31.7812 74.2188
Q42.6719 74.2188 48.875 69.1406
Q55.0781 64.0625 55.0781 55.3281
Q55.0781 49.0781 51.5312 44.7188
Q48 40.375 41.7031 38.8125
Q48.8281 37.1562 52.7969 32.3125
Q56.7812 27.4844 56.7812 20.5156
Q56.7812 9.90625 50.3125 4.23438
Q43.8438 -1.42188 31.7812 -1.42188
Q19.7344 -1.42188 13.25 4.23438
Q6.78125 9.90625 6.78125 20.5156
Q6.78125 27.4844 10.7812 32.3125
Q14.7969 37.1562 21.9219 38.8125
M18.3125 54.3906
Q18.3125 48.7344 21.8438 45.5625
Q25.3906 42.3906 31.7812 42.3906
Q38.1406 42.3906 41.7188 45.5625
Q45.3125 48.7344 45.3125 54.3906
Q45.3125 60.0625 41.7188 63.2344
Q38.1406 66.4062 31.7812 66.4062
Q25.3906 66.4062 21.8438 63.2344
Q18.3125 60.0625 18.3125 54.3906" id="BitstreamVeraSans-Roman-38"/>
      </defs>
      <g transform="translate(56.078125 213.359375)scale(0.1 -0.1)">
       <use xlink:href="#BitstreamVeraSans-Roman-30"/>
       <use x="63.623046875" xlink:href="#BitstreamVeraSans-Roman-2e"/>
       <use x="95.41015625" xlink:href="#BitstreamVeraSans-Roman-30"/>
       <use x="159.033203125" xlink:href="#BitstreamVeraSans-Roman-38"/>
      </g>
     </g>
    </g>
    <g id="ytick_6">
     <g id="line2d_33">
      <path clip-path="url(#p6858f96ca6)" d="
M81 168.75
L583.2 168.75" style="fill:none;stroke:#000000;stroke-dasharray:1.000000,3.000000;stroke-dashoffset:0.0;stroke-width:0.5;"/>
     </g>
     <g id="line2d_34">
      <g>
       <use style="stroke:#000000;stroke-width:0.5;" x="81.0" xlink:href="#m728421d6d4" y="168.75"/>
      </g>
     </g>
     <g id="line2d_35">
      <g>
       <use style="stroke:#000000;stroke-width:0.5;" x="583.2" xlink:href="#mcb0005524f" y="168.75"/>
      </g>
     </g>
     <g id="text_11">
      <!-- 0.10 -->
      <defs>
       <path d="
M12.4062 8.29688
L28.5156 8.29688
L28.5156 63.9219
L10.9844 60.4062
L10.9844 69.3906
L28.4219 72.9062
L38.2812 72.9062
L38.2812 8.29688
L54.3906 8.29688
L54.3906 0
L12.4062 0
z
" id="BitstreamVeraSans-Roman-31"/>
      </defs>
      <g transform="translate(56.0578125 171.509375)scale(0.1 -0.1)">
       <use xlink:href="#BitstreamVeraSans-Roman-30"/>
       <use x="63.623046875" xlink:href="#BitstreamVeraSans-Roman-2e"/>
       <use x="95.41015625" xlink:href="#BitstreamVeraSans-Roman-31"/>
       <use x="159.033203125" xlink:href="#BitstreamVeraSans-Roman-30"/>
      </g>
     </g>
    </g>
    <g id="ytick_7">
     <g id="line2d_36">
      <path clip-path="url(#p6858f96ca6)" d="
M81 126.9
L583.2 126.9" style="fill:none;stroke:#000000;stroke-dasharray:1.000000,3.000000;stroke-dashoffset:0.0;stroke-width:0.5;"/>
     </g>
     <g id="line2d_37">
      <g>
       <use style="stroke:#000000;stroke-width:0.5;" x="81.0" xlink:href="#m728421d6d4" y="126.9"/>
      </g>
     </g>
     <g id="line2d_38">
      <g>
       <use style="stroke:#000000;stroke-width:0.5;" x="583.2" xlink:href="#mcb0005524f" y="126.9"/>
      </g>
     </g>
     <g id="text_12">
      <!-- 0.12 -->
      <g transform="translate(56.3953125 129.659375)scale(0.1 -0.1)">
       <use xlink:href="#BitstreamVeraSans-Roman-30"/>
       <use x="63.623046875" xlink:href="#BitstreamVeraSans-Roman-2e"/>
       <use x="95.41015625" xlink:href="#BitstreamVeraSans-Roman-31"/>
       <use x="159.033203125" xlink:href="#BitstreamVeraSans-Roman-32"/>
      </g>
     </g>
    </g>
    <g id="ytick_8">
     <g id="line2d_39">
      <path clip-path="url(#p6858f96ca6)" d="
M81 85.05
L583.2 85.05" style="fill:none;stroke:#000000;stroke-dasharray:1.000000,3.000000;stroke-dashoffset:0.0;stroke-width:0.5;"/>
     </g>
     <g id="line2d_40">
      <g>
       <use style="stroke:#000000;stroke-width:0.5;" x="81.0" xlink:href="#m728421d6d4" y="85.05"/>
      </g>
     </g>
     <g id="line2d_41">
      <g>
       <use style="stroke:#000000;stroke-width:0.5;" x="583.2" xlink:href="#mcb0005524f" y="85.05"/>
      </g>
     </g>
     <g id="text_13">
      <!-- 0.14 -->
      <g transform="translate(55.9546875 87.809375)scale(0.1 -0.1)">
       <use xlink:href="#BitstreamVeraSans-Roman-30"/>
       <use x="63.623046875" xlink:href="#BitstreamVeraSans-Roman-2e"/>
       <use x="95.41015625" xlink:href="#BitstreamVeraSans-Roman-31"/>
       <use x="159.033203125" xlink:href="#BitstreamVeraSans-Roman-34"/>
      </g>
     </g>
    </g>
    <g id="ytick_9">
     <g id="line2d_42">
      <path clip-path="url(#p6858f96ca6)" d="
M81 43.2
L583.2 43.2" style="fill:none;stroke:#000000;stroke-dasharray:1.000000,3.000000;stroke-dashoffset:0.0;stroke-width:0.5;"/>
     </g>
     <g id="line2d_43">
      <g>
       <use style="stroke:#000000;stroke-width:0.5;" x="81.0" xlink:href="#m728421d6d4" y="43.2"/>
      </g>
     </g>
     <g id="line2d_44">
      <g>
       <use style="stroke:#000000;stroke-width:0.5;" x="583.2" xlink:href="#mcb0005524f" y="43.2"/>
      </g>
     </g>
     <g id="text_14">
      <!-- 0.16 -->
      <g transform="translate(56.0234375 45.959375)scale(0.1 -0.1)">
       <use xlink:href="#BitstreamVeraSans-Roman-30"/>
       <use x="63.623046875" xlink:href="#BitstreamVeraSans-Roman-2e"/>
       <use x="95.41015625" xlink:href="#BitstreamVeraSans-Roman-31"/>
       <use x="159.033203125" xlink:href="#BitstreamVeraSans-Roman-36"/>
      </g>
     </g>
    </g>
    <g id="text_15">
     <!-- Average count per pasuk -->
     <defs>
      <path id="BitstreamVeraSans-Roman-20"/>
      <path d="
M54.8906 33.0156
L54.8906 0
L45.9062 0
L45.9062 32.7188
Q45.9062 40.4844 42.875 44.3281
Q39.8438 48.1875 33.7969 48.1875
Q26.5156 48.1875 22.3125 43.5469
Q18.1094 38.9219 18.1094 30.9062
L18.1094 0
L9.07812 0
L9.07812 54.6875
L18.1094 54.6875
L18.1094 46.1875
Q21.3438 51.125 25.7031 53.5625
Q30.0781 56 35.7969 56
Q45.2188 56 50.0469 50.1719
Q54.8906 44.3438 54.8906 33.0156" id="BitstreamVeraSans-Roman-6e"/>
      <path d="
M18.1094 8.20312
L18.1094 -20.7969
L9.07812 -20.7969
L9.07812 54.6875
L18.1094 54.6875
L18.1094 46.3906
Q20.9531 51.2656 25.2656 53.625
Q29.5938 56 35.5938 56
Q45.5625 56 51.7812 48.0938
Q58.0156 40.1875 58.0156 27.2969
Q58.0156 14.4062 51.7812 6.48438
Q45.5625 -1.42188 35.5938 -1.42188
Q29.5938 -1.42188 25.2656 0.953125
Q20.9531 3.32812 18.1094 8.20312
M48.6875 27.2969
Q48.6875 37.2031 44.6094 42.8438
Q40.5312 48.4844 33.4062 48.4844
Q26.2656 48.4844 22.1875 42.8438
Q18.1094 37.2031 18.1094 27.2969
Q18.1094 17.3906 22.1875 11.75
Q26.2656 6.10938 33.4062 6.10938
Q40.5312 6.10938 44.6094 11.75
Q48.6875 17.3906 48.6875 27.2969" id="BitstreamVeraSans-Roman-70"/>
      <path d="
M34.1875 63.1875
L20.7969 26.9062
L47.6094 26.9062
z

M28.6094 72.9062
L39.7969 72.9062
L67.5781 0
L57.3281 0
L50.6875 18.7031
L17.8281 18.7031
L11.1875 0
L0.78125 0
z
" id="BitstreamVeraSans-Roman-41"/>
      <path d="
M45.4062 27.9844
Q45.4062 37.75 41.375 43.1094
Q37.3594 48.4844 30.0781 48.4844
Q22.8594 48.4844 18.8281 43.1094
Q14.7969 37.75 14.7969 27.9844
Q14.7969 18.2656 18.8281 12.8906
Q22.8594 7.51562 30.0781 7.51562
Q37.3594 7.51562 41.375 12.8906
Q45.4062 18.2656 45.4062 27.9844
M54.3906 6.78125
Q54.3906 -7.17188 48.1875 -13.9844
Q42 -20.7969 29.2031 -20.7969
Q24.4688 -20.7969 20.2656 -20.0938
Q16.0625 -19.3906 12.1094 -17.9219
L12.1094 -9.1875
Q16.0625 -11.3281 19.9219 -12.3438
Q23.7812 -13.375 27.7812 -13.375
Q36.625 -13.375 41.0156 -8.76562
Q45.4062 -4.15625 45.4062 5.17188
L45.4062 9.625
Q42.625 4.78125 38.2812 2.39062
Q33.9375 0 27.875 0
Q17.8281 0 11.6719 7.65625
Q5.51562 15.3281 5.51562 27.9844
Q5.51562 40.6719 11.6719 48.3281
Q17.8281 56 27.875 56
Q33.9375 56 38.2812 53.6094
Q42.625 51.2188 45.4062 46.3906
L45.4062 54.6875
L54.3906 54.6875
z
" id="BitstreamVeraSans-Roman-67"/>
      <path d="
M8.5 21.5781
L8.5 54.6875
L17.4844 54.6875
L17.4844 21.9219
Q17.4844 14.1562 20.5 10.2656
Q23.5312 6.39062 29.5938 6.39062
Q36.8594 6.39062 41.0781 11.0312
Q45.3125 15.6719 45.3125 23.6875
L45.3125 54.6875
L54.2969 54.6875
L54.2969 0
L45.3125 0
L45.3125 8.40625
Q42.0469 3.42188 37.7188 1
Q33.4062 -1.42188 27.6875 -1.42188
Q18.2656 -1.42188 13.375 4.4375
Q8.5 10.2969 8.5 21.5781" id="BitstreamVeraSans-Roman-75"/>
      <path d="
M48.7812 52.5938
L48.7812 44.1875
Q44.9688 46.2969 41.1406 47.3438
Q37.3125 48.3906 33.4062 48.3906
Q24.6562 48.3906 19.8125 42.8438
Q14.9844 37.3125 14.9844 27.2969
Q14.9844 17.2812 19.8125 11.7344
Q24.6562 6.20312 33.4062 6.20312
Q37.3125 6.20312 41.1406 7.25
Q44.9688 8.29688 48.7812 10.4062
L48.7812 2.09375
Q45.0156 0.34375 40.9844 -0.53125
Q36.9688 -1.42188 32.4219 -1.42188
Q20.0625 -1.42188 12.7812 6.34375
Q5.51562 14.1094 5.51562 27.2969
Q5.51562 40.6719 12.8594 48.3281
Q20.2188 56 33.0156 56
Q37.1562 56 41.1094 55.1406
Q45.0625 54.2969 48.7812 52.5938" id="BitstreamVeraSans-Roman-63"/>
     </defs>
     <g transform="translate(48.4590625 285.7265625)rotate(-90.0)scale(0.12 -0.12)">
      <use xlink:href="#BitstreamVeraSans-Roman-41"/>
      <use x="62.533203125" xlink:href="#BitstreamVeraSans-Roman-76"/>
      <use x="121.712890625" xlink:href="#BitstreamVeraSans-Roman-65"/>
      <use x="183.236328125" xlink:href="#BitstreamVeraSans-Roman-72"/>
      <use x="224.349609375" xlink:href="#BitstreamVeraSans-Roman-61"/>
      <use x="285.62890625" xlink:href="#BitstreamVeraSans-Roman-67"/>
      <use x="349.10546875" xlink:href="#BitstreamVeraSans-Roman-65"/>
      <use x="410.62890625" xlink:href="#BitstreamVeraSans-Roman-20"/>
      <use x="442.416015625" xlink:href="#BitstreamVeraSans-Roman-63"/>
      <use x="497.396484375" xlink:href="#BitstreamVeraSans-Roman-6f"/>
      <use x="558.578125" xlink:href="#BitstreamVeraSans-Roman-75"/>
      <use x="621.95703125" xlink:href="#BitstreamVeraSans-Roman-6e"/>
      <use x="685.3359375" xlink:href="#BitstreamVeraSans-Roman-74"/>
      <use x="724.544921875" xlink:href="#BitstreamVeraSans-Roman-20"/>
      <use x="756.33203125" xlink:href="#BitstreamVeraSans-Roman-70"/>
      <use x="819.80859375" xlink:href="#BitstreamVeraSans-Roman-65"/>
      <use x="881.33203125" xlink:href="#BitstreamVeraSans-Roman-72"/>
      <use x="922.4453125" xlink:href="#BitstreamVeraSans-Roman-20"/>
      <use x="954.232421875" xlink:href="#BitstreamVeraSans-Roman-70"/>
      <use x="1017.70898438" xlink:href="#BitstreamVeraSans-Roman-61"/>
      <use x="1078.98828125" xlink:href="#BitstreamVeraSans-Roman-73"/>
      <use x="1131.08789062" xlink:href="#BitstreamVeraSans-Roman-75"/>
      <use x="1194.46679688" xlink:href="#BitstreamVeraSans-Roman-6b"/>
     </g>
    </g>
   </g>
   <g id="text_16">
    <!-- Trop occurence across the Torah -->
    <defs>
     <path d="
M-0.296875 72.9062
L61.375 72.9062
L61.375 64.5938
L35.5 64.5938
L35.5 0
L25.5938 0
L25.5938 64.5938
L-0.296875 64.5938
z
" id="BitstreamVeraSans-Roman-54"/>
    </defs>
    <g transform="translate(216.954 38.2)scale(0.144 -0.144)">
     <use xlink:href="#BitstreamVeraSans-Roman-54"/>
     <use x="46.333984375" xlink:href="#BitstreamVeraSans-Roman-72"/>
     <use x="85.197265625" xlink:href="#BitstreamVeraSans-Roman-6f"/>
     <use x="146.37890625" xlink:href="#BitstreamVeraSans-Roman-70"/>
     <use x="209.85546875" xlink:href="#BitstreamVeraSans-Roman-20"/>
     <use x="241.642578125" xlink:href="#BitstreamVeraSans-Roman-6f"/>
     <use x="302.82421875" xlink:href="#BitstreamVeraSans-Roman-63"/>
     <use x="357.8046875" xlink:href="#BitstreamVeraSans-Roman-63"/>
     <use x="412.78515625" xlink:href="#BitstreamVeraSans-Roman-75"/>
     <use x="476.1640625" xlink:href="#BitstreamVeraSans-Roman-72"/>
     <use x="515.02734375" xlink:href="#BitstreamVeraSans-Roman-65"/>
     <use x="576.55078125" xlink:href="#BitstreamVeraSans-Roman-6e"/>
     <use x="639.9296875" xlink:href="#BitstreamVeraSans-Roman-63"/>
     <use x="694.91015625" xlink:href="#BitstreamVeraSans-Roman-65"/>
     <use x="756.43359375" xlink:href="#BitstreamVeraSans-Roman-20"/>
     <use x="788.220703125" xlink:href="#BitstreamVeraSans-Roman-61"/>
     <use x="849.5" xlink:href="#BitstreamVeraSans-Roman-63"/>
     <use x="904.48046875" xlink:href="#BitstreamVeraSans-Roman-72"/>
     <use x="943.34375" xlink:href="#BitstreamVeraSans-Roman-6f"/>
     <use x="1004.52539062" xlink:href="#BitstreamVeraSans-Roman-73"/>
     <use x="1056.625" xlink:href="#BitstreamVeraSans-Roman-73"/>
     <use x="1108.72460938" xlink:href="#BitstreamVeraSans-Roman-20"/>
     <use x="1140.51171875" xlink:href="#BitstreamVeraSans-Roman-74"/>
     <use x="1179.72070312" xlink:href="#BitstreamVeraSans-Roman-68"/>
     <use x="1243.09960938" xlink:href="#BitstreamVeraSans-Roman-65"/>
     <use x="1304.62304688" xlink:href="#BitstreamVeraSans-Roman-20"/>
     <use x="1336.41015625" xlink:href="#BitstreamVeraSans-Roman-54"/>
     <use x="1380.49414062" xlink:href="#BitstreamVeraSans-Roman-6f"/>
     <use x="1441.67578125" xlink:href="#BitstreamVeraSans-Roman-72"/>
     <use x="1482.7890625" xlink:href="#BitstreamVeraSans-Roman-61"/>
     <use x="1544.06835938" xlink:href="#BitstreamVeraSans-Roman-68"/>
    </g>
   </g>
   <g id="legend_1">
    <g id="patch_7">
     <path d="
M87 88.0275
L215.841 88.0275
L215.841 49.2
L87 49.2
z
" style="fill:#ffffff;opacity:0.9;stroke:#000000;stroke-linejoin:miter;"/>
    </g>
    <g id="line2d_45">
     <path d="
M95.4 58.9181
L112.2 58.9181" style="fill:none;stroke:#0000ff;stroke-linecap:square;"/>
    </g>
    <g id="line2d_46"/>
    <g id="text_17">
     <!-- Telisha Ketana -->
     <defs>
      <path d="
M9.8125 72.9062
L19.6719 72.9062
L19.6719 42.0938
L52.3906 72.9062
L65.0938 72.9062
L28.9062 38.9219
L67.6719 0
L54.6875 0
L19.6719 35.1094
L19.6719 0
L9.8125 0
z
" id="BitstreamVeraSans-Roman-4b"/>
      <path d="
M9.42188 75.9844
L18.4062 75.9844
L18.4062 0
L9.42188 0
z
" id="BitstreamVeraSans-Roman-6c"/>
     </defs>
     <g transform="translate(125.4 63.118125)scale(0.12 -0.12)">
      <use xlink:href="#BitstreamVeraSans-Roman-54"/>
      <use x="44.083984375" xlink:href="#BitstreamVeraSans-Roman-65"/>
      <use x="105.607421875" xlink:href="#BitstreamVeraSans-Roman-6c"/>
      <use x="133.390625" xlink:href="#BitstreamVeraSans-Roman-69"/>
      <use x="161.173828125" xlink:href="#BitstreamVeraSans-Roman-73"/>
      <use x="213.2734375" xlink:href="#BitstreamVeraSans-Roman-68"/>
      <use x="276.65234375" xlink:href="#BitstreamVeraSans-Roman-61"/>
      <use x="337.931640625" xlink:href="#BitstreamVeraSans-Roman-20"/>
      <use x="369.71875" xlink:href="#BitstreamVeraSans-Roman-4b"/>
      <use x="430.294921875" xlink:href="#BitstreamVeraSans-Roman-65"/>
      <use x="491.818359375" xlink:href="#BitstreamVeraSans-Roman-74"/>
      <use x="531.02734375" xlink:href="#BitstreamVeraSans-Roman-61"/>
      <use x="592.306640625" xlink:href="#BitstreamVeraSans-Roman-6e"/>
      <use x="655.685546875" xlink:href="#BitstreamVeraSans-Roman-61"/>
     </g>
    </g>
    <g id="line2d_47">
     <path d="
M95.4 76.5319
L112.2 76.5319" style="fill:none;stroke:#008000;stroke-linecap:square;"/>
    </g>
    <g id="line2d_48"/>
    <g id="text_18">
     <!-- Telisha Gedola -->
     <defs>
      <path d="
M59.5156 10.4062
L59.5156 29.9844
L43.4062 29.9844
L43.4062 38.0938
L69.2812 38.0938
L69.2812 6.78125
Q63.5781 2.73438 56.6875 0.65625
Q49.8125 -1.42188 42 -1.42188
Q24.9062 -1.42188 15.25 8.5625
Q5.60938 18.5625 5.60938 36.375
Q5.60938 54.25 15.25 64.2344
Q24.9062 74.2188 42 74.2188
Q49.125 74.2188 55.5469 72.4531
Q61.9688 70.7031 67.3906 67.2812
L67.3906 56.7812
Q61.9219 61.4219 55.7656 63.7656
Q49.6094 66.1094 42.8281 66.1094
Q29.4375 66.1094 22.7188 58.6406
Q16.0156 51.1719 16.0156 36.375
Q16.0156 21.625 22.7188 14.1562
Q29.4375 6.6875 42.8281 6.6875
Q48.0469 6.6875 52.1406 7.59375
Q56.25 8.5 59.5156 10.4062" id="BitstreamVeraSans-Roman-47"/>
     </defs>
     <g transform="translate(125.4 80.731875)scale(0.12 -0.12)">
      <use xlink:href="#BitstreamVeraSans-Roman-54"/>
      <use x="44.083984375" xlink:href="#BitstreamVeraSans-Roman-65"/>
      <use x="105.607421875" xlink:href="#BitstreamVeraSans-Roman-6c"/>
      <use x="133.390625" xlink:href="#BitstreamVeraSans-Roman-69"/>
      <use x="161.173828125" xlink:href="#BitstreamVeraSans-Roman-73"/>
      <use x="213.2734375" xlink:href="#BitstreamVeraSans-Roman-68"/>
      <use x="276.65234375" xlink:href="#BitstreamVeraSans-Roman-61"/>
      <use x="337.931640625" xlink:href="#BitstreamVeraSans-Roman-20"/>
      <use x="369.71875" xlink:href="#BitstreamVeraSans-Roman-47"/>
      <use x="447.208984375" xlink:href="#BitstreamVeraSans-Roman-65"/>
      <use x="508.732421875" xlink:href="#BitstreamVeraSans-Roman-64"/>
      <use x="572.208984375" xlink:href="#BitstreamVeraSans-Roman-6f"/>
      <use x="633.390625" xlink:href="#BitstreamVeraSans-Roman-6c"/>
      <use x="661.173828125" xlink:href="#BitstreamVeraSans-Roman-61"/>
     </g>
    </g>
   </g>
  </g>
 </g>
 <defs>
  <clipPath id="p6858f96ca6">
   <rect height="334.8" width="502.2" x="81.0" y="43.2"/>
  </clipPath>
 </defs>
</svg>
