<?xml version="1.0" encoding="utf-8" standalone="no"?>
<!DOCTYPE svg PUBLIC "-//W3C//DTD SVG 1.1//EN"
  "http://www.w3.org/Graphics/SVG/1.1/DTD/svg11.dtd">
<!-- Created with matplotlib (http://matplotlib.org/) -->
<svg height="432pt" version="1.1" viewBox="0 0 648 432" width="648pt" xmlns="http://www.w3.org/2000/svg" xmlns:xlink="http://www.w3.org/1999/xlink">
 <defs>
  <style type="text/css">
*{stroke-linecap:butt;stroke-linejoin:round;}
  </style>
 </defs>
 <g id="figure_1">
  <g id="patch_1">
   <path d="
M0 432
L648 432
L648 0
L0 0
L0 432" style="fill:none;"/>
  </g>
  <g id="axes_1">
   <g id="patch_2">
    <path d="
M81 378
L583.2 378
L583.2 43.2
L81 43.2
L81 378" style="fill:none;"/>
   </g>
   <g id="line2d_1">
    <path clip-path="url(#p6858f96ca6)" d="
M102.454 311.04
L102.969 311.04
L103.141 316.62
L103.312 311.04
L104.771 311.04
L104.943 316.62
L105.029 316.62
L105.2 311.04
L107.002 311.04
L107.174 316.62
L107.26 316.62
L107.432 311.04
L107.603 316.62
L108.376 316.62
L108.547 322.2
L108.633 322.2
L108.805 327.78
L109.92 327.78
L110.092 322.2
L110.864 322.2
L111.036 316.62
L111.551 316.62
L111.722 311.04
L112.838 311.04
L113.01 305.46
L114.297 305.46
L114.469 299.88
L114.554 299.88
L114.726 305.46
L119.961 305.46
L120.132 311.04
L121.334 311.04
L121.506 305.46
L124.509 305.46
L124.681 299.88
L124.767 299.88
L124.938 294.3
L126.397 294.3
L126.569 288.72
L126.998 288.72
L127.169 283.14
L127.255 283.14
L127.427 277.56
L128.457 277.56
L128.628 271.98
L130.602 271.98
L130.86 260.82
L132.147 260.82
L132.318 255.24
L132.49 255.24
L132.662 249.66
L132.748 249.66
L132.919 255.24
L134.206 255.24
L134.464 244.08
L135.579 244.08
L135.751 249.66
L137.21 249.66
L137.382 244.08
L137.982 244.08
L138.154 238.5
L139.956 238.5
L140.128 232.92
L142.016 232.92
L142.187 238.5
L143.303 238.5
L143.475 244.08
L146.049 244.08
L146.221 249.66
L146.392 244.08
L147.937 244.08
L148.109 249.66
L149.31 249.66
L149.482 244.08
L150.168 244.08
L150.34 249.66
L152.142 249.66
L152.314 244.08
L152.829 244.08
L153 249.66
L153.344 249.66
L153.515 244.08
L153.773 244.08
L153.944 249.66
L154.373 249.66
L154.459 244.08
L154.631 249.66
L154.802 244.08
L155.746 244.08
L155.918 249.66
L157.12 249.66
L157.205 244.08
L157.377 249.66
L158.664 249.66
L158.836 244.08
L158.922 244.08
L159.093 238.5
L164.242 238.5
L164.414 244.08
L165.959 244.08
L166.13 238.5
L167.418 238.5
L167.589 244.08
L167.675 244.08
L167.847 249.66
L168.362 249.66
L168.533 244.08
L168.791 244.08
L168.962 232.92
L169.134 232.92
L169.306 227.34
L169.477 232.92
L170.164 232.92
L170.335 238.5
L171.193 238.5
L171.365 232.92
L171.537 238.5
L171.623 238.5
L171.88 227.34
L172.738 227.34
L172.91 221.76
L173.167 221.76
L173.425 210.6
L173.596 210.6
L173.768 216.18
L174.712 216.18
L174.884 210.6
L175.055 210.6
L175.227 216.18
L175.398 216.18
L175.57 221.76
L176.857 221.76
L177.029 216.18
L177.115 216.18
L177.372 227.34
L180.118 227.34
L180.204 232.92
L180.376 227.34
L180.891 227.34
L181.062 232.92
L181.491 232.92
L181.663 227.34
L181.749 227.34
L181.921 221.76
L182.35 221.76
L182.521 216.18
L182.693 216.18
L182.865 210.6
L182.95 210.6
L183.122 205.02
L185.182 205.02
L185.353 199.44
L185.439 199.44
L185.611 193.86
L185.782 193.86
L185.954 188.28
L189.129 188.28
L189.215 193.86
L189.387 188.28
L192.219 188.28
L192.39 193.86
L193.163 193.86
L193.334 188.28
L193.506 188.28
L193.677 182.7
L195.051 182.7
L195.222 188.28
L195.737 188.28
L195.909 182.7
L196.166 182.7
L196.252 177.12
L196.338 182.7
L196.595 171.54
L197.282 171.54
L197.453 177.12
L197.539 177.12
L197.711 182.7
L197.797 182.7
L198.054 171.54
L198.741 171.54
L198.912 165.96
L200.028 165.96
L200.2 171.54
L201.573 171.54
L201.744 177.12
L201.83 177.12
L202.002 182.7
L202.688 182.7
L202.86 177.12
L206.55 177.12
L206.807 165.96
L207.065 165.96
L207.237 160.38
L207.666 160.38
L207.837 154.8
L208.095 154.8
L208.266 149.22
L208.867 149.22
L209.039 154.8
L209.725 154.8
L209.897 149.22
L211.012 149.22
L211.184 143.64
L211.27 143.64
L211.442 149.22
L211.699 149.22
L211.871 160.38
L212.042 160.38
L212.214 165.96
L212.3 165.96
L212.471 160.38
L212.557 160.38
L212.729 154.8
L212.815 154.8
L212.986 160.38
L213.158 160.38
L213.415 149.22
L214.102 149.22
L214.274 154.8
L214.531 154.8
L214.788 165.96
L214.96 165.96
L215.132 160.38
L215.647 160.38
L215.732 165.96
L215.904 160.38
L216.076 160.38
L216.333 171.54
L216.505 165.96
L216.848 165.96
L217.02 160.38
L217.277 160.38
L217.535 149.22
L217.62 149.22
L217.792 154.8
L217.878 154.8
L218.049 143.64
L219.508 143.64
L219.68 138.06
L219.766 138.06
L219.937 143.64
L221.053 143.64
L221.31 132.48
L221.825 132.48
L222.083 121.32
L222.598 121.32
L222.855 110.16
L223.113 110.16
L223.284 115.74
L223.456 115.74
L223.628 110.16
L224.4 110.16
L224.572 115.74
L224.657 115.74
L224.829 121.32
L225.258 121.32
L225.43 126.9
L225.601 126.9
L225.945 143.64
L227.661 143.64
L227.833 138.06
L228.09 138.06
L228.262 143.64
L228.347 143.64
L228.519 149.22
L228.691 149.22
L228.862 154.8
L229.12 154.8
L229.291 149.22
L230.235 149.22
L230.407 143.64
L231.952 143.64
L232.123 138.06
L232.295 143.64
L232.982 143.64
L233.153 138.06
L234.183 138.06
L234.355 132.48
L235.985 132.48
L236.071 126.9
L236.243 132.48
L236.328 132.48
L236.414 126.9
L236.586 132.48
L237.272 132.48
L237.444 126.9
L237.616 126.9
L237.787 121.32
L238.645 121.32
L238.817 126.9
L239.075 126.9
L239.332 138.06
L239.418 138.06
L239.589 143.64
L240.705 143.64
L240.963 154.8
L241.649 154.8
L241.821 160.38
L244.824 160.38
L244.996 154.8
L245.511 154.8
L245.597 149.22
L245.768 154.8
L249.458 154.8
L249.716 165.96
L249.802 165.96
L249.973 160.38
L250.145 165.96
L250.574 165.96
L250.746 171.54
L250.917 165.96
L251.003 165.96
L251.175 171.54
L251.775 171.54
L251.947 165.96
L252.634 165.96
L252.805 171.54
L253.406 171.54
L253.578 165.96
L253.921 165.96
L254.093 171.54
L254.178 171.54
L254.35 165.96
L255.208 165.96
L255.38 171.54
L255.466 171.54
L255.637 177.12
L256.066 177.12
L256.324 188.28
L257.268 188.28
L257.439 182.7
L257.868 182.7
L258.04 188.28
L259.242 188.28
L259.499 199.44
L259.585 199.44
L259.756 193.86
L259.928 199.44
L260.186 199.44
L260.443 210.6
L260.786 210.6
L260.958 221.76
L261.129 221.76
L261.301 216.18
L261.816 216.18
L261.988 210.6
L262.417 210.6
L262.588 216.18
L263.961 216.18
L264.219 227.34
L264.734 227.34
L264.991 238.5
L265.506 238.5
L265.764 249.66
L265.935 249.66
L266.107 244.08
L266.364 244.08
L266.536 249.66
L267.051 249.66
L267.222 244.08
L268.51 244.08
L268.681 238.5
L269.883 238.5
L270.054 232.92
L270.569 232.92
L270.741 238.5
L272.028 238.5
L272.2 244.08
L273.144 244.08
L273.315 249.66
L274.259 249.66
L274.431 244.08
L274.603 244.08
L274.774 238.5
L274.86 238.5
L275.032 244.08
L275.289 244.08
L275.461 238.5
L275.89 238.5
L276.062 244.08
L276.92 244.08
L277.091 238.5
L277.263 244.08
L278.894 244.08
L279.065 249.66
L279.752 249.66
L279.923 244.08
L280.181 244.08
L280.267 249.66
L280.438 244.08
L280.524 244.08
L280.696 249.66
L280.782 249.66
L280.953 244.08
L282.24 244.08
L282.412 238.5
L284.643 238.5
L284.815 232.92
L286.96 232.92
L287.132 227.34
L287.733 227.34
L287.904 232.92
L288.591 232.92
L288.763 227.34
L289.878 227.34
L290.05 221.76
L292.71 221.76
L292.882 227.34
L294.684 227.34
L294.856 232.92
L296.314 232.92
L296.486 238.5
L296.572 238.5
L296.829 227.34
L297.087 227.34
L297.258 232.92
L297.687 232.92
L297.859 227.34
L298.717 227.34
L298.889 221.76
L300.176 221.76
L300.348 227.34
L301.549 227.34
L301.721 232.92
L302.064 232.92
L302.236 227.34
L302.407 227.34
L302.493 221.76
L302.579 227.34
L302.751 221.76
L303.008 221.76
L303.18 216.18
L303.351 216.18
L303.609 205.02
L304.038 205.02
L304.21 210.6
L304.381 210.6
L304.639 199.44
L304.724 199.44
L304.896 205.02
L305.068 199.44
L307.642 199.44
L307.814 193.86
L308.157 193.86
L308.329 188.28
L308.844 188.28
L309.015 193.86
L309.959 193.86
L310.131 199.44
L311.247 199.44
L311.418 193.86
L311.59 199.44
L312.019 199.44
L312.19 193.86
L312.448 193.86
L312.705 182.7
L312.791 182.7
L312.963 188.28
L313.735 188.28
L313.907 182.7
L314.422 182.7
L314.593 177.12
L316.052 177.12
L316.224 171.54
L317.168 171.54
L317.34 177.12
L317.511 177.12
L317.683 182.7
L318.198 182.7
L318.369 188.28
L319.742 188.28
L319.828 182.7
L320 188.28
L320.515 188.28
L320.686 182.7
L321.287 182.7
L321.545 171.54
L321.888 171.54
L322.145 160.38
L322.317 165.96
L322.66 165.96
L322.832 171.54
L323.175 171.54
L323.347 177.12
L323.69 177.12
L323.862 182.7
L324.205 182.7
L324.376 177.12
L325.149 177.12
L325.32 182.7
L326.007 182.7
L326.179 177.12
L326.264 177.12
L326.436 171.54
L327.552 171.54
L327.723 177.12
L327.895 171.54
L328.324 171.54
L328.496 165.96
L328.667 165.96
L328.839 160.38
L329.869 160.38
L330.04 165.96
L330.899 165.96
L331.07 160.38
L331.328 160.38
L331.585 171.54
L332.787 171.54
L332.958 177.12
L334.417 177.12
L334.675 165.96
L336.048 165.96
L336.219 160.38
L336.562 160.38
L336.734 165.96
L337.506 165.96
L337.85 149.22
L338.107 149.22
L338.279 143.64
L338.365 143.64
L338.536 138.06
L339.48 138.06
L339.738 149.22
L340.596 149.22
L340.767 154.8
L341.626 154.8
L341.797 160.38
L342.741 160.38
L342.913 154.8
L344.973 154.8
L345.144 160.38
L345.316 160.38
L345.573 171.54
L345.917 171.54
L346.088 177.12
L346.26 177.12
L346.431 182.7
L347.29 182.7
L347.547 193.86
L347.804 193.86
L347.976 199.44
L349.778 199.44
L349.95 193.86
L350.551 193.86
L350.722 199.44
L351.066 199.44
L351.237 205.02
L351.752 205.02
L351.924 199.44
L354.155 199.44
L354.327 205.02
L354.927 205.02
L355.099 210.6
L355.185 210.6
L355.356 205.02
L355.614 216.18
L356.644 216.18
L356.815 221.76
L357.244 221.76
L357.33 216.18
L357.502 221.76
L358.961 221.76
L359.132 227.34
L359.647 227.34
L359.905 216.18
L362.651 216.18
L362.822 221.76
L363.423 221.76
L363.595 227.34
L364.367 227.34
L364.539 232.92
L364.796 232.92
L365.054 244.08
L365.912 244.08
L366.083 238.5
L367.113 238.5
L367.285 244.08
L367.457 244.08
L367.628 238.5
L368.915 238.5
L369.087 244.08
L369.173 244.08
L369.344 249.66
L370.632 249.66
L370.803 255.24
L371.232 255.24
L371.404 260.82
L371.576 260.82
L371.747 266.4
L373.12 266.4
L373.292 260.82
L373.807 260.82
L373.979 266.4
L377.325 266.4
L377.497 271.98
L378.956 271.98
L379.128 277.56
L379.471 277.56
L379.643 271.98
L380.415 271.98
L380.758 288.72
L381.016 288.72
L381.187 294.3
L381.273 294.3
L381.359 299.88
L381.53 294.3
L382.045 294.3
L382.217 288.72
L385.478 288.72
L385.65 277.56
L385.821 283.14
L386.079 283.14
L386.336 271.98
L386.508 271.98
L386.679 266.4
L386.765 266.4
L386.937 260.82
L387.28 260.82
L387.452 255.24
L389.34 255.24
L389.597 244.08
L391.056 244.08
L391.228 238.5
L391.399 238.5
L391.657 227.34
L391.914 227.34
L392.172 216.18
L392.429 216.18
L392.687 205.02
L392.858 210.6
L392.944 210.6
L393.202 199.44
L393.459 199.44
L393.716 188.28
L393.974 188.28
L394.231 177.12
L394.489 177.12
L394.66 171.54
L395.004 171.54
L395.261 160.38
L395.519 160.38
L395.776 149.22
L396.034 149.22
L396.291 138.06
L396.548 138.06
L396.806 126.9
L397.063 126.9
L397.235 121.32
L397.492 121.32
L397.75 110.16
L398.093 110.16
L398.265 115.74
L399.209 115.74
L399.38 110.16
L400.153 110.16
L400.324 115.74
L402.556 115.74
L402.641 121.32
L402.727 115.74
L402.899 121.32
L404.272 121.32
L404.444 115.74
L406.246 115.74
L406.589 99
L406.675 99
L406.846 93.42
L407.018 93.42
L407.104 87.84
L407.276 93.42
L407.533 93.42
L407.705 87.84
L408.82 87.84
L408.992 93.42
L410.365 93.42
L410.537 99
L411.137 99
L411.309 93.42
L412.854 93.42
L413.025 87.84
L413.283 87.84
L413.454 82.26
L414.999 82.26
L415.256 71.1
L416.029 71.1
L416.2 76.68
L418.003 76.68
L418.174 71.1
L419.29 71.1
L419.462 65.52
L419.719 65.52
L419.976 54.36
L420.406 54.36
L420.577 59.94
L421.864 59.94
L422.036 54.36
L422.379 54.36
L422.551 59.94
L424.267 59.94
L424.439 65.52
L424.954 65.52
L425.125 71.1
L425.555 71.1
L425.726 65.52
L425.812 65.52
L425.984 59.94
L426.498 59.94
L426.67 54.36
L427.099 54.36
L427.271 48.78
L428.386 48.78
L428.644 59.94
L428.987 59.94
L429.159 65.52
L429.416 65.52
L429.588 71.1
L429.674 71.1
L429.845 76.68
L430.189 76.68
L430.36 82.26
L430.532 82.26
L430.704 76.68
L432.162 76.68
L432.42 93.42
L432.591 87.84
L433.106 87.84
L433.278 82.26
L434.308 82.26
L434.565 93.42
L434.823 93.42
L435.08 104.58
L435.338 104.58
L435.595 115.74
L435.853 115.74
L436.11 126.9
L436.367 126.9
L436.625 138.06
L436.711 138.06
L436.882 132.48
L437.054 132.48
L437.226 138.06
L437.397 138.06
L437.655 149.22
L437.826 143.64
L437.912 143.64
L438.17 154.8
L438.427 154.8
L438.684 165.96
L438.77 165.96
L438.942 160.38
L439.199 171.54
L439.457 171.54
L439.714 182.7
L439.972 182.7
L440.143 188.28
L440.401 188.28
L440.658 199.44
L442.117 199.44
L442.203 205.02
L442.375 199.44
L445.55 199.44
L445.721 205.02
L445.893 205.02
L446.065 199.44
L446.151 199.44
L446.322 193.86
L446.58 193.86
L446.751 188.28
L447.095 188.28
L447.18 182.7
L447.352 188.28
L447.867 188.28
L448.039 182.7
L448.124 182.7
L448.296 177.12
L448.639 177.12
L448.811 171.54
L449.154 171.54
L449.497 188.28
L449.583 188.28
L449.755 193.86
L449.926 188.28
L450.098 193.86
L450.441 193.86
L450.613 199.44
L450.699 199.44
L450.87 193.86
L451.042 193.86
L451.214 188.28
L451.385 188.28
L451.557 182.7
L454.046 182.7
L454.217 188.28
L455.762 188.28
L455.934 193.86
L456.191 193.86
L456.363 199.44
L457.907 199.44
L458.165 210.6
L458.937 210.6
L459.109 205.02
L459.195 205.02
L459.366 199.44
L459.538 199.44
L459.795 188.28
L460.911 188.28
L461.083 193.86
L462.198 193.86
L462.37 199.44
L462.627 199.44
L462.885 210.6
L464.773 210.6
L464.944 216.18
L468.463 216.18
L468.635 221.76
L468.72 221.76
L468.892 227.34
L469.407 227.34
L469.579 232.92
L470.008 232.92
L470.179 238.5
L472.067 238.5
L472.239 244.08
L472.84 244.08
L473.011 238.5
L473.44 238.5
L473.612 244.08
L475.328 244.08
L475.5 249.66
L475.586 249.66
L475.757 244.08
L476.015 244.08
L476.186 249.66
L476.873 249.66
L477.045 255.24
L477.56 255.24
L477.731 249.66
L478.589 249.66
L478.847 238.5
L479.018 238.5
L479.19 232.92
L479.619 232.92
L479.877 244.08
L480.048 244.08
L480.22 238.5
L480.563 238.5
L480.735 244.08
L481.335 244.08
L481.507 238.5
L481.679 238.5
L481.85 244.08
L482.966 244.08
L483.138 238.5
L483.738 238.5
L483.91 232.92
L484.425 232.92
L484.596 227.34
L485.111 227.34
L485.283 232.92
L485.455 232.92
L485.626 227.34
L487.514 227.34
L487.686 221.76
L488.201 221.76
L488.458 210.6
L488.802 210.6
L488.973 216.18
L489.059 216.18
L489.231 221.76
L489.488 221.76
L489.574 227.34
L489.745 221.76
L489.917 221.76
L490.003 216.18
L490.175 221.76
L490.775 221.76
L490.947 227.34
L491.033 227.34
L491.204 232.92
L491.29 232.92
L491.462 227.34
L491.548 227.34
L491.719 232.92
L491.977 232.92
L492.148 227.34
L492.406 227.34
L492.577 221.76
L492.663 221.76
L492.835 227.34
L493.35 227.34
L493.521 221.76
L493.607 221.76
L493.779 227.34
L493.951 227.34
L494.036 232.92
L494.208 227.34
L494.294 227.34
L494.38 232.92
L494.551 227.34
L495.924 227.34
L496.096 221.76
L496.268 221.76
L496.439 216.18
L497.04 216.18
L497.212 210.6
L500.73 210.6
L500.902 205.02
L501.846 205.02
L502.017 210.6
L502.103 210.6
L502.275 216.18
L502.446 216.18
L502.532 221.76
L502.618 216.18
L502.79 221.76
L503.991 221.76
L504.163 216.18
L504.42 216.18
L504.678 205.02
L506.737 205.02
L506.909 199.44
L507.08 199.44
L507.252 193.86
L509.398 193.86
L509.569 188.28
L510.17 188.28
L510.427 177.12
L510.856 177.12
L511.2 160.38
L513.431 160.38
L513.603 154.8
L515.576 154.8
L515.748 149.22
L515.92 154.8
L516.263 154.8
L516.435 149.22
L516.864 149.22
L517.035 143.64
L518.494 143.64
L518.666 149.22
L519.009 149.22
L519.181 143.64
L520.468 143.64
L520.64 149.22
L521.326 149.22
L521.498 143.64
L521.755 154.8
L521.927 154.8
L522.098 160.38
L522.957 160.38
L523.128 165.96
L523.815 165.96
L524.158 149.22
L524.244 149.22
L524.33 154.8
L524.501 149.22
L525.789 149.22
L525.874 143.64
L526.046 149.22
L526.218 143.64
L526.647 143.64
L526.818 149.22
L527.333 149.22
L527.505 154.8
L527.677 149.22
L528.363 149.22
L528.535 154.8
L529.307 154.8
L529.479 149.22
L530.423 149.22
L530.594 154.8
L531.195 154.8
L531.367 160.38
L532.482 160.38
L532.654 165.96
L532.826 165.96
L532.997 171.54
L534.027 171.54
L534.199 165.96
L534.37 171.54
L534.885 171.54
L535.057 177.12
L535.314 177.12
L535.486 182.7
L536.258 182.7
L536.43 188.28
L536.601 182.7
L536.945 182.7
L537.116 188.28
L537.288 188.28
L537.46 193.86
L538.833 193.86
L539.004 199.44
L539.09 199.44
L539.176 193.86
L539.262 199.44
L539.433 193.86
L539.948 193.86
L540.12 199.44
L543.295 199.44
L543.467 193.86
L543.638 193.86
L543.81 199.44
L543.982 193.86
L545.441 193.86
L545.526 199.44
L545.698 193.86
L546.556 193.86
L546.728 188.28
L546.899 188.28
L546.985 193.86
L547.157 188.28
L547.329 188.28
L547.586 199.44
L548.702 199.44
L548.873 193.86
L548.959 193.86
L549.131 188.28
L549.646 188.28
L549.817 193.86
L549.989 193.86
L550.161 199.44
L550.847 199.44
L551.019 193.86
L551.105 193.86
L551.276 188.28
L551.963 188.28
L552.134 182.7
L552.306 182.7
L552.392 188.28
L552.563 182.7
L552.992 182.7
L553.078 177.12
L553.164 182.7
L553.25 177.12
L553.422 182.7
L553.765 182.7
L554.108 199.44
L556.339 199.44
L556.511 205.02
L558.485 205.02
L558.656 210.6
L558.828 210.6
L559 205.02
L559.171 205.02
L559.343 210.6
L559.772 210.6
L559.944 216.18
L561.832 216.18
L561.832 216.18" style="fill:none;stroke:#0000ff;stroke-linecap:square;"/>
   </g>
   <g id="line2d_2">
    <path clip-path="url(#p6858f96ca6)" d="
M102.454 305.46
L102.969 305.46
L103.141 311.04
L103.312 305.46
L104.771 305.46
L104.943 311.04
L105.029 311.04
L105.2 305.46
L107.002 305.46
L107.174 311.04
L107.26 311.04
L107.432 305.46
L107.603 311.04
L108.376 311.04
L108.547 316.62
L108.633 316.62
L108.805 322.2
L109.92 322.2
L110.092 316.62
L110.864 316.62
L111.036 311.04
L111.551 311.04
L111.722 305.46
L112.838 305.46
L113.01 299.88
L114.297 299.88
L114.469 294.3
L114.554 294.3
L114.726 299.88
L119.961 299.88
L120.132 305.46
L121.334 305.46
L121.506 299.88
L124.509 299.88
L124.681 294.3
L124.767 294.3
L124.938 288.72
L126.397 288.72
L126.569 283.14
L126.998 283.14
L127.169 277.56
L127.255 277.56
L127.427 271.98
L128.457 271.98
L128.628 266.4
L130.602 266.4
L130.86 255.24
L132.147 255.24
L132.318 249.66
L132.49 249.66
L132.662 244.08
L132.748 244.08
L132.919 249.66
L134.206 249.66
L134.464 238.5
L135.579 238.5
L135.751 244.08
L137.21 244.08
L137.382 238.5
L137.982 238.5
L138.154 232.92
L138.24 232.92
L138.411 238.5
L139.956 238.5
L140.128 232.92
L142.016 232.92
L142.187 238.5
L143.303 238.5
L143.475 244.08
L146.049 244.08
L146.221 249.66
L146.392 244.08
L147.937 244.08
L148.109 249.66
L149.31 249.66
L149.482 244.08
L150.168 244.08
L150.34 249.66
L152.142 249.66
L152.314 244.08
L152.829 244.08
L153 249.66
L153.344 249.66
L153.515 244.08
L153.773 244.08
L153.944 249.66
L154.373 249.66
L154.459 244.08
L154.631 249.66
L154.802 244.08
L155.746 244.08
L155.918 249.66
L157.12 249.66
L157.205 244.08
L157.377 249.66
L158.664 249.66
L158.836 244.08
L158.922 244.08
L159.093 238.5
L164.242 238.5
L164.414 244.08
L165.959 244.08
L166.13 238.5
L167.418 238.5
L167.589 244.08
L167.675 244.08
L167.847 249.66
L168.362 249.66
L168.533 244.08
L168.791 244.08
L168.962 238.5
L169.134 238.5
L169.306 232.92
L169.477 238.5
L170.164 238.5
L170.335 244.08
L171.193 244.08
L171.365 238.5
L171.537 244.08
L171.623 244.08
L171.88 232.92
L172.738 232.92
L172.91 227.34
L173.167 227.34
L173.425 216.18
L173.596 216.18
L173.768 221.76
L174.712 221.76
L174.884 216.18
L175.055 216.18
L175.227 221.76
L175.398 221.76
L175.57 227.34
L176.857 227.34
L177.029 221.76
L177.115 221.76
L177.372 232.92
L180.118 232.92
L180.204 238.5
L180.376 232.92
L180.891 232.92
L181.062 238.5
L181.491 238.5
L181.663 232.92
L181.749 232.92
L181.921 227.34
L182.35 227.34
L182.521 221.76
L182.693 221.76
L182.865 216.18
L182.95 216.18
L183.122 210.6
L183.894 210.6
L184.066 205.02
L185.182 205.02
L185.353 199.44
L185.439 199.44
L185.611 193.86
L185.782 193.86
L185.954 188.28
L189.129 188.28
L189.215 193.86
L189.387 188.28
L192.219 188.28
L192.39 193.86
L193.163 193.86
L193.334 188.28
L193.506 188.28
L193.677 182.7
L195.051 182.7
L195.222 188.28
L195.737 188.28
L195.909 182.7
L196.166 182.7
L196.252 177.12
L196.338 182.7
L196.595 171.54
L197.282 171.54
L197.453 177.12
L197.539 177.12
L197.711 182.7
L197.797 182.7
L198.054 171.54
L198.741 171.54
L198.912 165.96
L200.028 165.96
L200.2 171.54
L201.573 171.54
L201.744 177.12
L201.83 177.12
L202.002 182.7
L202.088 182.7
L202.259 177.12
L202.688 177.12
L202.86 171.54
L206.55 171.54
L206.807 160.38
L207.065 160.38
L207.237 154.8
L207.666 154.8
L207.837 149.22
L208.095 149.22
L208.266 143.64
L208.867 143.64
L209.039 149.22
L209.725 149.22
L209.897 143.64
L211.012 143.64
L211.184 138.06
L211.27 138.06
L211.442 143.64
L211.699 143.64
L211.871 149.22
L212.042 149.22
L212.214 154.8
L212.3 154.8
L212.471 149.22
L212.557 149.22
L212.729 143.64
L212.815 143.64
L212.986 149.22
L213.158 149.22
L213.415 138.06
L214.102 138.06
L214.274 143.64
L214.531 143.64
L214.788 154.8
L214.96 154.8
L215.132 149.22
L215.647 149.22
L215.732 154.8
L215.904 149.22
L216.076 149.22
L216.333 160.38
L216.505 154.8
L216.848 154.8
L217.02 149.22
L217.277 149.22
L217.535 138.06
L217.62 138.06
L217.792 143.64
L217.878 143.64
L218.049 138.06
L219.508 138.06
L219.68 132.48
L219.766 132.48
L219.937 138.06
L221.053 138.06
L221.31 126.9
L221.825 126.9
L222.083 115.74
L222.598 115.74
L222.855 104.58
L223.113 104.58
L223.284 110.16
L223.456 110.16
L223.628 104.58
L224.4 104.58
L224.572 110.16
L224.657 110.16
L224.829 115.74
L225.258 115.74
L225.43 121.32
L225.601 121.32
L225.945 138.06
L226.803 138.06
L226.974 143.64
L227.661 143.64
L227.833 138.06
L228.09 138.06
L228.262 143.64
L228.347 143.64
L228.519 149.22
L228.691 149.22
L228.862 154.8
L229.12 154.8
L229.291 149.22
L230.235 149.22
L230.407 143.64
L231.952 143.64
L232.123 138.06
L232.295 143.64
L232.982 143.64
L233.153 138.06
L234.183 138.06
L234.355 132.48
L235.985 132.48
L236.071 126.9
L236.243 132.48
L236.328 132.48
L236.414 126.9
L236.586 132.48
L237.272 132.48
L237.444 126.9
L237.616 126.9
L237.787 121.32
L238.645 121.32
L238.817 126.9
L239.075 126.9
L239.332 138.06
L239.418 138.06
L239.589 143.64
L240.705 143.64
L240.963 154.8
L241.649 154.8
L241.821 160.38
L244.824 160.38
L244.996 154.8
L245.168 160.38
L245.511 160.38
L245.597 154.8
L245.768 160.38
L249.458 160.38
L249.716 171.54
L249.802 171.54
L249.973 165.96
L250.145 171.54
L250.574 171.54
L250.746 177.12
L250.917 171.54
L251.003 171.54
L251.175 177.12
L251.775 177.12
L251.947 171.54
L252.634 171.54
L252.805 177.12
L253.406 177.12
L253.578 171.54
L253.921 171.54
L254.093 177.12
L254.178 177.12
L254.35 171.54
L255.208 171.54
L255.38 177.12
L255.466 177.12
L255.637 182.7
L256.066 182.7
L256.324 193.86
L257.268 193.86
L257.439 188.28
L257.868 188.28
L258.04 193.86
L259.242 193.86
L259.499 205.02
L259.585 205.02
L259.756 199.44
L259.928 205.02
L260.186 205.02
L260.443 216.18
L260.786 216.18
L260.958 221.76
L261.129 221.76
L261.301 216.18
L261.816 216.18
L261.988 210.6
L262.417 210.6
L262.588 216.18
L263.961 216.18
L264.219 227.34
L264.734 227.34
L264.991 238.5
L265.163 232.92
L265.506 232.92
L265.764 244.08
L265.935 244.08
L266.107 238.5
L266.364 238.5
L266.536 244.08
L267.051 244.08
L267.222 238.5
L268.51 238.5
L268.681 232.92
L269.883 232.92
L270.054 227.34
L270.569 227.34
L270.741 232.92
L272.028 232.92
L272.2 238.5
L273.144 238.5
L273.315 244.08
L274.259 244.08
L274.431 238.5
L274.603 238.5
L274.774 232.92
L274.86 232.92
L275.032 238.5
L275.289 238.5
L275.461 232.92
L275.89 232.92
L276.062 238.5
L276.92 238.5
L277.091 232.92
L277.263 238.5
L278.894 238.5
L279.065 244.08
L279.752 244.08
L280.009 232.92
L280.181 232.92
L280.267 238.5
L280.438 232.92
L280.524 232.92
L280.696 238.5
L280.782 238.5
L280.953 232.92
L282.24 232.92
L282.412 227.34
L284.643 227.34
L284.815 221.76
L286.96 221.76
L287.132 216.18
L287.733 216.18
L287.904 221.76
L288.591 221.76
L288.763 216.18
L289.878 216.18
L290.05 210.6
L292.71 210.6
L292.882 216.18
L294.684 216.18
L294.856 221.76
L296.314 221.76
L296.486 227.34
L296.572 227.34
L296.829 216.18
L297.087 216.18
L297.258 221.76
L297.687 221.76
L297.859 216.18
L298.717 216.18
L298.889 210.6
L299.575 210.6
L299.747 205.02
L300.176 205.02
L300.348 210.6
L301.549 210.6
L301.721 216.18
L302.064 216.18
L302.236 210.6
L302.407 210.6
L302.493 205.02
L302.579 210.6
L302.751 205.02
L303.008 205.02
L303.18 199.44
L303.351 199.44
L303.609 188.28
L304.038 188.28
L304.21 193.86
L304.381 193.86
L304.639 182.7
L304.724 182.7
L304.896 188.28
L305.068 182.7
L307.642 182.7
L307.814 177.12
L307.9 177.12
L308.071 182.7
L308.157 182.7
L308.329 177.12
L308.844 177.12
L309.015 182.7
L309.959 182.7
L310.131 188.28
L311.247 188.28
L311.418 182.7
L311.59 188.28
L312.019 188.28
L312.19 182.7
L312.448 182.7
L312.705 171.54
L312.791 171.54
L312.963 177.12
L313.735 177.12
L313.907 171.54
L314.422 171.54
L314.593 165.96
L316.052 165.96
L316.224 160.38
L317.168 160.38
L317.34 165.96
L317.511 165.96
L317.683 171.54
L318.198 171.54
L318.369 177.12
L319.742 177.12
L319.828 171.54
L320 177.12
L320.515 177.12
L320.686 171.54
L321.287 171.54
L321.545 160.38
L321.888 160.38
L322.145 149.22
L322.317 154.8
L322.66 154.8
L322.918 165.96
L323.175 165.96
L323.347 171.54
L323.69 171.54
L323.862 177.12
L324.205 177.12
L324.376 171.54
L325.149 171.54
L325.32 177.12
L326.007 177.12
L326.179 171.54
L326.264 171.54
L326.436 165.96
L327.552 165.96
L327.723 171.54
L327.895 165.96
L328.324 165.96
L328.496 160.38
L328.667 160.38
L328.839 154.8
L329.869 154.8
L330.04 160.38
L330.899 160.38
L331.07 154.8
L331.328 154.8
L331.585 165.96
L332.787 165.96
L332.958 171.54
L334.417 171.54
L334.675 160.38
L336.048 160.38
L336.219 154.8
L336.562 154.8
L336.734 160.38
L337.506 160.38
L337.764 149.22
L338.107 149.22
L338.279 143.64
L338.365 143.64
L338.536 138.06
L339.48 138.06
L339.738 149.22
L340.596 149.22
L340.767 154.8
L341.626 154.8
L341.797 160.38
L342.484 160.38
L342.655 165.96
L342.741 165.96
L342.913 160.38
L344.458 160.38
L344.629 154.8
L344.973 154.8
L345.144 160.38
L345.316 160.38
L345.573 171.54
L345.917 171.54
L346.088 177.12
L346.26 177.12
L346.431 182.7
L347.29 182.7
L347.547 193.86
L347.804 193.86
L347.976 199.44
L349.778 199.44
L349.95 193.86
L350.551 193.86
L350.722 199.44
L351.066 199.44
L351.237 205.02
L351.752 205.02
L351.924 199.44
L354.155 199.44
L354.327 205.02
L354.927 205.02
L355.099 210.6
L355.185 210.6
L355.356 205.02
L355.614 216.18
L356.644 216.18
L356.815 221.76
L357.244 221.76
L357.33 216.18
L357.502 221.76
L358.961 221.76
L359.132 227.34
L359.647 227.34
L359.905 216.18
L362.651 216.18
L362.822 221.76
L363.423 221.76
L363.595 227.34
L364.367 227.34
L364.539 232.92
L364.796 232.92
L365.054 244.08
L365.912 244.08
L366.083 238.5
L367.113 238.5
L367.285 244.08
L367.457 244.08
L367.628 238.5
L368.915 238.5
L369.087 244.08
L369.173 244.08
L369.344 249.66
L370.632 249.66
L370.803 255.24
L371.232 255.24
L371.404 260.82
L371.576 260.82
L371.747 266.4
L373.12 266.4
L373.292 260.82
L373.807 260.82
L373.979 266.4
L377.325 266.4
L377.497 271.98
L378.956 271.98
L379.128 277.56
L379.471 277.56
L379.643 271.98
L380.415 271.98
L380.672 283.14
L381.016 283.14
L381.187 288.72
L381.273 288.72
L381.359 294.3
L381.53 288.72
L382.045 288.72
L382.217 283.14
L385.478 283.14
L385.65 271.98
L385.821 277.56
L386.079 277.56
L386.336 266.4
L386.508 266.4
L386.679 260.82
L386.765 260.82
L386.937 255.24
L387.28 255.24
L387.366 249.66
L387.538 255.24
L389.34 255.24
L389.597 244.08
L391.056 244.08
L391.228 238.5
L391.399 238.5
L391.657 227.34
L391.914 227.34
L392.172 216.18
L392.429 216.18
L392.687 205.02
L392.858 210.6
L392.944 210.6
L393.202 199.44
L393.459 199.44
L393.716 188.28
L393.974 188.28
L394.231 177.12
L394.489 177.12
L394.66 171.54
L395.004 171.54
L395.261 160.38
L395.519 160.38
L395.776 149.22
L396.034 149.22
L396.291 138.06
L396.548 138.06
L396.806 126.9
L397.063 126.9
L397.235 121.32
L397.492 121.32
L397.75 110.16
L398.093 110.16
L398.265 115.74
L399.209 115.74
L399.38 110.16
L400.153 110.16
L400.324 115.74
L402.556 115.74
L402.641 121.32
L402.727 115.74
L402.899 121.32
L404.272 121.32
L404.444 115.74
L406.246 115.74
L406.589 99
L406.675 99
L406.846 93.42
L407.018 93.42
L407.104 87.84
L407.276 93.42
L407.533 93.42
L407.705 87.84
L408.82 87.84
L408.992 93.42
L410.365 93.42
L410.537 99
L411.137 99
L411.309 93.42
L412.854 93.42
L413.025 87.84
L413.283 87.84
L413.454 82.26
L414.999 82.26
L415.256 71.1
L416.029 71.1
L416.2 76.68
L418.003 76.68
L418.174 71.1
L419.29 71.1
L419.462 65.52
L419.719 65.52
L419.976 54.36
L420.406 54.36
L420.577 59.94
L421.864 59.94
L422.036 54.36
L422.379 54.36
L422.551 59.94
L424.267 59.94
L424.439 65.52
L424.954 65.52
L425.125 71.1
L425.555 71.1
L425.726 65.52
L425.812 65.52
L425.984 59.94
L426.498 59.94
L426.67 54.36
L427.099 54.36
L427.271 48.78
L428.386 48.78
L428.644 59.94
L428.987 59.94
L429.159 65.52
L429.416 65.52
L429.588 71.1
L429.674 71.1
L429.845 76.68
L430.189 76.68
L430.36 82.26
L430.532 82.26
L430.704 76.68
L431.133 76.68
L431.304 71.1
L432.162 71.1
L432.42 87.84
L432.591 82.26
L433.106 82.26
L433.278 76.68
L434.308 76.68
L434.565 87.84
L434.823 87.84
L435.08 99
L435.338 99
L435.595 110.16
L435.853 110.16
L436.11 121.32
L436.367 121.32
L436.625 132.48
L436.711 132.48
L436.882 126.9
L437.054 126.9
L437.226 132.48
L437.397 132.48
L437.655 143.64
L437.826 138.06
L437.912 138.06
L438.17 149.22
L438.427 149.22
L438.684 160.38
L438.77 160.38
L438.942 154.8
L439.199 165.96
L439.457 165.96
L439.714 177.12
L439.972 177.12
L440.143 182.7
L440.401 182.7
L440.658 193.86
L442.117 193.86
L442.203 199.44
L442.375 193.86
L445.55 193.86
L445.721 199.44
L445.893 199.44
L446.065 193.86
L446.151 193.86
L446.322 188.28
L446.58 188.28
L446.751 182.7
L447.095 182.7
L447.18 177.12
L447.352 182.7
L447.867 182.7
L448.039 177.12
L448.124 177.12
L448.296 171.54
L448.639 171.54
L448.811 165.96
L449.154 165.96
L449.497 182.7
L449.583 182.7
L449.755 188.28
L449.926 182.7
L450.098 188.28
L450.441 188.28
L450.613 193.86
L450.699 193.86
L450.87 188.28
L451.042 188.28
L451.214 182.7
L451.385 182.7
L451.557 177.12
L454.046 177.12
L454.217 182.7
L455.762 182.7
L455.934 188.28
L456.191 188.28
L456.363 193.86
L457.907 193.86
L458.165 205.02
L458.937 205.02
L459.109 199.44
L459.195 199.44
L459.366 193.86
L459.538 193.86
L459.795 182.7
L460.911 182.7
L461.083 188.28
L462.198 188.28
L462.37 193.86
L462.627 193.86
L462.885 205.02
L464.773 205.02
L464.944 210.6
L468.463 210.6
L468.635 216.18
L468.72 216.18
L468.892 221.76
L469.407 221.76
L469.579 227.34
L470.008 227.34
L470.179 232.92
L472.067 232.92
L472.239 238.5
L472.84 238.5
L473.011 232.92
L473.44 232.92
L473.612 238.5
L474.041 238.5
L474.213 244.08
L475.328 244.08
L475.5 249.66
L475.586 249.66
L475.757 244.08
L476.015 244.08
L476.186 249.66
L476.873 249.66
L477.045 255.24
L477.56 255.24
L477.731 249.66
L478.589 249.66
L478.847 238.5
L479.018 238.5
L479.19 232.92
L479.619 232.92
L479.877 244.08
L480.048 244.08
L480.22 238.5
L480.563 238.5
L480.735 244.08
L481.335 244.08
L481.507 238.5
L481.679 238.5
L481.85 244.08
L482.966 244.08
L483.138 238.5
L483.738 238.5
L483.91 232.92
L484.425 232.92
L484.596 227.34
L485.111 227.34
L485.283 232.92
L485.455 232.92
L485.626 227.34
L487.514 227.34
L487.686 221.76
L488.201 221.76
L488.458 210.6
L488.802 210.6
L488.973 216.18
L489.059 216.18
L489.231 221.76
L489.488 221.76
L489.574 227.34
L489.745 221.76
L489.917 221.76
L490.003 216.18
L490.175 221.76
L490.775 221.76
L490.947 227.34
L491.033 227.34
L491.204 232.92
L491.29 232.92
L491.462 227.34
L491.548 227.34
L491.719 232.92
L491.977 232.92
L492.148 227.34
L492.406 227.34
L492.577 221.76
L492.663 221.76
L492.835 227.34
L493.35 227.34
L493.521 221.76
L493.607 221.76
L493.779 227.34
L493.951 227.34
L494.036 232.92
L494.208 227.34
L494.294 227.34
L494.38 232.92
L494.551 227.34
L495.924 227.34
L496.096 221.76
L496.268 221.76
L496.439 216.18
L497.04 216.18
L497.212 210.6
L500.73 210.6
L500.902 205.02
L501.846 205.02
L502.017 210.6
L502.103 210.6
L502.275 216.18
L502.446 216.18
L502.532 221.76
L502.618 216.18
L502.79 221.76
L503.991 221.76
L504.163 216.18
L504.42 216.18
L504.678 205.02
L506.737 205.02
L506.909 199.44
L507.08 199.44
L507.252 193.86
L509.398 193.86
L509.569 188.28
L510.17 188.28
L510.427 177.12
L510.856 177.12
L511.2 160.38
L513.431 160.38
L513.603 154.8
L515.576 154.8
L515.748 143.64
L515.92 149.22
L516.263 149.22
L516.435 143.64
L516.864 143.64
L517.035 138.06
L518.494 138.06
L518.666 143.64
L519.009 143.64
L519.181 138.06
L520.468 138.06
L520.64 143.64
L521.326 143.64
L521.498 138.06
L521.755 149.22
L521.927 149.22
L522.098 154.8
L522.957 154.8
L523.128 160.38
L523.815 160.38
L524.158 143.64
L524.244 143.64
L524.33 149.22
L524.501 143.64
L525.789 143.64
L525.874 138.06
L526.046 143.64
L526.218 138.06
L526.647 138.06
L526.818 143.64
L527.333 143.64
L527.505 149.22
L527.677 143.64
L528.363 143.64
L528.535 149.22
L529.307 149.22
L529.479 143.64
L530.423 143.64
L530.594 149.22
L531.195 149.22
L531.367 154.8
L532.482 154.8
L532.654 160.38
L532.826 160.38
L532.997 165.96
L534.027 165.96
L534.199 160.38
L534.37 165.96
L534.885 165.96
L535.057 171.54
L535.314 171.54
L535.486 177.12
L536.258 177.12
L536.43 182.7
L536.601 177.12
L536.945 177.12
L537.116 182.7
L537.288 182.7
L537.46 188.28
L538.833 188.28
L539.004 193.86
L539.09 193.86
L539.176 188.28
L539.262 193.86
L539.433 188.28
L539.948 188.28
L540.12 193.86
L543.295 193.86
L543.467 188.28
L543.638 188.28
L543.81 193.86
L543.982 188.28
L545.441 188.28
L545.526 193.86
L545.698 188.28
L546.556 188.28
L546.728 182.7
L546.899 182.7
L546.985 188.28
L547.157 182.7
L547.329 182.7
L547.586 193.86
L548.702 193.86
L548.873 188.28
L548.959 188.28
L549.131 182.7
L549.646 182.7
L549.817 188.28
L549.989 188.28
L550.161 193.86
L550.847 193.86
L551.019 188.28
L551.105 188.28
L551.276 182.7
L551.791 182.7
L552.048 171.54
L552.306 171.54
L552.392 177.12
L552.563 171.54
L552.992 171.54
L553.078 165.96
L553.164 171.54
L553.25 165.96
L553.422 171.54
L553.765 171.54
L554.108 188.28
L556.339 188.28
L556.511 193.86
L558.485 193.86
L558.742 205.02
L558.828 205.02
L559 199.44
L559.171 199.44
L559.343 205.02
L559.772 205.02
L559.944 210.6
L561.832 210.6
L561.832 210.6" style="fill:none;stroke:#008000;stroke-linecap:square;"/>
   </g>
   <g id="patch_3">
    <path d="
M81 43.2
L583.2 43.2" style="fill:none;stroke:#000000;stroke-linecap:square;stroke-linejoin:miter;"/>
   </g>
   <g id="patch_4">
    <path d="
M583.2 378
L583.2 43.2" style="fill:none;stroke:#000000;stroke-linecap:square;stroke-linejoin:miter;"/>
   </g>
   <g id="patch_5">
    <path d="
M81 378
L583.2 378" style="fill:none;stroke:#000000;stroke-linecap:square;stroke-linejoin:miter;"/>
   </g>
   <g id="patch_6">
    <path d="
M81 378
L81 43.2" style="fill:none;stroke:#000000;stroke-linecap:square;stroke-linejoin:miter;"/>
   </g>
   <g id="matplotlib.axis_1">
    <g id="xtick_1">
     <g id="line2d_3">
      <path clip-path="url(#p6858f96ca6)" d="
M81 378
L81 43.2" style="fill:none;stroke:#000000;stroke-dasharray:1.000000,3.000000;stroke-dashoffset:0.0;stroke-width:0.5;"/>
     </g>
     <g id="line2d_4">
      <defs>
       <path d="
M0 0
L0 -4" id="m93b0483c22" style="stroke:#000000;stroke-width:0.5;"/>
      </defs>
      <g>
       <use style="stroke:#000000;stroke-width:0.5;" x="81.0" xlink:href="#m93b0483c22" y="378.0"/>
      </g>
     </g>
     <g id="line2d_5">
      <defs>
       <path d="
M0 0
L0 4" id="m741efc42ff" style="stroke:#000000;stroke-width:0.5;"/>
      </defs>
      <g>
       <use style="stroke:#000000;stroke-width:0.5;" x="81.0" xlink:href="#m741efc42ff" y="43.2"/>
      </g>
     </g>
     <g id="text_1">
      <!-- Bereshit -->
      <defs>
       <path d="
M9.42188 54.6875
L18.4062 54.6875
L18.4062 0
L9.42188 0
z

M9.42188 75.9844
L18.4062 75.9844
L18.4062 64.5938
L9.42188 64.5938
z
" id="BitstreamVeraSans-Roman-69"/>
       <path d="
M54.8906 33.0156
L54.8906 0
L45.9062 0
L45.9062 32.7188
Q45.9062 40.4844 42.875 44.3281
Q39.8438 48.1875 33.7969 48.1875
Q26.5156 48.1875 22.3125 43.5469
Q18.1094 38.9219 18.1094 30.9062
L18.1094 0
L9.07812 0
L9.07812 75.9844
L18.1094 75.9844
L18.1094 46.1875
Q21.3438 51.125 25.7031 53.5625
Q30.0781 56 35.7969 56
Q45.2188 56 50.0469 50.1719
Q54.8906 44.3438 54.8906 33.0156" id="BitstreamVeraSans-Roman-68"/>
       <path d="
M56.2031 29.5938
L56.2031 25.2031
L14.8906 25.2031
Q15.4844 15.9219 20.4844 11.0625
Q25.4844 6.20312 34.4219 6.20312
Q39.5938 6.20312 44.4531 7.46875
Q49.3125 8.73438 54.1094 11.2812
L54.1094 2.78125
Q49.2656 0.734375 44.1875 -0.34375
Q39.1094 -1.42188 33.8906 -1.42188
Q20.7969 -1.42188 13.1562 6.1875
Q5.51562 13.8125 5.51562 26.8125
Q5.51562 40.2344 12.7656 48.1094
Q20.0156 56 32.3281 56
Q43.3594 56 49.7812 48.8906
Q56.2031 41.7969 56.2031 29.5938
M47.2188 32.2344
Q47.125 39.5938 43.0938 43.9844
Q39.0625 48.3906 32.4219 48.3906
Q24.9062 48.3906 20.3906 44.1406
Q15.875 39.8906 15.1875 32.1719
z
" id="BitstreamVeraSans-Roman-65"/>
       <path d="
M18.3125 70.2188
L18.3125 54.6875
L36.8125 54.6875
L36.8125 47.7031
L18.3125 47.7031
L18.3125 18.0156
Q18.3125 11.3281 20.1406 9.42188
Q21.9688 7.51562 27.5938 7.51562
L36.8125 7.51562
L36.8125 0
L27.5938 0
Q17.1875 0 13.2344 3.875
Q9.28125 7.76562 9.28125 18.0156
L9.28125 47.7031
L2.6875 47.7031
L2.6875 54.6875
L9.28125 54.6875
L9.28125 70.2188
z
" id="BitstreamVeraSans-Roman-74"/>
       <path d="
M41.1094 46.2969
Q39.5938 47.1719 37.8125 47.5781
Q36.0312 48 33.8906 48
Q26.2656 48 22.1875 43.0469
Q18.1094 38.0938 18.1094 28.8125
L18.1094 0
L9.07812 0
L9.07812 54.6875
L18.1094 54.6875
L18.1094 46.1875
Q20.9531 51.1719 25.4844 53.5781
Q30.0312 56 36.5312 56
Q37.4531 56 38.5781 55.875
Q39.7031 55.7656 41.0625 55.5156
z
" id="BitstreamVeraSans-Roman-72"/>
       <path d="
M44.2812 53.0781
L44.2812 44.5781
Q40.4844 46.5312 36.375 47.5
Q32.2812 48.4844 27.875 48.4844
Q21.1875 48.4844 17.8438 46.4375
Q14.5 44.3906 14.5 40.2812
Q14.5 37.1562 16.8906 35.375
Q19.2812 33.5938 26.5156 31.9844
L29.5938 31.2969
Q39.1562 29.25 43.1875 25.5156
Q47.2188 21.7812 47.2188 15.0938
Q47.2188 7.46875 41.1875 3.01562
Q35.1562 -1.42188 24.6094 -1.42188
Q20.2188 -1.42188 15.4531 -0.5625
Q10.6875 0.296875 5.42188 2
L5.42188 11.2812
Q10.4062 8.6875 15.2344 7.39062
Q20.0625 6.10938 24.8125 6.10938
Q31.1562 6.10938 34.5625 8.28125
Q37.9844 10.4531 37.9844 14.4062
Q37.9844 18.0625 35.5156 20.0156
Q33.0625 21.9688 24.7031 23.7812
L21.5781 24.5156
Q13.2344 26.2656 9.51562 29.9062
Q5.8125 33.5469 5.8125 39.8906
Q5.8125 47.6094 11.2812 51.7969
Q16.75 56 26.8125 56
Q31.7812 56 36.1719 55.2656
Q40.5781 54.5469 44.2812 53.0781" id="BitstreamVeraSans-Roman-73"/>
       <path d="
M19.6719 34.8125
L19.6719 8.10938
L35.5 8.10938
Q43.4531 8.10938 47.2812 11.4062
Q51.125 14.7031 51.125 21.4844
Q51.125 28.3281 47.2812 31.5625
Q43.4531 34.8125 35.5 34.8125
z

M19.6719 64.7969
L19.6719 42.8281
L34.2812 42.8281
Q41.5 42.8281 45.0312 45.5312
Q48.5781 48.25 48.5781 53.8125
Q48.5781 59.3281 45.0312 62.0625
Q41.5 64.7969 34.2812 64.7969
z

M9.8125 72.9062
L35.0156 72.9062
Q46.2969 72.9062 52.3906 68.2188
Q58.5 63.5312 58.5 54.8906
Q58.5 48.1875 55.375 44.2344
Q52.25 40.2812 46.1875 39.3125
Q53.4688 37.75 57.5 32.7812
Q61.5312 27.8281 61.5312 20.4062
Q61.5312 10.6406 54.8906 5.3125
Q48.25 0 35.9844 0
L9.8125 0
z
" id="BitstreamVeraSans-Roman-42"/>
      </defs>
      <g transform="translate(56.953125 391.118125)scale(0.12 -0.12)">
       <use xlink:href="#BitstreamVeraSans-Roman-42"/>
       <use x="68.603515625" xlink:href="#BitstreamVeraSans-Roman-65"/>
       <use x="130.126953125" xlink:href="#BitstreamVeraSans-Roman-72"/>
       <use x="168.990234375" xlink:href="#BitstreamVeraSans-Roman-65"/>
       <use x="230.513671875" xlink:href="#BitstreamVeraSans-Roman-73"/>
       <use x="282.61328125" xlink:href="#BitstreamVeraSans-Roman-68"/>
       <use x="345.9921875" xlink:href="#BitstreamVeraSans-Roman-69"/>
       <use x="373.775390625" xlink:href="#BitstreamVeraSans-Roman-74"/>
      </g>
     </g>
    </g>
    <g id="xtick_2">
     <g id="line2d_6">
      <path clip-path="url(#p6858f96ca6)" d="
M212.557 378
L212.557 43.2" style="fill:none;stroke:#000000;stroke-dasharray:1.000000,3.000000;stroke-dashoffset:0.0;stroke-width:0.5;"/>
     </g>
     <g id="line2d_7">
      <g>
       <use style="stroke:#000000;stroke-width:0.5;" x="212.557177033" xlink:href="#m93b0483c22" y="378.0"/>
      </g>
     </g>
     <g id="line2d_8">
      <g>
       <use style="stroke:#000000;stroke-width:0.5;" x="212.557177033" xlink:href="#m741efc42ff" y="43.2"/>
      </g>
     </g>
     <g id="text_2">
      <!-- Shmot -->
      <defs>
       <path d="
M52 44.1875
Q55.375 50.25 60.0625 53.125
Q64.75 56 71.0938 56
Q79.6406 56 84.2812 50.0156
Q88.9219 44.0469 88.9219 33.0156
L88.9219 0
L79.8906 0
L79.8906 32.7188
Q79.8906 40.5781 77.0938 44.375
Q74.3125 48.1875 68.6094 48.1875
Q61.625 48.1875 57.5625 43.5469
Q53.5156 38.9219 53.5156 30.9062
L53.5156 0
L44.4844 0
L44.4844 32.7188
Q44.4844 40.625 41.7031 44.4062
Q38.9219 48.1875 33.1094 48.1875
Q26.2188 48.1875 22.1562 43.5312
Q18.1094 38.875 18.1094 30.9062
L18.1094 0
L9.07812 0
L9.07812 54.6875
L18.1094 54.6875
L18.1094 46.1875
Q21.1875 51.2188 25.4844 53.6094
Q29.7812 56 35.6875 56
Q41.6562 56 45.8281 52.9688
Q50 49.9531 52 44.1875" id="BitstreamVeraSans-Roman-6d"/>
       <path d="
M53.5156 70.5156
L53.5156 60.8906
Q47.9062 63.5781 42.9219 64.8906
Q37.9375 66.2188 33.2969 66.2188
Q25.25 66.2188 20.875 63.0938
Q16.5 59.9688 16.5 54.2031
Q16.5 49.3594 19.4062 46.8906
Q22.3125 44.4375 30.4219 42.9219
L36.375 41.7031
Q47.4062 39.5938 52.6562 34.2969
Q57.9062 29 57.9062 20.125
Q57.9062 9.51562 50.7969 4.04688
Q43.7031 -1.42188 29.9844 -1.42188
Q24.8125 -1.42188 18.9688 -0.25
Q13.1406 0.921875 6.89062 3.21875
L6.89062 13.375
Q12.8906 10.0156 18.6562 8.29688
Q24.4219 6.59375 29.9844 6.59375
Q38.4219 6.59375 43.0156 9.90625
Q47.6094 13.2344 47.6094 19.3906
Q47.6094 24.75 44.3125 27.7812
Q41.0156 30.8125 33.5 32.3281
L27.4844 33.5
Q16.4531 35.6875 11.5156 40.375
Q6.59375 45.0625 6.59375 53.4219
Q6.59375 63.0938 13.4062 68.6562
Q20.2188 74.2188 32.1719 74.2188
Q37.3125 74.2188 42.625 73.2812
Q47.9531 72.3594 53.5156 70.5156" id="BitstreamVeraSans-Roman-53"/>
       <path d="
M30.6094 48.3906
Q23.3906 48.3906 19.1875 42.75
Q14.9844 37.1094 14.9844 27.2969
Q14.9844 17.4844 19.1562 11.8438
Q23.3438 6.20312 30.6094 6.20312
Q37.7969 6.20312 41.9844 11.8594
Q46.1875 17.5312 46.1875 27.2969
Q46.1875 37.0156 41.9844 42.7031
Q37.7969 48.3906 30.6094 48.3906
M30.6094 56
Q42.3281 56 49.0156 48.375
Q55.7188 40.7656 55.7188 27.2969
Q55.7188 13.875 49.0156 6.21875
Q42.3281 -1.42188 30.6094 -1.42188
Q18.8438 -1.42188 12.1719 6.21875
Q5.51562 13.875 5.51562 27.2969
Q5.51562 40.7656 12.1719 48.375
Q18.8438 56 30.6094 56" id="BitstreamVeraSans-Roman-6f"/>
      </defs>
      <g transform="translate(193.616864533 391.118125)scale(0.12 -0.12)">
       <use xlink:href="#BitstreamVeraSans-Roman-53"/>
       <use x="63.4765625" xlink:href="#BitstreamVeraSans-Roman-68"/>
       <use x="126.85546875" xlink:href="#BitstreamVeraSans-Roman-6d"/>
       <use x="224.267578125" xlink:href="#BitstreamVeraSans-Roman-6f"/>
       <use x="285.44921875" xlink:href="#BitstreamVeraSans-Roman-74"/>
      </g>
     </g>
    </g>
    <g id="xtick_3">
     <g id="line2d_9">
      <path clip-path="url(#p6858f96ca6)" d="
M316.653 378
L316.653 43.2" style="fill:none;stroke:#000000;stroke-dasharray:1.000000,3.000000;stroke-dashoffset:0.0;stroke-width:0.5;"/>
     </g>
     <g id="line2d_10">
      <g>
       <use style="stroke:#000000;stroke-width:0.5;" x="316.652973342" xlink:href="#m93b0483c22" y="378.0"/>
      </g>
     </g>
     <g id="line2d_11">
      <g>
       <use style="stroke:#000000;stroke-width:0.5;" x="316.652973342" xlink:href="#m741efc42ff" y="43.2"/>
      </g>
     </g>
     <g id="text_3">
      <!-- Vayikra -->
      <defs>
       <path d="
M9.07812 75.9844
L18.1094 75.9844
L18.1094 31.1094
L44.9219 54.6875
L56.3906 54.6875
L27.3906 29.1094
L57.625 0
L45.9062 0
L18.1094 26.7031
L18.1094 0
L9.07812 0
z
" id="BitstreamVeraSans-Roman-6b"/>
       <path d="
M34.2812 27.4844
Q23.3906 27.4844 19.1875 25
Q14.9844 22.5156 14.9844 16.5
Q14.9844 11.7188 18.1406 8.90625
Q21.2969 6.10938 26.7031 6.10938
Q34.1875 6.10938 38.7031 11.4062
Q43.2188 16.7031 43.2188 25.4844
L43.2188 27.4844
z

M52.2031 31.2031
L52.2031 0
L43.2188 0
L43.2188 8.29688
Q40.1406 3.32812 35.5469 0.953125
Q30.9531 -1.42188 24.3125 -1.42188
Q15.9219 -1.42188 10.9531 3.29688
Q6 8.01562 6 15.9219
Q6 25.1406 12.1719 29.8281
Q18.3594 34.5156 30.6094 34.5156
L43.2188 34.5156
L43.2188 35.4062
Q43.2188 41.6094 39.1406 45
Q35.0625 48.3906 27.6875 48.3906
Q23 48.3906 18.5469 47.2656
Q14.1094 46.1406 10.0156 43.8906
L10.0156 52.2031
Q14.9375 54.1094 19.5781 55.0469
Q24.2188 56 28.6094 56
Q40.4844 56 46.3438 49.8438
Q52.2031 43.7031 52.2031 31.2031" id="BitstreamVeraSans-Roman-61"/>
       <path d="
M28.6094 0
L0.78125 72.9062
L11.0781 72.9062
L34.1875 11.5312
L57.3281 72.9062
L67.5781 72.9062
L39.7969 0
z
" id="BitstreamVeraSans-Roman-56"/>
       <path d="
M32.1719 -5.07812
Q28.375 -14.8438 24.75 -17.8125
Q21.1406 -20.7969 15.0938 -20.7969
L7.90625 -20.7969
L7.90625 -13.2812
L13.1875 -13.2812
Q16.8906 -13.2812 18.9375 -11.5156
Q21 -9.76562 23.4844 -3.21875
L25.0938 0.875
L2.98438 54.6875
L12.5 54.6875
L29.5938 11.9219
L46.6875 54.6875
L56.2031 54.6875
z
" id="BitstreamVeraSans-Roman-79"/>
      </defs>
      <g transform="translate(295.092348342 391.118125)scale(0.12 -0.12)">
       <use xlink:href="#BitstreamVeraSans-Roman-56"/>
       <use x="60.658203125" xlink:href="#BitstreamVeraSans-Roman-61"/>
       <use x="121.9375" xlink:href="#BitstreamVeraSans-Roman-79"/>
       <use x="181.1171875" xlink:href="#BitstreamVeraSans-Roman-69"/>
       <use x="208.900390625" xlink:href="#BitstreamVeraSans-Roman-6b"/>
       <use x="266.810546875" xlink:href="#BitstreamVeraSans-Roman-72"/>
       <use x="307.923828125" xlink:href="#BitstreamVeraSans-Roman-61"/>
      </g>
     </g>
    </g>
    <g id="xtick_4">
     <g id="line2d_12">
      <path clip-path="url(#p6858f96ca6)" d="
M390.37 378
L390.37 43.2" style="fill:none;stroke:#000000;stroke-dasharray:1.000000,3.000000;stroke-dashoffset:0.0;stroke-width:0.5;"/>
     </g>
     <g id="line2d_13">
      <g>
       <use style="stroke:#000000;stroke-width:0.5;" x="390.369617225" xlink:href="#m93b0483c22" y="378.0"/>
      </g>
     </g>
     <g id="line2d_14">
      <g>
       <use style="stroke:#000000;stroke-width:0.5;" x="390.369617225" xlink:href="#m741efc42ff" y="43.2"/>
      </g>
     </g>
     <g id="text_4">
      <!-- Bamidbar -->
      <defs>
       <path d="
M45.4062 46.3906
L45.4062 75.9844
L54.3906 75.9844
L54.3906 0
L45.4062 0
L45.4062 8.20312
Q42.5781 3.32812 38.25 0.953125
Q33.9375 -1.42188 27.875 -1.42188
Q17.9688 -1.42188 11.7344 6.48438
Q5.51562 14.4062 5.51562 27.2969
Q5.51562 40.1875 11.7344 48.0938
Q17.9688 56 27.875 56
Q33.9375 56 38.25 53.625
Q42.5781 51.2656 45.4062 46.3906
M14.7969 27.2969
Q14.7969 17.3906 18.875 11.75
Q22.9531 6.10938 30.0781 6.10938
Q37.2031 6.10938 41.2969 11.75
Q45.4062 17.3906 45.4062 27.2969
Q45.4062 37.2031 41.2969 42.8438
Q37.2031 48.4844 30.0781 48.4844
Q22.9531 48.4844 18.875 42.8438
Q14.7969 37.2031 14.7969 27.2969" id="BitstreamVeraSans-Roman-64"/>
       <path d="
M48.6875 27.2969
Q48.6875 37.2031 44.6094 42.8438
Q40.5312 48.4844 33.4062 48.4844
Q26.2656 48.4844 22.1875 42.8438
Q18.1094 37.2031 18.1094 27.2969
Q18.1094 17.3906 22.1875 11.75
Q26.2656 6.10938 33.4062 6.10938
Q40.5312 6.10938 44.6094 11.75
Q48.6875 17.3906 48.6875 27.2969
M18.1094 46.3906
Q20.9531 51.2656 25.2656 53.625
Q29.5938 56 35.5938 56
Q45.5625 56 51.7812 48.0938
Q58.0156 40.1875 58.0156 27.2969
Q58.0156 14.4062 51.7812 6.48438
Q45.5625 -1.42188 35.5938 -1.42188
Q29.5938 -1.42188 25.2656 0.953125
Q20.9531 3.32812 18.1094 8.20312
L18.1094 0
L9.07812 0
L9.07812 75.9844
L18.1094 75.9844
z
" id="BitstreamVeraSans-Roman-62"/>
      </defs>
      <g transform="translate(361.892117225 391.118125)scale(0.12 -0.12)">
       <use xlink:href="#BitstreamVeraSans-Roman-42"/>
       <use x="68.603515625" xlink:href="#BitstreamVeraSans-Roman-61"/>
       <use x="129.8828125" xlink:href="#BitstreamVeraSans-Roman-6d"/>
       <use x="227.294921875" xlink:href="#BitstreamVeraSans-Roman-69"/>
       <use x="255.078125" xlink:href="#BitstreamVeraSans-Roman-64"/>
       <use x="318.5546875" xlink:href="#BitstreamVeraSans-Roman-62"/>
       <use x="382.03125" xlink:href="#BitstreamVeraSans-Roman-61"/>
       <use x="443.310546875" xlink:href="#BitstreamVeraSans-Roman-72"/>
      </g>
     </g>
    </g>
    <g id="xtick_5">
     <g id="line2d_15">
      <path clip-path="url(#p6858f96ca6)" d="
M500.987 378
L500.987 43.2" style="fill:none;stroke:#000000;stroke-dasharray:1.000000,3.000000;stroke-dashoffset:0.0;stroke-width:0.5;"/>
     </g>
     <g id="line2d_16">
      <g>
       <use style="stroke:#000000;stroke-width:0.5;" x="500.987491456" xlink:href="#m93b0483c22" y="378.0"/>
      </g>
     </g>
     <g id="line2d_17">
      <g>
       <use style="stroke:#000000;stroke-width:0.5;" x="500.987491456" xlink:href="#m741efc42ff" y="43.2"/>
      </g>
     </g>
     <g id="text_5">
      <!-- D'varim -->
      <defs>
       <path d="
M2.98438 54.6875
L12.5 54.6875
L29.5938 8.79688
L46.6875 54.6875
L56.2031 54.6875
L35.6875 0
L23.4844 0
z
" id="BitstreamVeraSans-Roman-76"/>
       <path d="
M19.6719 64.7969
L19.6719 8.10938
L31.5938 8.10938
Q46.6875 8.10938 53.6875 14.9375
Q60.6875 21.7812 60.6875 36.5312
Q60.6875 51.1719 53.6875 57.9844
Q46.6875 64.7969 31.5938 64.7969
z

M9.8125 72.9062
L30.0781 72.9062
Q51.2656 72.9062 61.1719 64.0938
Q71.0938 55.2812 71.0938 36.5312
Q71.0938 17.6719 61.125 8.82812
Q51.1719 0 30.0781 0
L9.8125 0
z
" id="BitstreamVeraSans-Roman-44"/>
       <path d="
M17.9219 72.9062
L17.9219 45.7969
L9.625 45.7969
L9.625 72.9062
z
" id="BitstreamVeraSans-Roman-27"/>
      </defs>
      <g transform="translate(478.610303956 391.118125)scale(0.12 -0.12)">
       <use xlink:href="#BitstreamVeraSans-Roman-44"/>
       <use x="77.001953125" xlink:href="#BitstreamVeraSans-Roman-27"/>
       <use x="104.4921875" xlink:href="#BitstreamVeraSans-Roman-76"/>
       <use x="163.671875" xlink:href="#BitstreamVeraSans-Roman-61"/>
       <use x="224.951171875" xlink:href="#BitstreamVeraSans-Roman-72"/>
       <use x="266.064453125" xlink:href="#BitstreamVeraSans-Roman-69"/>
       <use x="293.84765625" xlink:href="#BitstreamVeraSans-Roman-6d"/>
      </g>
     </g>
    </g>
   </g>
   <g id="matplotlib.axis_2">
    <g id="ytick_1">
     <g id="line2d_18">
      <path clip-path="url(#p6858f96ca6)" d="
M81 378
L583.2 378" style="fill:none;stroke:#000000;stroke-dasharray:1.000000,3.000000;stroke-dashoffset:0.0;stroke-width:0.5;"/>
     </g>
     <g id="line2d_19">
      <defs>
       <path d="
M0 0
L4 0" id="m728421d6d4" style="stroke:#000000;stroke-width:0.5;"/>
      </defs>
      <g>
       <use style="stroke:#000000;stroke-width:0.5;" x="81.0" xlink:href="#m728421d6d4" y="378.0"/>
      </g>
     </g>
     <g id="line2d_20">
      <defs>
       <path d="
M0 0
L-4 0" id="mcb0005524f" style="stroke:#000000;stroke-width:0.5;"/>
      </defs>
      <g>
       <use style="stroke:#000000;stroke-width:0.5;" x="583.2" xlink:href="#mcb0005524f" y="378.0"/>
      </g>
     </g>
     <g id="text_6">
      <!-- 0.00 -->
      <defs>
       <path d="
M31.7812 66.4062
Q24.1719 66.4062 20.3281 58.9062
Q16.5 51.4219 16.5 36.375
Q16.5 21.3906 20.3281 13.8906
Q24.1719 6.39062 31.7812 6.39062
Q39.4531 6.39062 43.2812 13.8906
Q47.125 21.3906 47.125 36.375
Q47.125 51.4219 43.2812 58.9062
Q39.4531 66.4062 31.7812 66.4062
M31.7812 74.2188
Q44.0469 74.2188 50.5156 64.5156
Q56.9844 54.8281 56.9844 36.375
Q56.9844 17.9688 50.5156 8.26562
Q44.0469 -1.42188 31.7812 -1.42188
Q19.5312 -1.42188 13.0625 8.26562
Q6.59375 17.9688 6.59375 36.375
Q6.59375 54.8281 13.0625 64.5156
Q19.5312 74.2188 31.7812 74.2188" id="BitstreamVeraSans-Roman-30"/>
       <path d="
M10.6875 12.4062
L21 12.4062
L21 0
L10.6875 0
z
" id="BitstreamVeraSans-Roman-2e"/>
      </defs>
      <g transform="translate(56.0578125 380.759375)scale(0.1 -0.1)">
       <use xlink:href="#BitstreamVeraSans-Roman-30"/>
       <use x="63.623046875" xlink:href="#BitstreamVeraSans-Roman-2e"/>
       <use x="95.41015625" xlink:href="#BitstreamVeraSans-Roman-30"/>
       <use x="159.033203125" xlink:href="#BitstreamVeraSans-Roman-30"/>
      </g>
     </g>
    </g>
    <g id="ytick_2">
     <g id="line2d_21">
      <path clip-path="url(#p6858f96ca6)" d="
M81 322.2
L583.2 322.2" style="fill:none;stroke:#000000;stroke-dasharray:1.000000,3.000000;stroke-dashoffset:0.0;stroke-width:0.5;"/>
     </g>
     <g id="line2d_22">
      <g>
       <use style="stroke:#000000;stroke-width:0.5;" x="81.0" xlink:href="#m728421d6d4" y="322.2"/>
      </g>
     </g>
     <g id="line2d_23">
      <g>
       <use style="stroke:#000000;stroke-width:0.5;" x="583.2" xlink:href="#mcb0005524f" y="322.2"/>
      </g>
     </g>
     <g id="text_7">
      <!-- 0.02 -->
      <defs>
       <path d="
M19.1875 8.29688
L53.6094 8.29688
L53.6094 0
L7.32812 0
L7.32812 8.29688
Q12.9375 14.1094 22.625 23.8906
Q32.3281 33.6875 34.8125 36.5312
Q39.5469 41.8438 41.4219 45.5312
Q43.3125 49.2188 43.3125 52.7812
Q43.3125 58.5938 39.2344 62.25
Q35.1562 65.9219 28.6094 65.9219
Q23.9688 65.9219 18.8125 64.3125
Q13.6719 62.7031 7.8125 59.4219
L7.8125 69.3906
Q13.7656 71.7812 18.9375 73
Q24.125 74.2188 28.4219 74.2188
Q39.75 74.2188 46.4844 68.5469
Q53.2188 62.8906 53.2188 53.4219
Q53.2188 48.9219 51.5312 44.8906
Q49.8594 40.875 45.4062 35.4062
Q44.1875 33.9844 37.6406 27.2188
Q31.1094 20.4531 19.1875 8.29688" id="BitstreamVeraSans-Roman-32"/>
      </defs>
      <g transform="translate(56.3953125 324.959375)scale(0.1 -0.1)">
       <use xlink:href="#BitstreamVeraSans-Roman-30"/>
       <use x="63.623046875" xlink:href="#BitstreamVeraSans-Roman-2e"/>
       <use x="95.41015625" xlink:href="#BitstreamVeraSans-Roman-30"/>
       <use x="159.033203125" xlink:href="#BitstreamVeraSans-Roman-32"/>
      </g>
     </g>
    </g>
    <g id="ytick_3">
     <g id="line2d_24">
      <path clip-path="url(#p6858f96ca6)" d="
M81 266.4
L583.2 266.4" style="fill:none;stroke:#000000;stroke-dasharray:1.000000,3.000000;stroke-dashoffset:0.0;stroke-width:0.5;"/>
     </g>
     <g id="line2d_25">
      <g>
       <use style="stroke:#000000;stroke-width:0.5;" x="81.0" xlink:href="#m728421d6d4" y="266.4"/>
      </g>
     </g>
     <g id="line2d_26">
      <g>
       <use style="stroke:#000000;stroke-width:0.5;" x="583.2" xlink:href="#mcb0005524f" y="266.4"/>
      </g>
     </g>
     <g id="text_8">
      <!-- 0.04 -->
      <defs>
       <path d="
M37.7969 64.3125
L12.8906 25.3906
L37.7969 25.3906
z

M35.2031 72.9062
L47.6094 72.9062
L47.6094 25.3906
L58.0156 25.3906
L58.0156 17.1875
L47.6094 17.1875
L47.6094 0
L37.7969 0
L37.7969 17.1875
L4.89062 17.1875
L4.89062 26.7031
z
" id="BitstreamVeraSans-Roman-34"/>
      </defs>
      <g transform="translate(55.9546875 269.159375)scale(0.1 -0.1)">
       <use xlink:href="#BitstreamVeraSans-Roman-30"/>
       <use x="63.623046875" xlink:href="#BitstreamVeraSans-Roman-2e"/>
       <use x="95.41015625" xlink:href="#BitstreamVeraSans-Roman-30"/>
       <use x="159.033203125" xlink:href="#BitstreamVeraSans-Roman-34"/>
      </g>
     </g>
    </g>
    <g id="ytick_4">
     <g id="line2d_27">
      <path clip-path="url(#p6858f96ca6)" d="
M81 210.6
L583.2 210.6" style="fill:none;stroke:#000000;stroke-dasharray:1.000000,3.000000;stroke-dashoffset:0.0;stroke-width:0.5;"/>
     </g>
     <g id="line2d_28">
      <g>
       <use style="stroke:#000000;stroke-width:0.5;" x="81.0" xlink:href="#m728421d6d4" y="210.6"/>
      </g>
     </g>
     <g id="line2d_29">
      <g>
       <use style="stroke:#000000;stroke-width:0.5;" x="583.2" xlink:href="#mcb0005524f" y="210.6"/>
      </g>
     </g>
     <g id="text_9">
      <!-- 0.06 -->
      <defs>
       <path d="
M33.0156 40.375
Q26.375 40.375 22.4844 35.8281
Q18.6094 31.2969 18.6094 23.3906
Q18.6094 15.5312 22.4844 10.9531
Q26.375 6.39062 33.0156 6.39062
Q39.6562 6.39062 43.5312 10.9531
Q47.4062 15.5312 47.4062 23.3906
Q47.4062 31.2969 43.5312 35.8281
Q39.6562 40.375 33.0156 40.375
M52.5938 71.2969
L52.5938 62.3125
Q48.875 64.0625 45.0938 64.9844
Q41.3125 65.9219 37.5938 65.9219
Q27.8281 65.9219 22.6719 59.3281
Q17.5312 52.7344 16.7969 39.4062
Q19.6719 43.6562 24.0156 45.9219
Q28.375 48.1875 33.5938 48.1875
Q44.5781 48.1875 50.9531 41.5156
Q57.3281 34.8594 57.3281 23.3906
Q57.3281 12.1562 50.6875 5.35938
Q44.0469 -1.42188 33.0156 -1.42188
Q20.3594 -1.42188 13.6719 8.26562
Q6.98438 17.9688 6.98438 36.375
Q6.98438 53.6562 15.1875 63.9375
Q23.3906 74.2188 37.2031 74.2188
Q40.9219 74.2188 44.7031 73.4844
Q48.4844 72.75 52.5938 71.2969" id="BitstreamVeraSans-Roman-36"/>
      </defs>
      <g transform="translate(56.0234375 213.359375)scale(0.1 -0.1)">
       <use xlink:href="#BitstreamVeraSans-Roman-30"/>
       <use x="63.623046875" xlink:href="#BitstreamVeraSans-Roman-2e"/>
       <use x="95.41015625" xlink:href="#BitstreamVeraSans-Roman-30"/>
       <use x="159.033203125" xlink:href="#BitstreamVeraSans-Roman-36"/>
      </g>
     </g>
    </g>
    <g id="ytick_5">
     <g id="line2d_30">
      <path clip-path="url(#p6858f96ca6)" d="
M81 154.8
L583.2 154.8" style="fill:none;stroke:#000000;stroke-dasharray:1.000000,3.000000;stroke-dashoffset:0.0;stroke-width:0.5;"/>
     </g>
     <g id="line2d_31">
      <g>
       <use style="stroke:#000000;stroke-width:0.5;" x="81.0" xlink:href="#m728421d6d4" y="154.8"/>
      </g>
     </g>
     <g id="line2d_32">
      <g>
       <use style="stroke:#000000;stroke-width:0.5;" x="583.2" xlink:href="#mcb0005524f" y="154.8"/>
      </g>
     </g>
     <g id="text_10">
      <!-- 0.08 -->
      <defs>
       <path d="
M31.7812 34.625
Q24.75 34.625 20.7188 30.8594
Q16.7031 27.0938 16.7031 20.5156
Q16.7031 13.9219 20.7188 10.1562
Q24.75 6.39062 31.7812 6.39062
Q38.8125 6.39062 42.8594 10.1719
Q46.9219 13.9688 46.9219 20.5156
Q46.9219 27.0938 42.8906 30.8594
Q38.875 34.625 31.7812 34.625
M21.9219 38.8125
Q15.5781 40.375 12.0312 44.7188
Q8.5 49.0781 8.5 55.3281
Q8.5 64.0625 14.7188 69.1406
Q20.9531 74.2188 31.7812 74.2188
Q42.6719 74.2188 48.875 69.1406
Q55.0781 64.0625 55.0781 55.3281
Q55.0781 49.0781 51.5312 44.7188
Q48 40.375 41.7031 38.8125
Q48.8281 37.1562 52.7969 32.3125
Q56.7812 27.4844 56.7812 20.5156
Q56.7812 9.90625 50.3125 4.23438
Q43.8438 -1.42188 31.7812 -1.42188
Q19.7344 -1.42188 13.25 4.23438
Q6.78125 9.90625 6.78125 20.5156
Q6.78125 27.4844 10.7812 32.3125
Q14.7969 37.1562 21.9219 38.8125
M18.3125 54.3906
Q18.3125 48.7344 21.8438 45.5625
Q25.3906 42.3906 31.7812 42.3906
Q38.1406 42.3906 41.7188 45.5625
Q45.3125 48.7344 45.3125 54.3906
Q45.3125 60.0625 41.7188 63.2344
Q38.1406 66.4062 31.7812 66.4062
Q25.3906 66.4062 21.8438 63.2344
Q18.3125 60.0625 18.3125 54.3906" id="BitstreamVeraSans-Roman-38"/>
      </defs>
      <g transform="translate(56.078125 157.559375)scale(0.1 -0.1)">
       <use xlink:href="#BitstreamVeraSans-Roman-30"/>
       <use x="63.623046875" xlink:href="#BitstreamVeraSans-Roman-2e"/>
       <use x="95.41015625" xlink:href="#BitstreamVeraSans-Roman-30"/>
       <use x="159.033203125" xlink:href="#BitstreamVeraSans-Roman-38"/>
      </g>
     </g>
    </g>
    <g id="ytick_6">
     <g id="line2d_33">
      <path clip-path="url(#p6858f96ca6)" d="
M81 99
L583.2 99" style="fill:none;stroke:#000000;stroke-dasharray:1.000000,3.000000;stroke-dashoffset:0.0;stroke-width:0.5;"/>
     </g>
     <g id="line2d_34">
      <g>
       <use style="stroke:#000000;stroke-width:0.5;" x="81.0" xlink:href="#m728421d6d4" y="99.0"/>
      </g>
     </g>
     <g id="line2d_35">
      <g>
       <use style="stroke:#000000;stroke-width:0.5;" x="583.2" xlink:href="#mcb0005524f" y="99.0"/>
      </g>
     </g>
     <g id="text_11">
      <!-- 0.10 -->
      <defs>
       <path d="
M12.4062 8.29688
L28.5156 8.29688
L28.5156 63.9219
L10.9844 60.4062
L10.9844 69.3906
L28.4219 72.9062
L38.2812 72.9062
L38.2812 8.29688
L54.3906 8.29688
L54.3906 0
L12.4062 0
z
" id="BitstreamVeraSans-Roman-31"/>
      </defs>
      <g transform="translate(56.0578125 101.759375)scale(0.1 -0.1)">
       <use xlink:href="#BitstreamVeraSans-Roman-30"/>
       <use x="63.623046875" xlink:href="#BitstreamVeraSans-Roman-2e"/>
       <use x="95.41015625" xlink:href="#BitstreamVeraSans-Roman-31"/>
       <use x="159.033203125" xlink:href="#BitstreamVeraSans-Roman-30"/>
      </g>
     </g>
    </g>
    <g id="ytick_7">
     <g id="line2d_36">
      <path clip-path="url(#p6858f96ca6)" d="
M81 43.2
L583.2 43.2" style="fill:none;stroke:#000000;stroke-dasharray:1.000000,3.000000;stroke-dashoffset:0.0;stroke-width:0.5;"/>
     </g>
     <g id="line2d_37">
      <g>
       <use style="stroke:#000000;stroke-width:0.5;" x="81.0" xlink:href="#m728421d6d4" y="43.2"/>
      </g>
     </g>
     <g id="line2d_38">
      <g>
       <use style="stroke:#000000;stroke-width:0.5;" x="583.2" xlink:href="#mcb0005524f" y="43.2"/>
      </g>
     </g>
     <g id="text_12">
      <!-- 0.12 -->
      <g transform="translate(56.3953125 45.959375)scale(0.1 -0.1)">
       <use xlink:href="#BitstreamVeraSans-Roman-30"/>
       <use x="63.623046875" xlink:href="#BitstreamVeraSans-Roman-2e"/>
       <use x="95.41015625" xlink:href="#BitstreamVeraSans-Roman-31"/>
       <use x="159.033203125" xlink:href="#BitstreamVeraSans-Roman-32"/>
      </g>
     </g>
    </g>
    <g id="text_13">
     <!-- Average count per pasuk -->
     <defs>
      <path id="BitstreamVeraSans-Roman-20"/>
      <path d="
M54.8906 33.0156
L54.8906 0
L45.9062 0
L45.9062 32.7188
Q45.9062 40.4844 42.875 44.3281
Q39.8438 48.1875 33.7969 48.1875
Q26.5156 48.1875 22.3125 43.5469
Q18.1094 38.9219 18.1094 30.9062
L18.1094 0
L9.07812 0
L9.07812 54.6875
L18.1094 54.6875
L18.1094 46.1875
Q21.3438 51.125 25.7031 53.5625
Q30.0781 56 35.7969 56
Q45.2188 56 50.0469 50.1719
Q54.8906 44.3438 54.8906 33.0156" id="BitstreamVeraSans-Roman-6e"/>
      <path d="
M18.1094 8.20312
L18.1094 -20.7969
L9.07812 -20.7969
L9.07812 54.6875
L18.1094 54.6875
L18.1094 46.3906
Q20.9531 51.2656 25.2656 53.625
Q29.5938 56 35.5938 56
Q45.5625 56 51.7812 48.0938
Q58.0156 40.1875 58.0156 27.2969
Q58.0156 14.4062 51.7812 6.48438
Q45.5625 -1.42188 35.5938 -1.42188
Q29.5938 -1.42188 25.2656 0.953125
Q20.9531 3.32812 18.1094 8.20312
M48.6875 27.2969
Q48.6875 37.2031 44.6094 42.8438
Q40.5312 48.4844 33.4062 48.4844
Q26.2656 48.4844 22.1875 42.8438
Q18.1094 37.2031 18.1094 27.2969
Q18.1094 17.3906 22.1875 11.75
Q26.2656 6.10938 33.4062 6.10938
Q40.5312 6.10938 44.6094 11.75
Q48.6875 17.3906 48.6875 27.2969" id="BitstreamVeraSans-Roman-70"/>
      <path d="
M34.1875 63.1875
L20.7969 26.9062
L47.6094 26.9062
z

M28.6094 72.9062
L39.7969 72.9062
L67.5781 0
L57.3281 0
L50.6875 18.7031
L17.8281 18.7031
L11.1875 0
L0.78125 0
z
" id="BitstreamVeraSans-Roman-41"/>
      <path d="
M45.4062 27.9844
Q45.4062 37.75 41.375 43.1094
Q37.3594 48.4844 30.0781 48.4844
Q22.8594 48.4844 18.8281 43.1094
Q14.7969 37.75 14.7969 27.9844
Q14.7969 18.2656 18.8281 12.8906
Q22.8594 7.51562 30.0781 7.51562
Q37.3594 7.51562 41.375 12.8906
Q45.4062 18.2656 45.4062 27.9844
M54.3906 6.78125
Q54.3906 -7.17188 48.1875 -13.9844
Q42 -20.7969 29.2031 -20.7969
Q24.4688 -20.7969 20.2656 -20.0938
Q16.0625 -19.3906 12.1094 -17.9219
L12.1094 -9.1875
Q16.0625 -11.3281 19.9219 -12.3438
Q23.7812 -13.375 27.7812 -13.375
Q36.625 -13.375 41.0156 -8.76562
Q45.4062 -4.15625 45.4062 5.17188
L45.4062 9.625
Q42.625 4.78125 38.2812 2.39062
Q33.9375 0 27.875 0
Q17.8281 0 11.6719 7.65625
Q5.51562 15.3281 5.51562 27.9844
Q5.51562 40.6719 11.6719 48.3281
Q17.8281 56 27.875 56
Q33.9375 56 38.2812 53.6094
Q42.625 51.2188 45.4062 46.3906
L45.4062 54.6875
L54.3906 54.6875
z
" id="BitstreamVeraSans-Roman-67"/>
      <path d="
M8.5 21.5781
L8.5 54.6875
L17.4844 54.6875
L17.4844 21.9219
Q17.4844 14.1562 20.5 10.2656
Q23.5312 6.39062 29.5938 6.39062
Q36.8594 6.39062 41.0781 11.0312
Q45.3125 15.6719 45.3125 23.6875
L45.3125 54.6875
L54.2969 54.6875
L54.2969 0
L45.3125 0
L45.3125 8.40625
Q42.0469 3.42188 37.7188 1
Q33.4062 -1.42188 27.6875 -1.42188
Q18.2656 -1.42188 13.375 4.4375
Q8.5 10.2969 8.5 21.5781" id="BitstreamVeraSans-Roman-75"/>
      <path d="
M48.7812 52.5938
L48.7812 44.1875
Q44.9688 46.2969 41.1406 47.3438
Q37.3125 48.3906 33.4062 48.3906
Q24.6562 48.3906 19.8125 42.8438
Q14.9844 37.3125 14.9844 27.2969
Q14.9844 17.2812 19.8125 11.7344
Q24.6562 6.20312 33.4062 6.20312
Q37.3125 6.20312 41.1406 7.25
Q44.9688 8.29688 48.7812 10.4062
L48.7812 2.09375
Q45.0156 0.34375 40.9844 -0.53125
Q36.9688 -1.42188 32.4219 -1.42188
Q20.0625 -1.42188 12.7812 6.34375
Q5.51562 14.1094 5.51562 27.2969
Q5.51562 40.6719 12.8594 48.3281
Q20.2188 56 33.0156 56
Q37.1562 56 41.1094 55.1406
Q45.0625 54.2969 48.7812 52.5938" id="BitstreamVeraSans-Roman-63"/>
     </defs>
     <g transform="translate(48.4590625 285.7265625)rotate(-90.0)scale(0.12 -0.12)">
      <use xlink:href="#BitstreamVeraSans-Roman-41"/>
      <use x="62.533203125" xlink:href="#BitstreamVeraSans-Roman-76"/>
      <use x="121.712890625" xlink:href="#BitstreamVeraSans-Roman-65"/>
      <use x="183.236328125" xlink:href="#BitstreamVeraSans-Roman-72"/>
      <use x="224.349609375" xlink:href="#BitstreamVeraSans-Roman-61"/>
      <use x="285.62890625" xlink:href="#BitstreamVeraSans-Roman-67"/>
      <use x="349.10546875" xlink:href="#BitstreamVeraSans-Roman-65"/>
      <use x="410.62890625" xlink:href="#BitstreamVeraSans-Roman-20"/>
      <use x="442.416015625" xlink:href="#BitstreamVeraSans-Roman-63"/>
      <use x="497.396484375" xlink:href="#BitstreamVeraSans-Roman-6f"/>
      <use x="558.578125" xlink:href="#BitstreamVeraSans-Roman-75"/>
      <use x="621.95703125" xlink:href="#BitstreamVeraSans-Roman-6e"/>
      <use x="685.3359375" xlink:href="#BitstreamVeraSans-Roman-74"/>
      <use x="724.544921875" xlink:href="#BitstreamVeraSans-Roman-20"/>
      <use x="756.33203125" xlink:href="#BitstreamVeraSans-Roman-70"/>
      <use x="819.80859375" xlink:href="#BitstreamVeraSans-Roman-65"/>
      <use x="881.33203125" xlink:href="#BitstreamVeraSans-Roman-72"/>
      <use x="922.4453125" xlink:href="#BitstreamVeraSans-Roman-20"/>
      <use x="954.232421875" xlink:href="#BitstreamVeraSans-Roman-70"/>
      <use x="1017.70898438" xlink:href="#BitstreamVeraSans-Roman-61"/>
      <use x="1078.98828125" xlink:href="#BitstreamVeraSans-Roman-73"/>
      <use x="1131.08789062" xlink:href="#BitstreamVeraSans-Roman-75"/>
      <use x="1194.46679688" xlink:href="#BitstreamVeraSans-Roman-6b"/>
     </g>
    </g>
   </g>
   <g id="text_14">
    <!-- Trop occurence across the Torah -->
    <defs>
     <path d="
M-0.296875 72.9062
L61.375 72.9062
L61.375 64.5938
L35.5 64.5938
L35.5 0
L25.5938 0
L25.5938 64.5938
L-0.296875 64.5938
z
" id="BitstreamVeraSans-Roman-54"/>
    </defs>
    <g transform="translate(216.954 38.2)scale(0.144 -0.144)">
     <use xlink:href="#BitstreamVeraSans-Roman-54"/>
     <use x="46.333984375" xlink:href="#BitstreamVeraSans-Roman-72"/>
     <use x="85.197265625" xlink:href="#BitstreamVeraSans-Roman-6f"/>
     <use x="146.37890625" xlink:href="#BitstreamVeraSans-Roman-70"/>
     <use x="209.85546875" xlink:href="#BitstreamVeraSans-Roman-20"/>
     <use x="241.642578125" xlink:href="#BitstreamVeraSans-Roman-6f"/>
     <use x="302.82421875" xlink:href="#BitstreamVeraSans-Roman-63"/>
     <use x="357.8046875" xlink:href="#BitstreamVeraSans-Roman-63"/>
     <use x="412.78515625" xlink:href="#BitstreamVeraSans-Roman-75"/>
     <use x="476.1640625" xlink:href="#BitstreamVeraSans-Roman-72"/>
     <use x="515.02734375" xlink:href="#BitstreamVeraSans-Roman-65"/>
     <use x="576.55078125" xlink:href="#BitstreamVeraSans-Roman-6e"/>
     <use x="639.9296875" xlink:href="#BitstreamVeraSans-Roman-63"/>
     <use x="694.91015625" xlink:href="#BitstreamVeraSans-Roman-65"/>
     <use x="756.43359375" xlink:href="#BitstreamVeraSans-Roman-20"/>
     <use x="788.220703125" xlink:href="#BitstreamVeraSans-Roman-61"/>
     <use x="849.5" xlink:href="#BitstreamVeraSans-Roman-63"/>
     <use x="904.48046875" xlink:href="#BitstreamVeraSans-Roman-72"/>
     <use x="943.34375" xlink:href="#BitstreamVeraSans-Roman-6f"/>
     <use x="1004.52539062" xlink:href="#BitstreamVeraSans-Roman-73"/>
     <use x="1056.625" xlink:href="#BitstreamVeraSans-Roman-73"/>
     <use x="1108.72460938" xlink:href="#BitstreamVeraSans-Roman-20"/>
     <use x="1140.51171875" xlink:href="#BitstreamVeraSans-Roman-74"/>
     <use x="1179.72070312" xlink:href="#BitstreamVeraSans-Roman-68"/>
     <use x="1243.09960938" xlink:href="#BitstreamVeraSans-Roman-65"/>
     <use x="1304.62304688" xlink:href="#BitstreamVeraSans-Roman-20"/>
     <use x="1336.41015625" xlink:href="#BitstreamVeraSans-Roman-54"/>
     <use x="1380.49414062" xlink:href="#BitstreamVeraSans-Roman-6f"/>
     <use x="1441.67578125" xlink:href="#BitstreamVeraSans-Roman-72"/>
     <use x="1482.7890625" xlink:href="#BitstreamVeraSans-Roman-61"/>
     <use x="1544.06835938" xlink:href="#BitstreamVeraSans-Roman-68"/>
    </g>
   </g>
   <g id="legend_1">
    <g id="patch_7">
     <path d="
M87 88.0275
L163.17 88.0275
L163.17 49.2
L87 49.2
z
" style="fill:#ffffff;opacity:0.9;stroke:#000000;stroke-linejoin:miter;"/>
    </g>
    <g id="line2d_39">
     <path d="
M95.4 58.9181
L112.2 58.9181" style="fill:none;stroke:#0000ff;stroke-linecap:square;"/>
    </g>
    <g id="line2d_40"/>
    <g id="text_15">
     <!-- Zarka -->
     <defs>
      <path d="
M5.60938 72.9062
L62.8906 72.9062
L62.8906 65.375
L16.7969 8.29688
L64.0156 8.29688
L64.0156 0
L4.5 0
L4.5 7.51562
L50.5938 64.5938
L5.60938 64.5938
z
" id="BitstreamVeraSans-Roman-5a"/>
     </defs>
     <g transform="translate(125.4 63.118125)scale(0.12 -0.12)">
      <use xlink:href="#BitstreamVeraSans-Roman-5a"/>
      <use x="68.505859375" xlink:href="#BitstreamVeraSans-Roman-61"/>
      <use x="129.78515625" xlink:href="#BitstreamVeraSans-Roman-72"/>
      <use x="170.8984375" xlink:href="#BitstreamVeraSans-Roman-6b"/>
      <use x="227.05859375" xlink:href="#BitstreamVeraSans-Roman-61"/>
     </g>
    </g>
    <g id="line2d_41">
     <path d="
M95.4 76.5319
L112.2 76.5319" style="fill:none;stroke:#008000;stroke-linecap:square;"/>
    </g>
    <g id="line2d_42"/>
    <g id="text_16">
     <!-- Zegol -->
     <defs>
      <path d="
M9.42188 75.9844
L18.4062 75.9844
L18.4062 0
L9.42188 0
z
" id="BitstreamVeraSans-Roman-6c"/>
     </defs>
     <g transform="translate(125.4 80.731875)scale(0.12 -0.12)">
      <use xlink:href="#BitstreamVeraSans-Roman-5a"/>
      <use x="68.505859375" xlink:href="#BitstreamVeraSans-Roman-65"/>
      <use x="130.029296875" xlink:href="#BitstreamVeraSans-Roman-67"/>
      <use x="193.505859375" xlink:href="#BitstreamVeraSans-Roman-6f"/>
      <use x="254.6875" xlink:href="#BitstreamVeraSans-Roman-6c"/>
     </g>
    </g>
   </g>
  </g>
 </g>
 <defs>
  <clipPath id="p6858f96ca6">
   <rect height="334.8" width="502.2" x="81.0" y="43.2"/>
  </clipPath>
 </defs>
</svg>
